<svg width="79" height="79" viewBox="0 0 79 79" fill="none" xmlns="http://www.w3.org/2000/svg">
<g clip-path="url(#clip0)">
<path d="M36.2937 64.9744C23.484 63.3807 13.8242 52.4285 13.8242 39.4987C13.8242 35.3573 14.8335 31.251 16.7406 27.6074C19.0896 25.1286 19.9994 21.5767 19.1143 18.2731C18.2072 14.8878 15.5375 12.2183 12.1475 11.3062C11.6142 11.1626 11.0447 11.3154 10.6545 11.7062C8.17481 14.191 7.19765 17.8376 8.10476 21.2234C8.85048 24.0061 10.7875 26.3042 13.3362 27.5411C12.7556 28.8123 12.2712 30.1271 11.8821 31.4705C11.5977 31.0866 11.2847 30.7208 10.9418 30.378C8.4635 27.8998 4.817 26.9225 1.42494 27.8277C0.891229 27.9702 0.474318 28.3871 0.331902 28.9208C-0.573203 32.3127 0.404114 35.9593 2.88212 38.4376C4.74927 40.305 7.27927 41.3199 9.86436 41.3199C10.1739 41.3199 10.4843 41.305 10.7945 41.2756C10.8949 42.9095 11.1316 44.5103 11.4964 46.0648C11.0577 45.8744 10.6031 45.7138 10.1344 45.5882C6.74942 44.6808 3.10246 45.658 0.617352 48.138C0.226518 48.528 0.0739181 49.0976 0.217414 49.631C1.12946 53.0213 3.79911 55.6907 7.18438 56.5976C8.02036 56.8217 8.87177 56.9307 9.71809 56.9307C11.7327 56.9306 13.7148 56.3095 15.3785 55.15C16.3149 56.5913 17.3774 57.9451 18.5514 59.1954C15.2489 59.3742 12.216 61.2205 10.5462 64.1059C10.2695 64.584 10.2695 65.1734 10.5462 65.6516C12.3046 68.6902 15.5741 70.5778 19.079 70.5778C22.5702 70.5778 25.8276 68.7044 27.5909 65.6863C30.1746 66.8631 32.9691 67.671 35.9126 68.0372C35.9773 68.0452 36.0414 68.0491 36.105 68.0491C36.8722 68.0491 37.537 67.4774 37.6343 66.6963C37.7396 65.8505 37.1393 65.0798 36.2937 64.9744ZM7.98318 53.6166C5.96034 53.0746 4.30906 51.6152 3.50131 49.7106C5.15306 48.4649 7.31198 48.0263 9.33574 48.5688C11.3586 49.1108 13.0099 50.5702 13.8176 52.4748C12.1657 53.7204 10.0059 54.1586 7.98318 53.6166ZM11.0855 20.4246C10.5434 18.4016 10.9816 16.2421 12.2273 14.5901C14.1321 15.3979 15.5916 17.0492 16.1334 19.0719C16.6755 21.0948 16.2371 23.2544 14.9915 24.9063C13.0869 24.0984 11.6275 22.4474 11.0855 20.4246ZM5.06434 36.2553C3.5834 34.7745 2.8832 32.6852 3.13594 30.6316C5.18979 30.3792 7.27881 31.0791 8.7596 32.56C10.2405 34.0408 10.9407 36.1303 10.688 38.1837C8.634 38.4358 6.54528 37.7361 5.06434 36.2553ZM19.0791 67.4916C16.9849 67.4916 15.0123 66.5093 13.7391 64.8784C15.0123 63.2478 16.9849 62.2654 19.0791 62.2654C21.1734 62.2654 23.1459 63.2477 24.4192 64.8784C23.1461 66.5093 21.1734 67.4916 19.0791 67.4916Z" fill="#BDBDBD"/>
<path d="M68.8567 45.5884C68.3878 45.714 67.9334 45.8746 67.4947 46.065C67.8595 44.5103 68.0962 42.9096 68.1966 41.2758C68.5068 41.3051 68.8171 41.32 69.1267 41.32C71.7115 41.32 74.242 40.3049 76.109 38.4378C78.5871 35.9595 79.5644 32.313 78.6592 28.9209C78.5168 28.3872 78.0999 27.9703 77.5661 27.8279C74.1745 26.9232 70.5276 27.9001 68.0493 30.3781C67.7064 30.7209 67.3935 31.0869 67.109 31.4707C66.7199 30.1272 66.2355 28.8126 65.6549 27.5412C68.2036 26.3043 70.1406 24.0064 70.8863 21.2233C71.7934 17.8379 70.8163 14.1913 68.3366 11.7063C67.9465 11.3155 67.3773 11.1624 66.8436 11.3064C63.4534 12.2184 60.7839 14.8879 59.8768 18.2732C58.9917 21.5767 59.9015 25.1288 62.2505 27.6075C64.1578 31.2511 65.1669 35.3574 65.1669 39.4989C65.1669 52.4286 55.5071 63.3808 42.6974 64.9745C41.8518 65.0799 41.2515 65.8506 41.3567 66.6962C41.4539 67.4772 42.1186 68.0489 42.8859 68.0489C42.9495 68.0489 43.0137 68.045 43.0783 68.037C46.0219 67.6707 48.8163 66.863 51.4 65.6861C53.1632 68.7042 56.4205 70.5777 59.912 70.5777C63.4168 70.5777 66.6862 68.6901 68.4447 65.6514C68.7214 65.1733 68.7214 64.5838 68.4447 64.1057C66.7749 61.2203 63.7421 59.374 60.4395 59.1952C61.6136 57.9449 62.676 56.5913 63.6123 55.15C65.2759 56.3095 67.258 56.9306 69.2728 56.9306C70.119 56.9306 70.9707 56.8213 71.8066 56.5974C75.1918 55.6905 77.8615 53.021 78.7735 49.6308C78.9172 49.0974 78.7644 48.528 78.3736 48.1378C75.8888 45.6583 72.2421 44.6808 68.8567 45.5884ZM70.2315 32.5603C71.7124 31.0792 73.8008 30.3792 75.8551 30.6319C76.1079 32.6856 75.4077 34.7749 73.9268 36.2556C72.446 37.7365 70.3565 38.4365 68.3031 38.184C68.0504 36.1306 68.7506 34.0411 70.2315 32.5603ZM62.8576 19.0721C63.3997 17.0495 64.8592 15.3982 66.7638 14.5904C68.0095 16.2423 68.4477 18.4019 67.9056 20.4249C67.3634 22.4478 65.9041 24.099 63.9996 24.9067C62.754 23.2548 62.3156 21.0953 62.8576 19.0721ZM65.2522 64.8789C63.9789 66.5096 62.0064 67.492 59.9121 67.492C57.8179 67.492 55.8453 66.5098 54.5721 64.8789C55.8453 63.2482 57.8179 62.2658 59.9121 62.2658C62.0064 62.2658 63.9789 63.2482 65.2522 64.8789ZM71.0079 53.617C68.9849 54.1591 66.8255 53.7209 65.1735 52.4752C65.9812 50.5704 67.6325 49.1111 69.6553 48.5692C71.679 48.0273 73.838 48.4655 75.4898 49.711C74.682 51.6157 73.0309 53.075 71.0079 53.617Z" fill="#BDBDBD"/>
<path d="M49.418 50.5546C50.5204 49.7536 50.9588 48.3992 50.5349 47.1041L48.1114 39.7004L54.4383 35.1248C55.5412 34.3271 55.9832 32.9748 55.5639 31.6799C55.1447 30.3848 53.9943 29.5482 52.6332 29.5482H44.8216L42.4299 22.149C42.0109 20.8532 40.8605 20.0159 39.4987 20.0159C38.1369 20.0159 36.9864 20.8532 36.5675 22.1489L34.1758 29.5482H26.3642C25.0031 29.5482 23.8527 30.3849 23.4335 31.6799C23.0142 32.9749 23.456 34.3271 24.559 35.1246L30.886 39.7004L28.4624 47.1042C28.0386 48.3994 28.4771 49.7536 29.5794 50.5546C30.1296 50.9544 30.7599 51.1542 31.3901 51.1542C32.0225 51.1542 32.6548 50.953 33.2062 50.5506L39.4987 45.9576L45.7912 50.5506C46.8918 51.3542 48.3154 51.3556 49.418 50.5546ZM39.4987 42.5046C39.1794 42.5046 38.8599 42.6035 38.589 42.8013L31.4004 48.0481L34.169 39.5903C34.3777 38.9526 34.1504 38.2531 33.6067 37.86L26.3808 32.6341H35.2984C35.9678 32.6341 36.5607 32.2025 36.7667 31.5658L39.4985 23.1143L42.2304 31.5658C42.4363 32.2025 43.0293 32.6341 43.6986 32.6341H52.6162L45.3904 37.86C44.8468 38.2531 44.6195 38.9526 44.8281 39.5903L47.5966 48.0481L40.4081 42.8013C40.1375 42.6034 39.8181 42.5046 39.4987 42.5046Z" fill="#FFA200"/>
</g>
<defs>
<clipPath id="clip0">
<rect width="79" height="79" fill="white"/>
</clipPath>
</defs>
</svg>
