<svg width="79" height="79" viewBox="0 0 79 79" fill="none" xmlns="http://www.w3.org/2000/svg">
<g clip-path="url(#clip0)">
<path d="M39.0425 62.7591C38.6211 62.7591 38.1998 62.5978 37.8772 62.2785L16.7217 41.123C16.1028 40.5042 16.0765 39.5134 16.6558 38.8616L32.5118 21.0998C43.5948 8.13391 61.643 -0.256545 77.3805 0.01008C78.2594 0.02983 78.9671 0.737538 78.9868 1.61641C79.3522 17.3637 70.8663 35.4021 57.8675 46.5082L40.1353 62.3411C39.8259 62.6209 39.4309 62.7591 39.0425 62.7591ZM20.1483 39.8952L39.105 58.8519L55.7049 44.0328C67.5746 33.8879 75.4582 17.7192 75.7017 3.29846C61.2809 3.53875 45.1156 11.4223 34.9904 23.2657L20.1483 39.8952Z" fill="#BDBDBD"/>
<path d="M45.3458 74.8057C45.1878 74.8057 45.0265 74.7827 44.8751 74.7333C44.2826 74.5358 43.7954 74.0816 43.7098 73.4628L41.4518 57.7055C41.3234 56.8069 41.9488 55.9741 42.8474 55.8425C43.7461 55.7009 44.5788 56.3362 44.7105 57.2381L46.4748 69.549C52.2418 62.6529 55.4479 53.9103 55.4479 44.9964C55.4479 44.0879 56.1853 43.3506 57.0938 43.3506C58.0023 43.3506 58.7396 44.0879 58.7396 44.9964C58.7396 55.9017 54.3222 66.5766 46.6197 74.2758C46.2905 74.605 45.8099 74.8057 45.3458 74.8057Z" fill="#BDBDBD"/>
<path d="M21.5309 37.5643C21.4552 37.5643 21.3762 37.561 21.2972 37.5478L5.54 35.2898C4.92117 35.2009 4.40438 34.7697 4.21017 34.1739C4.01596 33.5814 4.17396 32.9263 4.61834 32.4886C12.4295 24.6774 23.101 20.26 34.0063 20.26C34.9148 20.26 35.6522 20.9973 35.6522 21.9058C35.6522 22.8143 34.9148 23.5517 34.0063 23.5517C25.0497 23.5517 16.261 26.7874 9.43734 32.5215L21.7646 34.2891C22.6633 34.4208 23.2887 35.2503 23.1603 36.1522C23.0385 36.9718 22.3341 37.5643 21.5309 37.5643Z" fill="#BDBDBD"/>
<path d="M56.3961 30.8305C54.2861 30.8305 52.1795 30.0273 50.5764 28.4243C47.3704 25.2149 47.3704 19.9943 50.5764 16.785C53.7858 13.5756 59.0064 13.5756 62.2158 16.785C65.4218 19.9943 65.4218 25.2149 62.2158 28.4243C60.6094 30.0306 58.5028 30.8305 56.3961 30.8305ZM56.3961 17.6704C55.1321 17.6704 53.8648 18.151 52.9036 19.1122C50.9813 21.0378 50.9813 24.1715 52.9036 26.0971C54.8293 28.0194 57.9629 28.0161 59.8886 26.0971C61.8109 24.1715 61.8109 21.0378 59.8886 19.1122C58.9241 18.1543 57.6601 17.6704 56.3961 17.6704ZM61.0505 27.2623H61.0834H61.0505Z" fill="#BDBDBD"/>
<path d="M1.64557 79.0003C1.21436 79.0003 0.796316 78.8324 0.480316 78.5197C0.0523994 78.0918 -0.105601 77.4631 0.0688577 76.8837C0.608691 75.0832 5.44415 59.1713 8.96623 55.6492C12.9327 51.6827 19.3876 51.6794 23.3541 55.6492C27.3206 59.6156 27.3206 66.0706 23.3541 70.0371C19.832 73.5591 3.92011 78.3946 2.11957 78.9344C1.96157 78.9772 1.80357 79.0003 1.64557 79.0003ZM16.1618 55.9619C14.3975 55.9619 12.6364 56.6334 11.2934 57.9731C9.39415 59.8757 6.23415 68.3715 4.14723 74.8528C10.6252 72.7658 19.1243 69.6058 21.0236 67.7066C23.7063 65.0238 23.7063 60.6558 21.0236 57.9731C19.6839 56.6334 17.9229 55.9619 16.1618 55.9619Z" fill="#FFA200"/>
</g>
<defs>
<clipPath id="clip0">
<rect width="79" height="79" fill="white"/>
</clipPath>
</defs>
</svg>
