<svg width="79" height="79" viewBox="0 0 79 79" fill="none" xmlns="http://www.w3.org/2000/svg">
<g clip-path="url(#clip0)">
<path d="M67.4793 79H11.521C8.79879 79 6.5835 76.7847 6.5835 74.0625V41.1458C6.5835 40.2373 7.32083 39.5 8.22933 39.5H70.771C71.6795 39.5 72.4168 40.2373 72.4168 41.1458V74.0625C72.4168 76.7847 70.2015 79 67.4793 79ZM9.87516 42.7917V74.0625C9.87516 74.9677 10.6158 75.7083 11.521 75.7083H67.4793C68.3845 75.7083 69.1252 74.9677 69.1252 74.0625V42.7917H9.87516Z" fill="#BDBDBD"/>
<path d="M74.0625 42.7913H4.9375C2.21529 42.7913 0 40.576 0 37.8538V27.9788C0 25.2566 2.21529 23.0413 4.9375 23.0413H74.0625C76.7847 23.0413 79 25.2566 79 27.9788V37.8538C79 40.576 76.7847 42.7913 74.0625 42.7913ZM4.9375 26.3329C4.03229 26.3329 3.29167 27.0736 3.29167 27.9788V37.8538C3.29167 38.759 4.03229 39.4996 4.9375 39.4996H74.0625C74.9677 39.4996 75.7083 38.759 75.7083 37.8538V27.9788C75.7083 27.0736 74.9677 26.3329 74.0625 26.3329H4.9375Z" fill="#BDBDBD"/>
<path d="M39.5001 26.3333C39.0228 26.3333 38.5685 26.1293 38.2558 25.7639C37.9431 25.4051 37.8016 24.9278 37.8707 24.4571C37.9069 24.2102 41.587 0 60.8959 0C69.4016 0 72.42 4.59517 72.42 8.52871C72.42 15.9218 62.206 26.3333 39.5001 26.3333ZM60.8959 3.29167C47.3606 3.29167 42.7457 17.7256 41.5113 23.0088C59.5463 22.4492 69.1284 14.3978 69.1284 8.52871C69.1284 7.06721 68.5128 5.86246 67.3048 4.95725C65.8565 3.86771 63.6379 3.29167 60.8959 3.29167Z" fill="#FFA200"/>
<path d="M39.5035 26.3333C16.7975 26.3333 6.5835 15.9218 6.5835 8.52871C6.5835 6.04679 7.69937 3.84138 9.72045 2.32392C11.7448 0.803167 14.6448 0 18.1076 0C37.4165 0 41.0966 24.2102 41.1328 24.4571C41.202 24.9311 41.0604 25.4051 40.7477 25.7639C40.435 26.1293 39.9808 26.3333 39.5035 26.3333ZM18.1076 3.29167C13.0286 3.29167 9.87516 5.29629 9.87516 8.52871C9.87516 14.401 19.4638 22.4525 37.5087 23.012C36.3138 17.696 31.8141 3.29167 18.1076 3.29167Z" fill="#FFA200"/>
<path d="M39.4998 78.9996C38.5913 78.9996 37.854 78.2623 37.854 77.3538V24.6871C37.854 23.7786 38.5913 23.0413 39.4998 23.0413C40.4083 23.0413 41.1457 23.7786 41.1457 24.6871V77.3538C41.1457 78.2623 40.4083 78.9996 39.4998 78.9996Z" fill="#FFA200"/>
</g>
<defs>
<clipPath id="clip0">
<rect width="79" height="79" fill="white"/>
</clipPath>
</defs>
</svg>
