<svg width="79" height="79" viewBox="0 0 79 79" fill="none" xmlns="http://www.w3.org/2000/svg">
<g clip-path="url(#clip0)">
<path d="M78.5737 22.8696C78.5555 22.8504 78.5367 22.8316 78.5175 22.8134L62.2098 8.31942C62.061 8.18378 61.8874 8.07856 61.6983 8.00939L49.9015 3.79295C49.0968 3.50075 48.2076 3.91638 47.9154 4.72111C47.8627 4.86624 47.8321 5.01835 47.8243 5.17259C47.8243 5.51363 47.3128 11.7929 39.4535 11.9169C31.5477 11.7929 31.0516 5.51363 31.0361 5.17259C30.9904 4.31768 30.2603 3.66177 29.4053 3.7075C29.2585 3.71544 29.1133 3.74412 28.9744 3.79295L17.1932 8.05589C17.0041 8.12507 16.8304 8.23028 16.6816 8.36592L0.482467 22.8134C-0.138178 23.403 -0.163368 24.3843 0.426274 25.0049C0.444488 25.0241 0.463284 25.0429 0.482467 25.0611L13.3798 38.098V73.7516C13.3798 74.6077 14.0739 75.3018 14.93 75.3018H64.07C64.9261 75.3018 65.6202 74.6077 65.6202 73.7516V38.098L78.5175 25.0611C79.1381 24.4715 79.1633 23.4904 78.5737 22.8696ZM65.5737 33.68V26.4873C65.5737 25.6312 64.8796 24.9371 64.0235 24.9371C63.1674 24.9371 62.4733 25.6312 62.4733 26.4873V72.124H16.4181V26.4873C16.4181 25.6312 15.724 24.9371 14.8679 24.9371C14.0119 24.9371 13.3178 25.6312 13.3178 26.4873V33.6955L3.78431 24.038L18.5418 10.8307L28.2458 7.32731C29.448 13.5214 35.4438 15.9882 41.6378 14.7861C46.2122 13.8982 49.7888 11.9016 50.6766 7.32731L60.3806 10.8307L75.0916 24.038L65.5737 33.68Z" fill="#BDBDBD"/>
<rect x="28.3599" y="29.9409" width="22.28" height="29.39" rx="1.5" stroke="#FFA200" stroke-width="3"/>
</g>
<defs>
<clipPath id="clip0">
<rect width="79" height="79" fill="white"/>
</clipPath>
</defs>
</svg>
