<svg width="79" height="79" viewBox="0 0 79 79" fill="none" xmlns="http://www.w3.org/2000/svg">
<path d="M58.6128 0H20.387C18.2759 0 16.5645 1.7114 16.5645 3.82258V75.1774C16.5645 77.2886 18.2759 79 20.387 79H50.9677C57.2979 78.9922 62.4278 73.8625 62.4354 67.5323V3.82258C62.4354 1.7114 60.724 0 58.6128 0ZM19.1128 3.82258C19.1128 3.11891 19.6834 2.54839 20.387 2.54839H38.4817V5.09677H19.1128V3.82258ZM59.887 67.5323C59.8815 72.4559 55.8913 76.446 50.9677 76.4516H20.387C19.6834 76.4516 19.1128 75.8811 19.1128 75.1774V7.64516H59.887V67.5323ZM59.887 5.09677H40.4567V2.54839H58.6128C59.3165 2.54839 59.887 3.11891 59.887 3.82258V5.09677Z" fill="#BDBDBD"/>
<path d="M23.2788 37.13H51.0868C54.2847 37.1262 56.8764 34.5141 56.8801 31.2909V11.4378C56.8801 10.7929 56.3613 10.27 55.7215 10.27H23.2788C22.6389 10.27 22.1201 10.7929 22.1201 11.4378V35.9622C22.1201 36.6071 22.6389 37.13 23.2788 37.13ZM24.4375 12.6057H54.5628V31.2909C54.5628 33.2258 53.0065 34.7944 51.0868 34.7944H24.4375V12.6057Z" fill="#BDBDBD"/>
<path d="M52.5349 52.1399C50.1353 52.1399 48.1899 54.0852 48.1899 56.4849C48.1899 58.8846 50.1353 60.8299 52.5349 60.8299C54.9346 60.8299 56.8799 58.8846 56.8799 56.4849C56.8799 54.0852 54.9346 52.1399 52.5349 52.1399ZM52.5349 58.6574C51.335 58.6574 50.3624 57.6848 50.3624 56.4849C50.3624 55.285 51.335 54.3124 52.5349 54.3124C53.7348 54.3124 54.7074 55.285 54.7074 56.4849C54.7074 57.6848 53.7348 58.6574 52.5349 58.6574Z" fill="#FFA200"/>
<path d="M48.98 62.0149C48.98 59.6153 47.0347 57.6699 44.635 57.6699C42.2354 57.6699 40.29 59.6153 40.29 62.0149C40.29 64.4146 42.2354 66.3599 44.635 66.3599C47.0347 66.3599 48.98 64.4146 48.98 62.0149ZM44.635 64.1874C43.4351 64.1874 42.4625 63.2148 42.4625 62.0149C42.4625 60.815 43.4351 59.8424 44.635 59.8424C45.8349 59.8424 46.8075 60.815 46.8075 62.0149C46.8075 63.2148 45.8349 64.1874 44.635 64.1874Z" fill="#FFA200"/>
<path d="M23.1923 54.7357H26.4087V58.1214C26.4087 58.7446 26.8887 59.25 27.4808 59.25H31.7694C32.3615 59.25 32.8415 58.7446 32.8415 58.1214V54.7357H36.058C36.6501 54.7357 37.1301 54.2303 37.1301 53.6071V49.0928C37.1301 48.4696 36.6501 47.9642 36.058 47.9642H32.8415V44.5785C32.8415 43.9553 32.3615 43.45 31.7694 43.45H27.4808C26.8887 43.45 26.4087 43.9553 26.4087 44.5785V47.9642H23.1923C22.6002 47.9642 22.1201 48.4696 22.1201 49.0928V53.6071C22.1201 54.2303 22.6002 54.7357 23.1923 54.7357ZM24.2644 50.2214H27.4808C28.0729 50.2214 28.553 49.7161 28.553 49.0928V45.7071H30.6973V49.0928C30.6973 49.7161 31.1773 50.2214 31.7694 50.2214H34.9858V52.4785H31.7694C31.1773 52.4785 30.6973 52.9838 30.6973 53.6071V56.9928H28.553V53.6071C28.553 52.9838 28.0729 52.4785 27.4808 52.4785H24.2644V50.2214Z" fill="#FFA200"/>
</svg>
