<svg width="79" height="79" viewBox="0 0 79 79" fill="none" xmlns="http://www.w3.org/2000/svg">
<g clip-path="url(#clip0)">
<path d="M27.3662 28.4585H76.9516" stroke="#FFA200" stroke-width="3"/>
<path d="M1.43467 57.6123H5.77859C6.28641 61.9939 9.99771 65.299 14.4079 65.299C18.819 65.299 22.5294 61.9939 23.0376 57.6123H51.1279C51.6371 61.9939 55.347 65.299 59.7572 65.299C64.1682 65.299 67.8782 61.9939 68.3874 57.6123H77.5526C78.3522 57.6123 79.0003 56.9643 79.0003 56.1646V15.1593C79.0003 14.3597 78.3522 13.7112 77.5526 13.7112H27.3089C26.5102 13.7112 25.8617 14.3597 25.8617 15.1593V23.2817H13.5969C13.1236 23.283 12.6802 23.5149 12.4097 23.9048L4.48975 35.2415L1.39156 39.5854L0.262014 41.1928C0.0927408 41.4347 0.00152402 41.7224 0.000616386 42.0179V56.1215C-0.010729 56.51 0.134946 56.8871 0.404512 57.1676C0.674078 57.4485 1.04575 57.6087 1.43467 57.6123ZM14.3788 61.9558C11.1808 61.9558 8.58725 59.3627 8.58725 56.1646C8.58725 52.9657 11.1808 50.3726 14.3788 50.3726C17.5778 50.3726 20.1709 52.9657 20.1709 56.1646C20.1709 59.3749 17.5896 61.9889 14.3788 62.0284V61.9558ZM59.7281 61.9558C56.5296 61.9558 53.9361 59.3627 53.9361 56.1646C53.9361 52.9657 56.5296 50.3726 59.7281 50.3726C62.9275 50.3726 65.5202 52.9657 65.5202 56.1646C65.5206 59.3749 62.9389 61.9889 59.7281 62.0284V61.9558ZM76.0754 16.607C76.0754 70.4252 76.0754 21.7007 76.0754 54.7165H68.3588C67.8496 50.3354 64.1392 47.0307 59.7281 47.0307C55.3179 47.0307 51.6076 50.3354 51.0988 54.7165H28.7571V23.195H76.5644C77.364 23.195 78.0125 22.5465 78.0125 21.7469C78.0125 20.9473 77.364 20.2988 76.5644 20.2988H28.7571V16.607H76.0754ZM14.3502 26.1779H25.9334V54.7165H23.0376C22.5294 50.3354 18.819 47.0307 14.4079 47.0307C9.99771 47.0307 6.28641 50.3354 5.77859 54.7165H2.88234V42.4812L3.31664 41.8586H20.9818C21.7815 41.8586 22.4295 41.211 22.4295 40.4114V29.6968C22.4295 28.8972 21.7815 28.2487 20.9818 28.2487H12.8731L14.3502 26.1779ZM10.8463 31.1735H19.5337V38.9918H5.32931L10.8463 31.1735Z" fill="#BDBDBD"/>
</g>
<defs>
<clipPath id="clip0">
<rect width="79" height="79" fill="white"/>
</clipPath>
</defs>
</svg>
