<svg width="28" height="28" viewBox="0 0 28 28" fill="none" xmlns="http://www.w3.org/2000/svg">
<g clip-path="url(#clip0)">
<path d="M13.5898 0.109922L2.17578 6.69977C1.92198 6.84627 1.76562 7.11709 1.76562 7.41016V20.5898C1.76562 20.8829 1.92198 21.1537 2.17578 21.3002L13.5898 27.8901C13.8436 28.0366 14.1563 28.0366 14.4101 27.8901L25.8242 21.3002C26.078 21.1537 26.2343 20.8829 26.2343 20.5898V7.41016C26.2343 7.11709 26.078 6.84627 25.8242 6.69977L14.4101 0.109922C14.1563 -0.0366406 13.8436 -0.0366406 13.5898 0.109922Z" fill="#FCC354"/>
<path d="M13.999 14.0009L26.1234 7.00093C26.0526 6.87827 25.9501 6.77393 25.8232 6.7007L14.4091 0.110857C14.1553 -0.0356504 13.8426 -0.0356504 13.5888 0.110857L2.17475 6.7007C2.04782 6.77398 1.94528 6.87832 1.87451 7.00093L13.999 14.0009Z" fill="#FFDC5D"/>
<path d="M14 28C14.1416 28 14.2832 27.9634 14.4102 27.8901L25.8242 21.3002C26.078 21.1537 26.2344 20.8829 26.2344 20.5898V7.41016C26.2344 7.26365 26.1953 7.12266 26.1244 7L14 14V28Z" fill="#EF9645"/>
<path d="M18.1773 17.244L22.8863 14.5255C23.2786 14.299 23.4131 13.7973 23.1866 13.405C22.96 13.0127 22.4584 12.878 22.066 13.1047L17.3571 15.8232C16.9648 16.0497 16.8303 16.5513 17.0568 16.9437C17.2602 17.296 17.7487 17.4915 18.1773 17.244Z" fill="#FFDC5D"/>
<path d="M23.1866 18.114C22.9601 17.7216 22.4584 17.5871 22.066 17.8137L17.3571 20.5322C16.9647 20.7588 16.8303 21.2604 17.0568 21.6528C17.2586 22.0023 17.7453 22.2026 18.1774 21.953L22.8863 19.2345C23.2786 19.0081 23.413 18.5064 23.1866 18.114Z" fill="#FFDC5D"/>
<path d="M18.0825 2.22998L5.84812 9.29342L5.84473 13.5185C5.84451 13.8118 6.00086 14.0828 6.25488 14.2295L8.69559 15.6388C9.24246 15.9546 9.92605 15.5599 9.92605 14.9284V11.6479L22.1604 4.5845L18.0825 2.22998Z" fill="#FFF7F4"/>
<path d="M9.92654 14.9279V11.6474L5.84861 9.29297L5.84522 13.518C5.845 13.8113 6.00135 14.0824 6.25532 14.2291L8.69602 15.6384C9.24289 15.9541 9.92654 15.5594 9.92654 14.9279Z" fill="#F0E6E6"/>
</g>
<defs>
<clipPath id="clip0">
<rect width="28" height="28" fill="white"/>
</clipPath>
</defs>
</svg>
