<svg width="28" height="28" viewBox="0 0 28 28" fill="none" xmlns="http://www.w3.org/2000/svg">
<path d="M19.7422 6.5625H14.8203L13.1797 8.20312V14.7656H16.4609L18.1016 13.125H21.3828V8.20312L19.7422 6.5625Z" fill="#EF9645"/>
<path d="M13.1797 4.92188H21.3828V8.20312H13.1797V4.92188Z" fill="#EF9645"/>
<path d="M15.0938 6.39844H19.4688V7.27344H15.0938V6.39844Z" fill="#FFDC5D"/>
<path d="M15.0938 8.14844H19.4688V9.02344H15.0938V8.14844Z" fill="#FFDC5D"/>
<path d="M9.07812 13.9453H6.61719V28H9.07812H11.5391V13.9453H9.07812Z" fill="#EF9645"/>
<path d="M11.5391 13.125V10.6641C11.5391 9.30705 10.4351 8.20312 9.07812 8.20312C7.72111 8.20312 6.61719 9.30705 6.61719 10.6641V13.9453C6.61719 15.3045 7.71898 16.4062 9.07812 16.4062H15.6406C16.9998 16.4062 18.1016 15.3045 18.1016 13.9453V13.125H11.5391Z" fill="#FFDC5D"/>
<path d="M9.89844 4.10156H9.07812H8.25781L6.61719 4.92188V5.74219C6.61719 7.0992 7.72111 8.20312 9.07812 8.20312C10.4351 8.20312 11.5391 7.0992 11.5391 5.74219V4.92188L9.89844 4.10156Z" fill="#FFE1BA"/>
<path d="M9.07812 0C7.72111 0 6.61719 1.10392 6.61719 2.46094V3.28125L8.25781 4.10156H9.07812H9.89844L11.5391 3.28125V2.46094C11.5391 1.10392 10.4351 0 9.07812 0Z" fill="#FFDC5D"/>
<path d="M9.07812 3.28125H6.61719V4.92188H9.07812H13.1797V3.28125H9.07812Z" fill="#EF9645"/>
</svg>
