<svg width="28" height="28" viewBox="0 0 28 28" fill="none" xmlns="http://www.w3.org/2000/svg">
<path d="M27.1797 20.9172H18.2656C17.8126 20.9172 17.4453 20.5499 17.4453 20.097V8.45065C17.4453 7.99767 17.8126 7.63037 18.2656 7.63037H18.4981C20.7493 7.63037 22.7014 8.73953 23.8537 10.6733L25.4622 13.3728C26.8645 13.3901 28 14.5364 28 15.9428V20.097C28 20.5499 27.6327 20.9172 27.1797 20.9172Z" fill="#FCC354"/>
<path d="M17.8507 5H0.801648C0.358956 5 0 5.35029 0 5.7823V20.1353C0 20.5673 0.358956 20.9176 0.801648 20.9176H17.8507C18.2936 20.9176 18.6526 20.5673 18.6526 20.1353V5.7823C18.6526 5.35029 18.2936 5 17.8507 5Z" fill="#FFDC5D"/>
<path d="M17.8507 9.15674H0.801648C0.358957 9.15674 0 9.15674 0 9.15674L4.96956e-07 11.1806C4.96956e-07 11.1806 0.358957 11.1806 0.801648 11.1806H17.8507C18.2936 11.1806 18.6526 11.1806 18.6526 11.1806V9.15674C18.6526 9.15674 18.2936 9.15674 17.8507 9.15674Z" fill="#EF9645"/>
<path d="M22.384 13.3689L25.4619 13.3727L23.8868 10.7197C23.088 9.38073 21.8656 8.36209 20.4575 7.92627L20.5616 11.7576C20.5616 12.6475 21.4933 13.3689 22.384 13.3689Z" fill="#FFF7F4"/>
<path fill-rule="evenodd" clip-rule="evenodd" d="M5.76962 23.3242C7.04972 23.3242 8.09392 22.28 8.09392 20.9999C8.09392 19.7198 7.04972 18.6758 5.76962 18.6758C4.48952 18.6758 3.44531 19.7198 3.44531 20.9999C3.44531 22.28 4.48952 23.3242 5.76962 23.3242Z" fill="#FFF7F4"/>
<path d="M5.76959 24.1446C4.03565 24.1446 2.625 22.734 2.625 21.0001C2.625 19.2661 4.03565 17.8555 5.76959 17.8555C7.50352 17.8555 8.91417 19.2663 8.91417 21.0001C8.91417 22.734 7.50352 24.1446 5.76959 24.1446ZM5.76959 19.4962C4.94033 19.4962 4.26577 20.1708 4.26577 21.0001C4.26577 21.8293 4.94033 22.5041 5.76959 22.5041C6.59884 22.5041 7.2734 21.8293 7.2734 21.0001C7.2734 20.1708 6.59884 19.4962 5.76959 19.4962Z" fill="#EF9645"/>
<path fill-rule="evenodd" clip-rule="evenodd" d="M22.7772 23.3242C24.0575 23.3242 25.1015 22.28 25.1015 20.9999C25.1015 19.7198 24.0575 18.6758 22.7772 18.6758C21.4971 18.6758 20.4531 19.7198 20.4531 20.9999C20.4531 22.28 21.4971 23.3242 22.7772 23.3242Z" fill="#FFF7F4"/>
<path d="M22.7772 24.1446C21.0435 24.1446 19.6328 22.734 19.6328 21.0001C19.6328 19.2661 21.0435 17.8555 22.7772 17.8555C24.5111 17.8555 25.9218 19.2663 25.9218 21.0001C25.9218 22.734 24.5111 24.1446 22.7772 24.1446ZM22.7772 19.4962C21.9479 19.4962 21.2734 20.1708 21.2734 21.0001C21.2734 21.8293 21.9479 22.5041 22.7772 22.5041C23.6067 22.5041 24.2812 21.8293 24.2812 21.0001C24.2812 20.1708 23.6064 19.4962 22.7772 19.4962Z" fill="#EF9645"/>
</svg>
