<svg width="42" height="54" viewBox="0 0 42 54" fill="none" xmlns="http://www.w3.org/2000/svg">
<g filter="url(#filter0_d)">
<path d="M30.944 22.5074C30.6513 22.2148 30.3093 21.968 29.9398 21.7775L29.4807 20.2213L20.2857 20.157L19.9334 21.4091C19.3975 21.5181 18.7387 21.8556 18.3347 22.2331L14.1906 17.6953C13.2529 18.1131 12.5965 19.0495 12.5965 20.1433V21.245L8.00586 26.0261L8.02422 28.5372L19.4824 40.8504C19.4824 40.8504 31.5534 23.305 31.5821 23.3395C31.4363 23.0824 30.9956 22.5327 30.944 22.5074Z" fill="#EF9645"/>
<path d="M28.1769 21.3422H20.6242C20.3855 21.3422 20.1525 21.3663 19.9276 21.4123L19.8438 21.0932L16.0875 6.78886C16.0875 6.78886 15.6101 4.5429 17.8549 4.06663C20.0997 3.5892 20.5771 5.83401 20.5771 5.83401L24.1314 19.1112C24.6433 19.1388 25.139 19.1835 25.6291 19.234L27.9944 7.16988C27.9944 7.16988 28.2102 4.8849 30.4963 5.09952C32.7813 5.31527 32.5655 7.60025 32.5655 7.60025L30.1956 20.4092L29.942 21.7795C29.4095 21.5098 28.815 21.3422 28.1769 21.3422ZM10.1989 19.0469H10.3917C11.6071 19.0469 12.5906 20.0316 12.5906 21.247V26.0281C12.5906 27.2435 11.6071 28.2282 10.3917 28.2282H10.1989C8.98354 28.2282 8 27.2435 8 26.0281V21.247C8 20.0316 8.98354 19.0469 10.1989 19.0469ZM18.1384 22.444L18.0741 22.5151C17.5301 23.1223 17.1812 23.905 17.1812 24.7852C17.1812 24.8575 17.1961 24.9264 17.2019 24.9975C17.2524 25.7756 17.5554 26.4803 18.0374 27.0335C17.9559 27.1815 17.8503 27.3123 17.7401 27.4386C17.3201 27.9172 16.7187 28.2282 16.0336 28.2282C14.7666 28.2282 13.7383 27.1999 13.7383 25.9329V19.0469C13.7383 18.5408 13.907 18.0772 14.1847 17.6973C14.6024 17.1269 15.2715 16.7516 16.0336 16.7516C17.3006 16.7516 18.3289 17.7799 18.3289 19.0469V22.2351C18.2589 22.2982 18.2038 22.3763 18.1384 22.444Z" fill="#FFDC5D"/>
<path d="M10.366 29.3762C11.5412 29.3762 12.5753 28.7725 13.1778 27.859C13.3189 28.069 13.4888 28.256 13.6724 28.4293C15.0324 29.709 17.1544 29.6275 18.4547 28.3306C18.6291 28.1562 18.8024 27.9806 18.9355 27.7706L18.9321 27.7671C19.1628 27.8991 19.4761 28.2285 20.6237 28.2285H23.5353C23.1107 28.5487 22.7228 28.9435 22.3601 29.3762C20.9508 31.0598 20.0499 33.5146 20.0499 36.2621C20.0499 36.5788 20.307 36.8359 20.6237 36.8359C20.9405 36.8359 21.1976 36.5788 21.1976 36.2621C21.1976 33.3378 22.2947 30.782 23.9255 29.3762C24.7656 28.652 25.7434 28.2285 26.7924 28.2285C27.6107 28.3192 27.7644 27.0808 26.9358 27.0808H20.6237C19.3567 27.0808 18.3284 26.0525 18.3284 24.7855C18.3284 23.5185 19.3567 22.4902 20.6237 22.4902H29.805C30.7896 22.4902 31.7101 23.1742 32.0004 24.1142L33.2479 28.2285C33.3661 28.613 33.7976 30.3758 33.7196 30.743C33.7196 36.2621 28.3302 42.0003 21.7714 42.0003C14.2692 42.0003 8.17859 35.997 8.01562 28.5338L8.03169 28.5452C8.62273 29.056 9.38133 29.3762 10.2237 29.3762H10.366Z" fill="#FFDC5D"/>
</g>
<defs>
<filter id="filter0_d" x="0" y="0" width="41.729" height="54.0003" filterUnits="userSpaceOnUse" color-interpolation-filters="sRGB">
<feFlood flood-opacity="0" result="BackgroundImageFix"/>
<feColorMatrix in="SourceAlpha" type="matrix" values="0 0 0 0 0 0 0 0 0 0 0 0 0 0 0 0 0 0 127 0"/>
<feOffset dy="4"/>
<feGaussianBlur stdDeviation="4"/>
<feColorMatrix type="matrix" values="0 0 0 0 0.56276 0 0 0 0 0.56276 0 0 0 0 0.56276 0 0 0 0.1 0"/>
<feBlend mode="normal" in2="BackgroundImageFix" result="effect1_dropShadow"/>
<feBlend mode="normal" in="SourceGraphic" in2="effect1_dropShadow" result="shape"/>
</filter>
</defs>
</svg>
