<svg width="250" height="36" viewBox="0 0 250 36" fill="none" xmlns="http://www.w3.org/2000/svg">
<path fill-rule="evenodd" clip-rule="evenodd" d="M41.0237 27.627H236.662C237.445 27.627 238.084 28.2672 238.084 29.0499V34.5765C238.084 35.3591 237.445 35.9995 236.662 35.9995H41.0237C40.241 35.9995 39.6006 35.3591 39.6006 34.5765V29.0499C39.6006 28.2672 40.241 27.627 41.0237 27.627Z" fill="#FFA200"/>
<path fill-rule="evenodd" clip-rule="evenodd" d="M58.0621 16.2276H44.505V17.8927H58.0621V16.2276ZM45.8886 21.7403L40.7988 21.7215V12.1067C40.7988 11.4925 40.9273 10.9074 41.1842 10.3521C41.4411 9.79711 41.783 9.31112 42.2097 8.89397C42.636 8.47714 43.1273 8.14459 43.6819 7.89684C44.2372 7.64926 44.8124 7.52539 45.4082 7.52539H60.6866V11.2603H44.505V12.8972H56.792C57.1994 12.8972 57.5979 12.9473 57.9865 13.0478C58.3755 13.1482 58.7442 13.2892 59.092 13.4709C59.44 13.6527 59.7599 13.8755 60.0516 14.1389C60.3432 14.4026 60.594 14.6953 60.8042 15.0185C61.0142 15.3414 61.1791 15.6926 61.2982 16.0721C61.4173 16.4519 61.4769 16.8517 61.4769 17.2719C61.4769 17.9241 61.3405 18.5229 61.0676 19.0688C60.7949 19.6142 60.4309 20.0845 59.9765 20.4798C59.5216 20.875 58.9996 21.1838 58.41 21.4066C57.8202 21.6293 57.212 21.7403 56.585 21.7403H45.8886Z" fill="#FFA200"/>
<path fill-rule="evenodd" clip-rule="evenodd" d="M67.2164 12.8994H80.4345V11.0931H67.2164V12.8994ZM79.1454 7.4707C79.8098 7.4707 80.4482 7.57945 81.0598 7.79559C81.6712 8.01207 82.2105 8.31607 82.6778 8.70809C83.1451 9.09994 83.5166 9.56757 83.7929 10.1096C84.0685 10.6525 84.2068 11.2498 84.2068 11.9022C84.2068 12.5295 84.0812 13.1173 83.8302 13.666C83.5794 14.215 83.2425 14.6949 82.819 15.1056C82.3957 15.5163 81.9033 15.8393 81.342 16.0743C80.7806 16.3097 80.1896 16.4272 79.5687 16.4272H67.2164V21.6861H63.3965V7.4707H79.1454Z" fill="#FFA200"/>
<path fill-rule="evenodd" clip-rule="evenodd" d="M89.5311 12.8405H103.06V7.52539H106.832V17.1588C106.832 17.7735 106.703 18.3537 106.446 18.8989C106.189 19.4449 105.847 19.9247 105.421 20.3387C104.994 20.7527 104.502 21.0803 103.944 21.3218C103.385 21.5632 102.805 21.6839 102.203 21.6839H86.9249V18.0058H103.078V16.3688H90.8198C90.205 16.3688 89.6157 16.259 89.0515 16.0391C88.4869 15.8196 87.988 15.5158 87.5557 15.1266C87.1227 14.7378 86.7776 14.2768 86.5207 13.7438C86.2632 13.2109 86.1348 12.6277 86.1348 11.9942V7.52539H89.5311V12.8405Z" fill="#FFA200"/>
<path fill-rule="evenodd" clip-rule="evenodd" d="M108.752 7.48828H128.969V11.0915H120.681V21.6845H117.021V11.0915H108.752V7.48828Z" fill="#FFA200"/>
<path fill-rule="evenodd" clip-rule="evenodd" d="M138.772 14.3292H142.14L140.465 11.3L138.772 14.3292ZM134.961 21.6861H130.888L136.42 10.9895C136.702 10.4439 136.975 9.95465 137.238 9.52185C137.501 9.08906 137.787 8.72066 138.094 8.41633C138.401 8.1125 138.75 7.87885 139.139 7.71556C139.527 7.55244 139.988 7.4707 140.521 7.4707C141.048 7.4707 141.495 7.55073 141.862 7.71114C142.229 7.87104 142.556 8.10469 142.845 8.41191C143.134 8.71897 143.407 9.09858 143.664 9.5499C143.921 10.0016 144.203 10.5159 144.51 11.0931L150.042 21.6861H146.109L143.974 17.97H136.918L134.961 21.6861Z" fill="#FFA200"/>
<path fill-rule="evenodd" clip-rule="evenodd" d="M155.696 21.7601H151.971V12.1262C151.971 11.75 152.029 11.3751 152.145 11.0018C152.261 10.629 152.421 10.2696 152.624 9.92482C152.828 9.57971 153.07 9.25991 153.349 8.9651C153.628 8.67044 153.93 8.41352 154.257 8.19364C154.583 7.97426 154.926 7.80214 155.287 7.67638C155.647 7.55082 156.013 7.48828 156.383 7.48828H172.395V21.7601H168.622V11.1104H155.696V21.7601Z" fill="#FFA200"/>
<path fill-rule="evenodd" clip-rule="evenodd" d="M194.174 10.6024V21.6849H190.57V11.054L180.881 20.5089C180.422 21.0046 179.943 21.3603 179.441 21.5769C178.94 21.7931 178.415 21.9011 177.87 21.9011C177.312 21.9011 176.813 21.7946 176.374 21.5815C175.934 21.3684 175.564 21.0813 175.26 20.7207C174.955 20.36 174.723 19.9382 174.563 19.4552C174.403 18.9724 174.323 18.4583 174.323 17.9124V7.52641H177.944V18.1193L187.645 8.57994C188.585 7.65811 189.574 7.19727 190.609 7.19727C191.066 7.19727 191.509 7.26285 191.939 7.39455C192.369 7.52641 192.748 7.73201 193.078 8.01086C193.407 8.28988 193.673 8.64434 193.873 9.07391C194.074 9.50349 194.174 10.0131 194.174 10.6024Z" fill="#FFA200"/>
<path fill-rule="evenodd" clip-rule="evenodd" d="M196.093 7.48828H216.31V11.0915H208.023V21.6845H204.363V11.0915H196.093V7.48828Z" fill="#FFA200"/>
<path fill-rule="evenodd" clip-rule="evenodd" d="M238.081 10.6024V21.6849H234.477V11.054L224.788 20.5089C224.329 21.0046 223.85 21.3603 223.349 21.5769C222.846 21.7931 222.322 21.9011 221.777 21.9011C221.218 21.9011 220.72 21.7946 220.281 21.5815C219.841 21.3684 219.471 21.0813 219.165 20.7207C218.861 20.36 218.63 19.9382 218.47 19.4552C218.31 18.9724 218.23 18.4583 218.23 17.9124V7.52641H221.852V18.1193L231.551 8.57994C232.492 7.65811 233.48 7.19727 234.514 7.19727C234.973 7.19727 235.417 7.26285 235.847 7.39455C236.275 7.52641 236.655 7.73201 236.985 8.01086C237.313 8.28988 237.578 8.64434 237.78 9.07391C237.981 9.50349 238.081 10.0131 238.081 10.6024Z" fill="#FFA200"/>
<path fill-rule="evenodd" clip-rule="evenodd" d="M43.5832 31.7137L45.1064 29.3047H46.0016V33.4973H45.0249V31.1179L43.5008 33.4973H42.5703V29.3047H43.5832V31.7137ZM53.0042 30.318V33.4973H51.9914V29.3047H55.0978V30.318H53.0042ZM61.9922 33.2744V35.4844H60.9794V29.3047H61.9922V29.609C62.2928 29.3789 62.6445 29.2478 63.0474 29.2687L63.0569 29.2692L63.0666 29.2709C63.4652 29.3345 63.841 29.4834 64.1331 29.7692C64.6425 30.2676 64.7361 31.0219 64.6991 31.6999V31.7026L64.6989 31.7051C64.6282 32.5529 64.2586 33.2275 63.4168 33.4892L63.4104 33.4912L63.4037 33.4928C62.885 33.6125 62.4024 33.5497 61.9922 33.2744ZM62.8061 30.1376C62.4761 30.1467 62.1844 30.451 61.9922 30.7028V32.2441C62.2307 32.5534 62.5264 32.7173 62.9283 32.6325L62.9378 32.6303L62.9477 32.6293C63.121 32.6121 63.289 32.5614 63.4267 32.4512C63.7823 32.1669 63.8143 31.5759 63.7952 31.1595C63.7599 30.727 63.6098 30.3475 63.174 30.2045L62.8061 30.1376ZM73.216 29.3047H74.229V33.4973H73.216V29.3047ZM70.7637 30.8582H71.7501L71.7628 30.8601C72.3757 30.9477 72.7239 31.3483 72.8529 31.9405L72.8571 31.9595V32.3503L72.8561 32.3604C72.7759 33.0825 72.3666 33.4973 71.6289 33.4973H69.7868V29.3047H70.7637V30.8582ZM70.7637 31.7993V32.5562H71.5927C71.7749 32.5562 71.8792 32.4999 71.9166 32.3229V32.0678C71.868 31.8306 71.6235 31.7993 71.4124 31.7993H70.7637ZM92.5726 30.2458H91.0948V33.4973H90.0821V29.3047H93.5494V33.4973H92.5726V30.2458ZM100.263 33.2744V35.4844H99.2505V29.3047H100.263V29.609C100.564 29.3789 100.916 29.2478 101.318 29.2687L101.328 29.2692L101.338 29.2709C101.736 29.3345 102.112 29.4834 102.404 29.7692C102.914 30.2676 103.007 31.0219 102.97 31.6999L102.97 31.7026L102.97 31.7051C102.899 32.5529 102.53 33.2275 101.688 33.4892L101.681 33.4912L101.675 33.4928C101.156 33.6125 100.673 33.5497 100.263 33.2744ZM101.077 30.1376C100.747 30.1467 100.455 30.451 100.263 30.7028V32.2441C100.502 32.5534 100.797 32.7173 101.199 32.6325L101.209 32.6303L101.219 32.6293C101.392 32.6121 101.56 32.5614 101.698 32.4512C102.053 32.1669 102.085 31.5759 102.066 31.1595C102.031 30.727 101.881 30.3475 101.445 30.2045L101.077 30.1376ZM109.576 31.7137L111.099 29.3047H111.994V33.4973H111.018V31.1179L109.494 33.4973H108.563V29.3047H109.576V31.7137ZM117.913 31.708L117.875 31.366L117.877 31.3469C117.969 30.4277 118.361 29.6668 119.249 29.3196C119.425 29.2364 119.745 29.2324 119.935 29.2324H119.941L119.947 29.2327C120.339 29.2592 120.705 29.3782 121.04 29.5844L121.178 29.6688L120.796 30.4952L120.615 30.3505C120.408 30.1851 120.176 30.1169 119.912 30.1369L119.902 30.1376L119.892 30.1373C119.235 30.1132 118.953 30.5978 118.815 31.1775C118.763 31.7594 118.888 32.2816 119.43 32.5708C119.861 32.7179 120.254 32.6405 120.622 32.3738L120.786 32.2554L121.258 33.082L121.12 33.1765C120.584 33.5436 119.963 33.6254 119.33 33.5315L119.311 33.5287L119.293 33.5219C118.458 33.2086 117.992 32.596 117.913 31.708ZM129.284 30.2458V33.4973H128.308V30.2458H126.792V29.3047H130.801V30.2458H129.284ZM139.303 29.7508C139.385 29.8161 139.42 29.9308 139.442 30.0306C139.477 30.1942 139.49 30.375 139.499 30.5418C139.514 30.8049 139.518 31.0699 139.518 31.3334C139.518 31.6939 139.51 32.0548 139.5 32.4153V32.5774C139.566 32.5758 139.652 32.5639 139.688 32.5584L139.701 32.5562H139.969V33.4973H138.848L138.814 33.4826C138.683 33.4266 138.582 33.3428 138.521 33.234C138.101 33.4629 137.64 33.5696 137.153 33.5696H137.036L137.027 33.5688C136.328 33.5025 136.105 32.9383 136.105 32.3043C136.105 31.1414 137.515 30.8332 138.46 30.7302C138.46 30.567 138.433 30.4026 138.392 30.2456C138.385 30.2362 138.378 30.2272 138.37 30.2189C138.267 30.1171 138.046 30.1356 137.918 30.1551C137.572 30.2087 137.184 30.3713 136.868 30.5179L136.713 30.5898L136.296 29.8147L136.448 29.7266C136.949 29.4362 137.501 29.2815 138.076 29.2331L138.079 29.2327H138.082C138.57 29.2099 139.021 29.3415 139.303 29.7508ZM138.451 31.7069L137.555 31.8671C137.308 31.9395 137.117 32.0733 137.009 32.3061V32.3505L137.008 32.3604C136.99 32.5211 137.169 32.6135 137.299 32.666C137.722 32.6808 138.109 32.5205 138.451 32.2832V31.7069ZM148.541 31.1957C148.857 31.3846 149.065 31.672 149.065 32.0874V32.3404C149.065 32.5359 149.023 32.7254 148.921 32.8934C148.564 33.4804 147.647 33.521 147.039 33.4973H145.598V29.3047H147.668L147.679 29.3062C148.232 29.3753 148.714 29.6214 148.845 30.2055L148.847 30.2156L148.848 30.2259C148.888 30.6102 148.807 30.9581 148.541 31.1957ZM146.611 30.235V30.8582H147.68C147.815 30.8369 147.893 30.7238 147.944 30.6059V30.4432C147.944 30.4411 147.943 30.4388 147.942 30.4366C147.905 30.3381 147.669 30.285 147.582 30.2692C147.283 30.2139 146.929 30.2181 146.611 30.235H146.611ZM146.611 31.7937V32.5562H147.837C147.981 32.5562 148.095 32.3831 148.161 32.2602V32.0874C148.161 32.0773 148.16 32.0674 148.157 32.0577C148.12 31.9448 147.842 31.8782 147.746 31.8588C147.567 31.8225 147.38 31.8068 147.198 31.7984C147.003 31.7893 146.806 31.7891 146.611 31.7937ZM155.996 30.6354L156.91 29.3047H158.19L156.931 31.0535L158.248 33.4973H157.111L156.295 31.8973L155.996 32.3253V33.4973H154.983V29.3047H155.996V30.6354ZM165.02 31.7137L166.543 29.3047H167.438V33.4973H166.462V31.1179L164.938 33.4973H164.007V29.3047H165.02V31.7137ZM187.142 32.5708C187.572 32.7179 187.967 32.6405 188.335 32.3738L188.498 32.2554L188.971 33.082L188.833 33.1766C188.296 33.5436 187.676 33.6254 187.044 33.5315L187.023 33.5287L187.006 33.5219C186.17 33.2086 185.705 32.596 185.625 31.708L185.588 31.366L185.589 31.3469C185.681 30.4277 186.074 29.6668 186.961 29.3196C187.137 29.2364 187.458 29.2324 187.647 29.2324H187.654L187.659 29.2327C188.052 29.2592 188.417 29.3782 188.753 29.5844L188.891 29.6688L188.509 30.4952L188.329 30.3505C188.121 30.1851 187.888 30.1169 187.625 30.1369L187.615 30.1376L187.605 30.1373C186.947 30.1132 186.667 30.5978 186.527 31.1775C186.475 31.7594 186.6 32.2816 187.142 32.5708ZM195.656 31.7993C195.732 32.147 195.929 32.4056 196.274 32.5713C196.694 32.7351 197.374 32.4603 197.749 32.2844L197.919 32.2049L198.272 33.0287L198.137 33.1102C197.72 33.3603 197.248 33.4993 196.769 33.5678L196.757 33.5696H196.289L196.271 33.5651C195.115 33.3052 194.672 32.4216 194.65 31.2963V31.2895V31.2826C194.701 30.3591 195.141 29.6795 195.98 29.2858L196.002 29.2757L196.444 29.1953L196.466 29.1966C197.904 29.2848 198.391 30.3036 198.369 31.6207L198.366 31.7993H195.656ZM196.473 30.1737C196.011 30.1812 195.78 30.492 195.654 30.8944H197.319V30.8644C197.295 30.4617 197 30.2897 196.633 30.2057L196.473 30.1737ZM204.939 33.2744V35.4844H203.926V29.3047H204.939V29.609C205.239 29.3789 205.591 29.2478 205.994 29.2687L206.002 29.2692L206.013 29.2709C206.412 29.3345 206.787 29.4834 207.08 29.7692C207.589 30.2676 207.683 31.0219 207.646 31.6999V31.7026V31.7051C207.574 32.5529 207.205 33.2276 206.363 33.4892L206.356 33.4912L206.349 33.4928C205.831 33.6125 205.348 33.5497 204.939 33.2744ZM205.753 30.1376C205.423 30.1467 205.131 30.451 204.939 30.7028V32.2441C205.177 32.5534 205.472 32.7173 205.875 32.6325L205.883 32.6303L205.894 32.6293C206.067 32.6121 206.235 32.5614 206.373 32.4512C206.728 32.1669 206.76 31.5759 206.742 31.1595C206.706 30.727 206.556 30.3475 206.12 30.2045L205.753 30.1376ZM216.254 31.1957C216.57 31.3844 216.777 31.672 216.777 32.0874V32.3404C216.777 32.5359 216.736 32.7254 216.633 32.8934C216.276 33.4804 215.36 33.521 214.752 33.4973H213.311V29.3047H215.38L215.392 29.3062C215.945 29.3753 216.427 29.6214 216.556 30.2055L216.56 30.2156V30.2259C216.601 30.6102 216.521 30.9581 216.254 31.1957ZM214.324 30.235V30.8582H215.392C215.527 30.8369 215.605 30.7238 215.657 30.6059V30.4432C215.656 30.4411 215.656 30.4388 215.654 30.4366C215.618 30.3381 215.382 30.285 215.296 30.2692C214.995 30.2139 214.641 30.2181 214.324 30.235ZM214.324 31.7937V32.5562H215.55C215.693 32.5562 215.809 32.3831 215.873 32.2602V32.0874C215.873 32.0773 215.872 32.0674 215.87 32.0577C215.832 31.9448 215.554 31.8782 215.459 31.8588C215.28 31.8225 215.092 31.8068 214.91 31.7984C214.714 31.7893 214.519 31.7891 214.324 31.7937ZM223.491 31.7137L225.015 29.3047H225.911V33.4973H224.934V31.1179L223.409 33.4973H222.48V29.3047H223.491V31.7137ZM231.829 31.708L231.79 31.366L231.793 31.3469C231.884 30.4277 232.276 29.6668 233.165 29.3196C233.341 29.2364 233.661 29.2324 233.851 29.2324H233.856L233.863 29.2327C234.256 29.2592 234.621 29.3782 234.956 29.5844L235.093 29.6688L234.713 30.4952L234.531 30.3505C234.324 30.1851 234.093 30.1169 233.827 30.1369L233.817 30.1376L233.807 30.1373C233.151 30.1132 232.869 30.5978 232.73 31.1775C232.679 31.7594 232.803 32.2816 233.345 32.5708C233.777 32.7179 234.169 32.6405 234.538 32.3738L234.703 32.2554L235.173 33.082L235.036 33.1765C234.5 33.5436 233.878 33.6254 233.246 33.5315L233.228 33.5287L233.209 33.5219C232.375 33.2086 231.907 32.596 231.829 31.708Z" fill="white"/>
<path fill-rule="evenodd" clip-rule="evenodd" d="M21.7969 13.3032C21.8362 12.8648 21.9565 12.4137 22.2433 12.0882C22.3272 11.9929 22.4397 11.8979 22.5629 11.8296V11.5256L22.7334 11.4402C23.4377 11.0867 24.2114 10.9628 24.9869 11.109C25.2929 11.1666 25.6848 11.2881 25.955 11.4522L26.1033 11.5425V11.83C26.4375 12.0271 26.6105 12.4634 26.7059 12.8213C26.7849 13.1175 26.8403 13.4602 26.8627 13.7771C27.9026 14.4327 28.5752 15.5442 28.6612 16.7783C28.9152 18.2817 29.1815 19.7933 29.3876 21.3037C29.5021 22.1445 29.6156 23.0597 29.5745 23.9096C29.5752 23.9317 29.5761 23.9535 29.5761 23.9756C29.5761 25.5533 28.2952 26.8305 26.7179 26.8305C25.689 26.8305 24.7446 26.28 24.2355 25.3898L22.8176 23.1968C22.2812 23.6944 21.5753 23.9754 20.8314 23.9754C19.6696 23.9754 18.6259 23.2884 18.161 22.2412H16.2179C15.7529 23.2884 14.7094 23.9754 13.5475 23.9754C12.8035 23.9754 12.0978 23.6944 11.5613 23.1968L10.1434 25.3898C9.63428 26.28 8.68988 26.8305 7.66097 26.8305C6.08384 26.8305 4.80296 25.5533 4.80296 23.9756C4.80296 23.9535 4.80377 23.9317 4.8045 23.9096C4.76341 23.0597 4.87671 22.1445 4.99135 21.3037C5.19745 19.7933 5.46362 18.2817 5.71778 16.7783C5.80374 15.5442 6.47633 14.4327 7.51612 13.7771C7.53889 13.4602 7.59398 13.1175 7.67305 12.8213C7.76863 12.4634 7.94127 12.0271 8.27555 11.83V11.5425L8.42416 11.4522C8.69417 11.2881 9.08593 11.1666 9.39193 11.109C10.1675 10.9628 10.9412 11.0867 11.6456 11.4402L11.816 11.5256V11.8296C11.9391 11.8979 12.0516 11.9929 12.1358 12.0882C12.4224 12.4137 12.5426 12.8648 12.5822 13.3032C12.9046 13.2264 13.2312 13.163 13.5581 13.1083C14.7527 12.9083 15.979 12.8225 17.1896 12.8225C18.3998 12.8225 19.6263 12.9083 20.8209 13.1083C21.1476 13.163 21.4742 13.2264 21.7969 13.3032Z" fill="white"/>
<path fill-rule="evenodd" clip-rule="evenodd" d="M28.354 16.8148C28.2745 15.6018 27.5871 14.5551 26.5927 13.9752C26.5735 13.9454 26.562 13.9277 26.562 13.9277C26.562 13.9277 26.4881 12.1588 25.7944 12.0409V11.7165C25.7944 11.7165 24.4734 10.9129 22.8721 11.7165V12.0409C22.8721 12.0409 22.0823 12.1588 22.0897 13.6994C22.0897 13.6994 20.2226 13.1317 17.1896 13.1317C14.1565 13.1317 12.2893 13.6994 12.2893 13.6994C12.2966 12.1588 11.5071 12.0409 11.5071 12.0409V11.7165C9.90566 10.9129 8.5847 11.7165 8.5847 11.7165V12.0409C7.89093 12.1588 7.81718 13.9277 7.81718 13.9277C7.81718 13.9277 7.80563 13.9454 7.78626 13.9752C6.79192 14.5551 6.10447 15.6018 6.02508 16.8148C5.36464 20.7234 5.04934 22.6244 5.11366 23.9067C5.11312 23.9298 5.11201 23.9526 5.11201 23.9758C5.11201 25.3819 6.25322 26.5217 7.66101 26.5217C8.61238 26.5217 9.44136 26.0009 9.87932 25.2295L11.5164 22.6976C11.9953 23.2885 12.7271 23.6667 13.5476 23.6667C14.6827 23.6667 15.6481 22.9436 16.0085 21.9337L16.0162 21.9324H18.363L18.3706 21.9337C18.731 22.9436 19.6965 23.6667 20.8315 23.6667C21.652 23.6667 22.3839 23.2885 22.8627 22.6976L24.4998 25.2295C24.9378 26.0009 25.7667 26.5217 26.718 26.5217C28.126 26.5217 29.2672 25.3819 29.2672 23.9758C29.2672 23.9526 29.266 23.9298 29.2653 23.9067C29.3297 22.6244 29.0143 20.7234 28.354 16.8148Z" fill="#FFA200"/>
<path fill-rule="evenodd" clip-rule="evenodd" d="M11.7248 16.252H11.1654L10.1562 17.2613L11.168 18.2729H11.7233C11.8922 17.974 11.9889 17.6288 11.9889 17.2613C11.9889 16.8944 11.8927 16.5505 11.7248 16.252Z" fill="white"/>
<path fill-rule="evenodd" clip-rule="evenodd" d="M8.92188 16.0262L9.92743 17.032L10.9363 16.0232V15.4631C10.6379 15.2952 10.294 15.1992 9.92743 15.1992C9.56216 15.1992 9.21945 15.2947 8.92188 15.4612V16.0262Z" fill="white"/>
<path fill-rule="evenodd" clip-rule="evenodd" d="M8.68717 18.2729L9.69888 17.2611L8.68968 16.252H8.13025C7.96238 16.5505 7.86621 16.8944 7.86621 17.2611C7.86621 17.6288 7.96291 17.974 8.13158 18.2729H8.68717Z" fill="white"/>
<path fill-rule="evenodd" clip-rule="evenodd" d="M10.9363 18.4989L9.92743 17.4902L8.92188 18.496V19.0609C9.21945 19.2275 9.56216 19.323 9.92743 19.323C10.294 19.323 10.6379 19.2268 10.9363 19.059V18.4989Z" fill="white"/>
<path fill-rule="evenodd" clip-rule="evenodd" d="M14.4434 17.2625H15.5932V16.5039H14.4434V17.2625Z" fill="white"/>
<path fill-rule="evenodd" clip-rule="evenodd" d="M18.8555 16.5039V17.2558L20.127 16.8687L18.8555 16.5039Z" fill="white"/>
<path fill-rule="evenodd" clip-rule="evenodd" d="M15.3913 21.1215C15.3913 22.0903 14.6059 22.8757 13.6372 22.8757C12.6682 22.8757 11.8828 22.0903 11.8828 21.1215C11.8828 20.1525 12.6682 19.3672 13.6372 19.3672C14.6059 19.3672 15.3913 20.1525 15.3913 21.1215Z" fill="white"/>
<path fill-rule="evenodd" clip-rule="evenodd" d="M22.5709 21.1215C22.5709 22.0903 21.7855 22.8757 20.8168 22.8757C19.8479 22.8757 19.0625 22.0903 19.0625 21.1215C19.0625 20.1525 19.8479 19.3672 20.8168 19.3672C21.7855 19.3672 22.5709 20.1525 22.5709 21.1215Z" fill="white"/>
<path fill-rule="evenodd" clip-rule="evenodd" d="M17.9693 18.9408C17.9693 19.3719 17.6198 19.7215 17.1888 19.7215C16.7575 19.7215 16.4082 19.3719 16.4082 18.9408C16.4082 18.5097 16.7575 18.1602 17.1888 18.1602C17.6198 18.1602 17.9693 18.5097 17.9693 18.9408Z" fill="white"/>
<path fill-rule="evenodd" clip-rule="evenodd" d="M25.5067 15.214C25.5067 15.7268 25.0911 16.1426 24.5781 16.1426C24.0652 16.1426 23.6494 15.7268 23.6494 15.214C23.6494 14.701 24.0652 14.2852 24.5781 14.2852C25.0911 14.2852 25.5067 14.701 25.5067 15.214Z" fill="white"/>
<path fill-rule="evenodd" clip-rule="evenodd" d="M25.5067 19.3115C25.5067 19.8243 25.0911 20.2402 24.5781 20.2402C24.0652 20.2402 23.6494 19.8243 23.6494 19.3115C23.6494 18.7986 24.0652 18.3828 24.5781 18.3828C25.0911 18.3828 25.5067 18.7986 25.5067 19.3115Z" fill="white"/>
<path fill-rule="evenodd" clip-rule="evenodd" d="M27.5598 17.2587C27.5598 17.7719 27.144 18.1875 26.631 18.1875C26.118 18.1875 25.7021 17.7719 25.7021 17.2587C25.7021 16.7459 26.118 16.3301 26.631 16.3301C27.144 16.3301 27.5598 16.7459 27.5598 17.2587Z" fill="white"/>
<path fill-rule="evenodd" clip-rule="evenodd" d="M23.4572 17.2587C23.4572 17.7719 23.0414 18.1875 22.5286 18.1875C22.0154 18.1875 21.5996 17.7719 21.5996 17.2587C21.5996 16.7459 22.0154 16.3301 22.5286 16.3301C23.0414 16.3301 23.4572 16.7459 23.4572 17.2587Z" fill="white"/>
<path fill-rule="evenodd" clip-rule="evenodd" d="M17.1306 1.73633C26.5913 1.73633 34.261 9.40587 34.261 18.8669C34.261 28.3277 26.5913 35.9974 17.1306 35.9974C7.66958 35.9974 0 28.3277 0 18.8669C0 9.40587 7.66958 1.73633 17.1306 1.73633ZM17.1306 3.82555C25.4375 3.82555 32.1718 10.5598 32.1718 18.8669C32.1718 27.1739 25.4375 33.9081 17.1306 33.9081C8.82354 33.9081 2.08934 27.1739 2.08934 18.8669C2.08934 10.5598 8.82354 3.82555 17.1306 3.82555Z" fill="#FFA200"/>
<path fill-rule="evenodd" clip-rule="evenodd" d="M11.3395 25.8691H23.2828C23.4986 25.8691 23.675 26.0488 23.675 26.2685V29.3588C23.675 29.5784 23.4986 29.7581 23.2828 29.7581H11.3395C11.1238 29.7581 10.9473 29.5784 10.9473 29.3588V26.2685C10.9473 26.0488 11.1238 25.8691 11.3395 25.8691Z" fill="#FFA200"/>
<path fill-rule="evenodd" clip-rule="evenodd" d="M14.2364 27.3973C14.2364 26.771 14.0481 26.5692 13.1803 26.5692H12.6793C11.808 26.5692 11.7071 26.9728 11.7071 27.4895H12.2688C12.2654 27.1568 12.3227 27.0613 12.7968 27.0613H13.1669C13.5839 27.0613 13.6747 27.1214 13.6747 27.3478C13.6747 27.5743 13.6042 27.6275 13.298 27.6522L12.5546 27.7088C12.0065 27.7512 11.6904 27.9778 11.6904 28.4732V29.0394H14.223V28.5476H12.252V28.4697C12.252 28.275 12.41 28.2183 12.7766 28.1901L13.3889 28.1442C14.038 28.0946 14.2364 27.914 14.2364 27.3973ZM17.1893 27.9884V27.6911C17.1893 26.7993 16.9776 26.5729 16.0156 26.5729H15.6826C14.7545 26.5729 14.5661 26.7887 14.5661 27.7017V27.9991C14.5661 28.873 14.7712 29.0394 15.6725 29.0394H16.0055C16.9741 29.0394 17.1893 28.8943 17.1893 27.9884ZM16.6277 27.9564C16.6277 28.4273 16.5437 28.498 15.9954 28.498H15.7129C15.205 28.498 15.1309 28.4061 15.1309 27.9673V27.7124C15.1309 27.2239 15.205 27.1285 15.7332 27.1285H15.9853C16.547 27.1285 16.6277 27.2064 16.6277 27.7017V27.9564ZM20.0852 27.9884V27.6911C20.0852 26.7993 19.8733 26.5729 18.9115 26.5729H18.5785C17.6502 26.5729 17.4617 26.7887 17.4617 27.7017V27.9991C17.4617 28.873 17.667 29.0394 18.5684 29.0394H18.9013C19.8701 29.0394 20.0852 28.8943 20.0852 27.9884ZM19.5236 27.9564C19.5236 28.4273 19.4395 28.498 18.8913 28.498H18.6089C18.101 28.498 18.0269 28.4061 18.0269 27.9673V27.7124C18.0269 27.2239 18.101 27.1285 18.6289 27.1285H18.8811C19.4429 27.1285 19.5236 27.2064 19.5236 27.7017V27.9564ZM22.9342 28.3317C22.9342 27.8928 22.6986 27.8184 22.4833 27.7795C22.7289 27.7583 22.9342 27.6804 22.9342 27.2771C22.9342 26.7816 22.7423 26.5586 22.0866 26.5586H21.2254C20.5697 26.5586 20.3812 26.7816 20.3812 27.2771C20.3812 27.6804 20.5967 27.7442 20.8352 27.7795C20.6133 27.8256 20.3812 27.914 20.3812 28.3706C20.3812 28.8767 20.6368 29.0677 21.2254 29.0677H22.0866C22.6516 29.0677 22.9342 28.905 22.9342 28.3317ZM22.3722 27.2771C22.3722 27.4717 22.285 27.5673 21.9554 27.5673H21.3566C21.0337 27.5673 20.9462 27.4681 20.9462 27.2771C20.9462 27.0895 21.0035 26.9656 21.3566 26.9656H21.9554C22.2782 26.9656 22.3722 27.0684 22.3722 27.2771ZM22.3722 28.3068C22.3722 28.5015 22.2949 28.6219 21.9554 28.6219H21.3566C21.0439 28.6219 20.9462 28.5015 20.9462 28.3068C20.9462 28.1121 21.0505 28.0061 21.3566 28.0061H21.9554C22.2917 28.0061 22.3722 28.1264 22.3722 28.3068Z" fill="white"/>
<path fill-rule="evenodd" clip-rule="evenodd" d="M244.547 0C245.792 0 246.989 0.494981 247.869 1.37621C248.751 2.25744 249.245 3.45252 249.245 4.69874C249.245 6.59935 248.102 8.3127 246.345 9.03998C244.589 9.76725 242.569 9.36522 241.225 8.02146C239.881 6.67753 239.478 4.65644 240.205 2.90061C240.933 1.14495 242.647 0 244.547 0Z" fill="white"/>
<path fill-rule="evenodd" clip-rule="evenodd" d="M244.546 0.498047C245.707 0.498047 246.757 0.968228 247.517 1.72846C248.278 2.48887 248.748 3.53918 248.748 4.69925C248.748 5.85933 248.278 6.9098 247.517 7.67005C246.757 8.43046 245.707 8.90081 244.546 8.90081C243.386 8.90081 242.336 8.43046 241.576 7.67005C240.815 6.9098 240.346 5.85933 240.346 4.69925C240.346 3.53918 240.815 2.48887 241.576 1.72846C242.336 0.968228 243.386 0.498047 244.546 0.498047ZM247.185 2.06084C246.509 1.38538 245.576 0.967711 244.546 0.967711C243.517 0.967711 242.584 1.38538 241.907 2.06084C241.233 2.73612 240.815 3.66883 240.815 4.69925C240.815 5.72967 241.233 6.66273 241.907 7.33784C242.584 8.01313 243.517 8.4308 244.546 8.4308C245.576 8.4308 246.509 8.01313 247.185 7.33784C247.86 6.66273 248.278 5.72967 248.278 4.69925C248.278 3.66883 247.86 2.73612 247.185 2.06084Z" fill="#FFA200"/>
<path fill-rule="evenodd" clip-rule="evenodd" d="M242.785 7.03386V2.30859H244.879C245.3 2.30859 245.621 2.35158 245.84 2.4362C246.058 2.521 246.233 2.67053 246.364 2.88497C246.495 3.09942 246.559 3.33714 246.559 3.59661C246.559 3.93205 246.45 4.21497 246.235 4.44488C246.017 4.67462 245.684 4.81991 245.23 4.88243C245.397 4.96162 245.521 5.04081 245.608 5.11796C245.789 5.28516 245.963 5.49519 246.124 5.74701L246.941 7.03386H246.162L245.536 6.05067C245.354 5.76571 245.203 5.54906 245.086 5.39833C244.967 5.24761 244.862 5.14328 244.768 5.08278C244.676 5.0233 244.58 4.9815 244.483 4.95738C244.413 4.94293 244.297 4.93528 244.136 4.93528H243.412V7.03386H242.785ZM243.412 4.39408H244.755C245.04 4.39408 245.263 4.36451 245.422 4.30504C245.584 4.24676 245.706 4.1521 245.788 4.02126C245.871 3.89144 245.913 3.75074 245.913 3.5978C245.913 3.37453 245.834 3.18982 245.67 3.04572C245.509 2.90163 245.254 2.82993 244.906 2.82993H243.412V4.39408Z" fill="#FFA200"/>
</svg>
