<svg width="181" height="117" viewBox="0 0 181 117" fill="none" xmlns="http://www.w3.org/2000/svg">
<path d="M168.938 49.3406C166.9 43.3718 165.45 39.17 164.587 36.7354C162.941 31.7875 161.021 27.3894 158.826 23.5411C156.631 19.6928 154.083 16.3157 151.183 13.4098C142.56 4.77072 130.488 0.451171 114.967 0.451172L66.1693 0.56898C53.1567 0.56898 42.6721 3.49449 34.7156 9.34551C26.7591 15.1965 20.7035 24.3658 16.5489 36.8532C15.6082 39.5235 14.1188 43.6859 12.0807 49.3406C10.4345 53.9743 9.18026 57.4692 8.31798 59.8253C7.4557 62.1814 6.37784 65.4604 5.08442 69.6621C3.79099 73.8639 2.90911 77.2213 2.43877 79.7345C1.96844 82.2477 1.5177 85.2518 1.08655 88.7467C0.655413 92.2416 0.63582 95.1671 1.02777 97.5232C1.41971 99.8793 2.10561 102.255 3.08548 104.65C4.06535 107.046 5.45677 109.147 7.25972 110.953L8.31798 112.013C9.96416 113.348 11.6887 114.409 13.4917 115.194C15.2946 115.979 17.0388 116.51 18.7242 116.784C20.4095 117.059 22.3693 117.02 24.6034 116.667C26.8375 116.313 28.8168 115.94 30.5414 115.548C32.2659 115.155 34.3825 114.409 36.8909 113.309C39.3994 112.21 41.4767 111.267 43.1229 110.482C44.769 109.696 46.9247 108.518 49.59 106.948C52.2552 105.377 54.2933 104.12 55.7044 103.178C57.1154 102.235 59.2319 100.9 62.0539 99.1725C66.0518 96.5808 68.7954 94.8529 70.2848 93.989C72.4013 92.6539 74.6746 91.79 77.1047 91.3973C79.5347 91.0046 83.2582 90.8083 88.2752 90.8083H92.7433C95.2518 90.8083 97.3291 90.8475 98.9753 90.9261C100.621 91.0046 102.17 91.1421 103.62 91.3384C105.07 91.5347 106.324 91.8489 107.383 92.2808C108.441 92.7128 109.558 93.2822 110.734 93.989C112.537 95.01 115.28 96.7378 118.965 99.1725C122.571 101.372 125.295 103.04 127.137 104.179C128.979 105.318 131.624 106.869 135.074 108.833C138.523 110.796 141.306 112.21 143.422 113.074C145.539 113.937 148.106 114.821 151.124 115.724C154.142 116.627 156.768 117.02 159.002 116.902C161.236 116.784 163.549 116.353 165.939 115.606C168.33 114.86 170.545 113.623 172.583 111.896C174.621 110.168 176.228 108.086 177.404 105.652C178.58 103.217 179.403 100.822 179.873 98.4656C180.343 96.1095 180.402 93.184 180.05 89.6891C179.697 86.1942 179.285 83.1509 178.815 80.5592C178.345 77.9674 177.443 74.5118 176.11 70.1922C174.778 65.8727 173.68 62.4956 172.818 60.0609C171.956 57.6263 170.662 54.0528 168.938 49.3406ZM165.528 103.413C163.96 104.827 161.922 105.573 159.414 105.652C156.905 105.73 154.397 105.377 151.888 104.592C149.38 103.806 146.342 102.491 142.775 100.645C139.209 98.7994 136.191 97.1109 133.721 95.5794C131.252 94.0479 128.117 92.0845 124.315 89.6891C120.513 87.2937 117.75 85.5463 116.025 84.4467C114.614 83.6614 113.203 82.9938 111.792 82.444C110.381 81.8943 109.029 81.4427 107.735 81.0893C106.442 80.7359 104.933 80.4806 103.208 80.3235C101.484 80.1665 99.8572 80.0683 98.3286 80.029C96.8 79.9898 94.9382 79.9701 92.7433 79.9701L91.2148 79.9701L90.5093 79.8523C90.3525 79.8523 90.0193 79.872 89.5098 79.9112C89.0002 79.9505 88.6279 79.9309 88.3927 79.8523C84.5517 79.9309 81.4945 80.0487 79.2212 80.2057C76.9479 80.3628 74.557 80.7948 72.0485 81.5016C69.5401 82.2084 67.2276 83.2294 65.1111 84.5646C63.3081 85.5855 60.8977 87.0581 57.8797 88.9823C54.8617 90.9064 52.2552 92.5754 50.0603 93.989C47.8654 95.4027 45.2786 96.9734 42.2998 98.7013C39.321 100.429 36.6361 101.784 34.2453 102.766C31.8544 103.747 29.4635 104.572 27.0726 105.239C24.6818 105.907 22.5065 106.084 20.5467 105.77C18.587 105.455 16.9016 104.749 15.4906 103.649L14.9027 103.06C13.3349 101.489 12.355 99.251 11.9631 96.3451C11.5711 93.4393 11.5515 90.4352 11.9043 87.333C12.2571 84.2308 13.0801 80.4217 14.3736 75.9058C15.667 71.3899 16.9016 67.4434 18.0775 64.0663C19.2533 60.6892 20.7427 56.4875 22.5457 51.4611C24.3486 46.4347 25.7204 42.5864 26.6611 39.9161C29.0912 32.6122 32.2463 26.7808 36.1266 22.422C40.0069 18.0631 44.3183 15.0395 49.0609 13.3509C53.8034 11.6624 59.5454 10.8181 66.2869 10.8181C67.306 10.8966 71.931 10.8966 80.1618 10.8181C87.4521 10.8966 94.3503 10.8966 100.857 10.8181C102.111 10.8181 104.404 10.8377 107.735 10.877C111.067 10.9163 113.438 10.9359 114.849 10.9359C127.47 10.8574 137.033 14.0774 143.54 20.596C148.086 25.1511 151.731 31.5519 154.475 39.7983C155.337 42.5471 156.827 46.7881 158.943 52.5214C165.371 70.2708 168.82 82.6011 169.291 89.5124C169.839 96.1881 168.585 100.822 165.528 103.413ZM105.56 50.6365L113.085 58.176L120.611 50.6365L113.085 43.0969L105.56 50.6365ZM116.848 39.3271L124.373 46.8667L131.899 39.3271L124.373 31.7875L116.848 39.3271ZM128.136 50.6365L135.662 58.176L143.187 50.6365L135.662 43.0969L128.136 50.6365ZM116.848 61.9458L124.373 69.4854L131.899 61.9458L124.373 54.4063L116.848 61.9458ZM65.4638 55.7021L71.1079 55.7021C72.5189 55.7021 73.7143 55.2113 74.6942 54.2295C75.6741 53.2478 76.164 52.0501 76.164 50.6365C76.164 49.2228 75.6741 48.0251 74.6942 47.0434C73.7143 46.0617 72.5189 45.5708 71.1079 45.5708L65.3463 45.453L65.3463 39.7983C65.3463 38.3847 64.8563 37.187 63.8765 36.2052C62.8966 35.2235 61.7012 34.7327 60.2901 34.7327C59.7414 34.6541 59.2123 34.713 58.7028 34.9094C58.1932 35.1057 57.7229 35.3413 57.2917 35.6162C56.8606 35.8911 56.4883 36.2642 56.1747 36.7354C55.8611 37.2066 55.6064 37.6975 55.4104 38.208C55.2144 38.7184 55.1556 39.2486 55.234 39.7983L55.234 45.453L49.4724 45.5708C48.0614 45.5708 46.866 46.0617 45.8861 47.0434C44.9062 48.0251 44.4163 49.2228 44.4163 50.6365C44.4163 52.0501 44.9062 53.2478 45.8861 54.2295C46.866 55.2113 48.0614 55.7021 49.4724 55.7021L55.1164 55.7021V61.5924C55.1164 63.0061 55.626 64.2234 56.645 65.2444C57.6641 66.2654 58.8791 66.7759 60.2901 66.7759C60.6037 66.7759 60.9369 66.7562 61.2896 66.717C61.6424 66.6777 61.9755 66.5795 62.2891 66.4225C62.6026 66.2654 62.8966 66.0887 63.1709 65.8923C63.4453 65.696 63.7001 65.48 63.9352 65.2444C64.1704 65.0088 64.386 64.7535 64.582 64.4787C64.7779 64.2038 64.9347 63.9289 65.0523 63.654C65.1699 63.3791 65.2483 63.065 65.2875 62.7116C65.3267 62.3582 65.3854 61.9851 65.4638 61.5924V55.7021Z" fill="#FFE9C3"/>
</svg>
