<svg width="8" height="16" viewBox="0 0 8 16" fill="none" xmlns="http://www.w3.org/2000/svg">
<path fill-rule="evenodd" clip-rule="evenodd" d="M0.293656 15.6696C0.386506 15.7743 0.496808 15.8574 0.618244 15.9141C0.73968 15.9708 0.869864 16 1.00134 16C1.13282 16 1.263 15.9708 1.38443 15.9141C1.50587 15.8574 1.61617 15.7743 1.70902 15.6696L7.70634 8.9209C7.79943 8.81642 7.87328 8.6923 7.92367 8.55565C7.97406 8.419 8 8.2725 8 8.12456C8 7.97661 7.97406 7.83012 7.92367 7.69347C7.87328 7.55682 7.79943 7.4327 7.70634 7.32821L1.70903 0.579554C1.52134 0.368351 1.26677 0.249699 1.00134 0.249699C0.735909 0.249699 0.481348 0.368351 0.293658 0.579554C0.105969 0.790756 0.000526901 1.07721 0.000526843 1.3759C0.000526786 1.67458 0.105969 1.96103 0.293658 2.17224L5.58529 8.12456L0.293656 14.0769C0.200571 14.1814 0.126719 14.3055 0.0763287 14.4421C0.0259384 14.5788 2.22882e-07 14.7253 1.97014e-07 14.8732C1.71146e-07 15.0212 0.0259383 15.1677 0.0763286 15.3043C0.126719 15.441 0.200571 15.5651 0.293656 15.6696Z" fill="#828282"/>
</svg>
