<svg width="16" height="10" viewBox="0 0 16 10" fill="none" xmlns="http://www.w3.org/2000/svg">
<path fill-rule="evenodd" clip-rule="evenodd" d="M10.6826 0.80764C10.7407 0.749436 10.8097 0.703258 10.8856 0.671749C10.9615 0.640241 11.0429 0.624023 11.1251 0.624023C11.2073 0.624023 11.2888 0.640241 11.3647 0.671749C11.4406 0.703258 11.5096 0.749436 11.5676 0.80764L15.3176 4.55764C15.3758 4.6157 15.422 4.68467 15.4535 4.7606C15.485 4.83653 15.5013 4.91793 15.5013 5.00014C15.5013 5.08235 15.485 5.16375 15.4535 5.23968C15.422 5.31561 15.3758 5.38458 15.3176 5.44264L11.5676 9.19264C11.4503 9.31 11.2911 9.37593 11.1251 9.37593C10.9592 9.37593 10.8 9.31 10.6826 9.19264C10.5653 9.07528 10.4994 8.91611 10.4994 8.75014C10.4994 8.58417 10.5653 8.425 10.6826 8.30764L13.9914 5.00014L10.6826 1.69264C10.6244 1.63458 10.5783 1.56561 10.5468 1.48968C10.5152 1.41375 10.499 1.33235 10.499 1.25014C10.499 1.16793 10.5152 1.08653 10.5468 1.0106C10.5783 0.934667 10.6244 0.865697 10.6826 0.80764V0.80764Z" fill="#17212C"/>
<path fill-rule="evenodd" clip-rule="evenodd" d="M0.5 5C0.5 4.83424 0.565848 4.67527 0.683058 4.55806C0.800269 4.44085 0.95924 4.375 1.125 4.375H14.25C14.4158 4.375 14.5747 4.44085 14.6919 4.55806C14.8092 4.67527 14.875 4.83424 14.875 5C14.875 5.16576 14.8092 5.32473 14.6919 5.44194C14.5747 5.55915 14.4158 5.625 14.25 5.625H1.125C0.95924 5.625 0.800269 5.55915 0.683058 5.44194C0.565848 5.32473 0.5 5.16576 0.5 5Z" fill="#17212C"/>
</svg>
