<svg width="24" height="24" viewBox="0 0 24 24" fill="none" xmlns="http://www.w3.org/2000/svg">
<path fill-rule="evenodd" clip-rule="evenodd" d="M5.25 12C5.25 11.8011 5.32902 11.6103 5.46967 11.4697C5.61032 11.329 5.80109 11.25 6 11.25L19.5 11.25C19.6989 11.25 19.8897 11.329 20.0303 11.4697C20.171 11.6103 20.25 11.8011 20.25 12C20.25 12.1989 20.171 12.3897 20.0303 12.5303C19.8897 12.671 19.6989 12.75 19.5 12.75L6 12.75C5.80109 12.75 5.61032 12.671 5.46967 12.5303C5.32902 12.3897 5.25 12.1989 5.25 12Z" fill="#A8A8A8"/>
<path fill-rule="evenodd" clip-rule="evenodd" d="M3.969 12.5301C3.89915 12.4604 3.84374 12.3776 3.80593 12.2865C3.76812 12.1954 3.74866 12.0977 3.74866 11.9991C3.74866 11.9004 3.76812 11.8027 3.80593 11.7116C3.84374 11.6205 3.89915 11.5377 3.969 11.4681L8.469 6.96805C8.60983 6.82722 8.80083 6.74811 9 6.74811C9.19916 6.74811 9.39017 6.82722 9.531 6.96805C9.67183 7.10888 9.75095 7.29989 9.75095 7.49905C9.75095 7.69822 9.67183 7.88922 9.531 8.03005L5.5605 11.9991L9.531 15.9681C9.67183 16.1089 9.75095 16.2999 9.75095 16.4991C9.75095 16.6982 9.67183 16.8892 9.531 17.0301C9.39017 17.1709 9.19916 17.25 9 17.25C8.80083 17.25 8.60983 17.1709 8.469 17.0301L3.969 12.5301Z" fill="#A8A8A8"/>
</svg>
