<svg width="16" height="10" viewBox="0 0 16 10" fill="none" xmlns="http://www.w3.org/2000/svg">
<g clip-path="url(#clip0)">
<path fill-rule="evenodd" clip-rule="evenodd" d="M5.31738 9.19236C5.25928 9.25056 5.19028 9.29674 5.11438 9.32825C5.03848 9.35976 4.95708 9.37598 4.87488 9.37598C4.79268 9.37598 4.71118 9.35976 4.63528 9.32825C4.55938 9.29674 4.49038 9.25056 4.43238 9.19236L0.682376 5.44236C0.624176 5.3843 0.577977 5.31533 0.546477 5.2394C0.514977 5.16347 0.498677 5.08207 0.498677 4.99986C0.498677 4.91765 0.514977 4.83625 0.546477 4.76032C0.577977 4.68439 0.624176 4.61542 0.682376 4.55736L4.43238 0.80736C4.54968 0.69 4.70888 0.62407 4.87488 0.62407C5.04078 0.62407 5.19998 0.69 5.31738 0.80736C5.43468 0.92472 5.50058 1.08389 5.50058 1.24986C5.50058 1.41583 5.43468 1.575 5.31738 1.69236L2.00858 4.99986L5.31738 8.30736C5.37558 8.36542 5.42168 8.43439 5.45318 8.51032C5.48478 8.58625 5.50098 8.66765 5.50098 8.74986C5.50098 8.83207 5.48478 8.91347 5.45318 8.9894C5.42168 9.06533 5.37558 9.1343 5.31738 9.19236Z" fill="#17212C"/>
<path fill-rule="evenodd" clip-rule="evenodd" d="M15.5 5C15.5 5.16576 15.4342 5.32473 15.3169 5.44194C15.1997 5.55915 15.0408 5.625 14.875 5.625L1.75 5.625C1.5842 5.625 1.4253 5.55915 1.3081 5.44194C1.1908 5.32473 1.125 5.16576 1.125 5C1.125 4.83424 1.1908 4.67527 1.3081 4.55806C1.4253 4.44085 1.5842 4.375 1.75 4.375L14.875 4.375C15.0408 4.375 15.1997 4.44085 15.3169 4.55806C15.4342 4.67527 15.5 4.83424 15.5 5Z" fill="#17212C"/>
</g>
<defs>
<clipPath id="clip0">
<rect width="16" height="10" fill="white" transform="translate(16 10) rotate(-180)"/>
</clipPath>
</defs>
</svg>
