<svg width="14" height="8" viewBox="0 0 14 8" fill="none" xmlns="http://www.w3.org/2000/svg">
<path fill-rule="evenodd" clip-rule="evenodd" d="M8.82709 0.167842C8.8774 0.114638 8.93717 0.0724268 9.00298 0.0436257C9.06878 0.0148246 9.13932 0 9.21056 0C9.28181 0 9.35235 0.0148246 9.41815 0.0436257C9.48395 0.0724268 9.54372 0.114638 9.59403 0.167842L12.8438 3.59567C12.8942 3.64874 12.9342 3.71178 12.9616 3.78119C12.9889 3.8506 13.0029 3.925 13.0029 4.00015C13.0029 4.0753 12.9889 4.1497 12.9616 4.21911C12.9342 4.28852 12.8942 4.35156 12.8438 4.40463L9.59403 7.83246C9.49233 7.93973 9.35439 8 9.21056 8C9.06673 8 8.92879 7.93973 8.82709 7.83246C8.72539 7.72518 8.66825 7.57969 8.66825 7.42797C8.66825 7.27626 8.72539 7.13077 8.82709 7.02349L11.6945 4.00015L8.82709 0.976809C8.77665 0.923739 8.73663 0.860695 8.70933 0.791287C8.68202 0.72188 8.66797 0.647471 8.66797 0.572325C8.66797 0.497179 8.68202 0.422771 8.70933 0.353363C8.73663 0.283955 8.77665 0.220911 8.82709 0.167842Z" fill="#17212C"/>
<path fill-rule="evenodd" clip-rule="evenodd" d="M0 3.99928C0 3.84776 0.0570642 3.70245 0.158639 3.59531C0.260213 3.48817 0.397978 3.42798 0.541626 3.42798H11.9158C12.0594 3.42798 12.1972 3.48817 12.2988 3.59531C12.4003 3.70245 12.4574 3.84776 12.4574 3.99928C12.4574 4.1508 12.4003 4.29612 12.2988 4.40326C12.1972 4.5104 12.0594 4.57059 11.9158 4.57059H0.541626C0.397978 4.57059 0.260213 4.5104 0.158639 4.40326C0.0570642 4.29612 0 4.1508 0 3.99928Z" fill="#17212C"/>
</svg>
