<svg width="24" height="24" viewBox="0 0 24 24" fill="none" xmlns="http://www.w3.org/2000/svg">
<g clip-path="url(#clip0)">
<path fill-rule="evenodd" clip-rule="evenodd" d="M12.186 5.1134C12.0666 5.06555 11.9334 5.06555 11.814 5.1134L5.846 7.5004L8.25 8.4614L14.404 6.0004L12.186 5.1134ZM15.75 6.5394L9.596 9.0004L12 9.9614L18.154 7.5004L15.75 6.5394ZM19 8.2394L12.5 10.8394V18.7614L19 16.1614V8.2404V8.2394ZM11.5 18.7624V10.8384L5 8.2394V16.1624L11.5 18.7624ZM11.443 4.1844C11.8006 4.0414 12.1994 4.0414 12.557 4.1844L19.686 7.0364C19.7787 7.07354 19.8581 7.13759 19.9141 7.22029C19.9701 7.30299 20 7.40055 20 7.5004V16.1624C19.9999 16.3622 19.9399 16.5574 19.8278 16.7228C19.7157 16.8882 19.5566 17.0163 19.371 17.0904L12.186 19.9644C12.0666 20.0122 11.9334 20.0122 11.814 19.9644L4.63 17.0904C4.44425 17.0164 4.28494 16.8885 4.17264 16.723C4.06034 16.5576 4.00021 16.3623 4 16.1624V7.5004C4.00002 7.40055 4.02994 7.30299 4.08591 7.22029C4.14187 7.13759 4.22131 7.07354 4.314 7.0364L11.443 4.1844Z" fill="#FFA200"/>
</g>
<defs>
<clipPath id="clip0">
<rect width="16" height="16" fill="white" transform="translate(4 4)"/>
</clipPath>
</defs>
</svg>
