<svg width="34" height="34" viewBox="0 0 34 34" fill="none" xmlns="http://www.w3.org/2000/svg">
<g clip-path="url(#clip0)">
<path d="M16.5015 0.133477L2.6416 8.13543C2.33341 8.31333 2.14355 8.64218 2.14355 8.99805V25.002C2.14355 25.3578 2.33341 25.6867 2.6416 25.8646L16.5015 33.8665C16.8097 34.0444 17.1894 34.0444 17.4976 33.8665L31.3575 25.8646C31.6657 25.6866 31.8556 25.3578 31.8556 25.002V8.99805C31.8556 8.64218 31.6657 8.31333 31.3575 8.13543L17.4976 0.133477C17.1894 -0.0444922 16.8097 -0.0444922 16.5015 0.133477Z" fill="#FCC354"/>
<path d="M16.9999 17L31.7225 8.49995C31.6365 8.351 31.512 8.2243 31.3579 8.13538L17.4979 0.133427C17.1897 -0.0444756 16.81 -0.0444756 16.5018 0.133427L2.64191 8.13538C2.48779 8.22436 2.36327 8.35107 2.27734 8.49995L16.9999 17Z" fill="#FFDC5D"/>
<path d="M17 34C17.172 34 17.3439 33.9555 17.498 33.8665L31.358 25.8646C31.6662 25.6866 31.856 25.3578 31.856 25.002V8.99805C31.856 8.82014 31.8085 8.64895 31.7225 8.5L17 17V34Z" fill="#EF9645"/>
<path d="M22.0724 20.9392L27.7904 17.6382C28.2668 17.3632 28.4301 16.754 28.155 16.2776C27.8799 15.8012 27.2708 15.6377 26.7943 15.913L21.0764 19.214C20.6 19.489 20.4367 20.0982 20.7117 20.5746C20.9588 21.0024 21.5518 21.2398 22.0724 20.9392Z" fill="#FFDC5D"/>
<path d="M28.154 21.9963C27.879 21.5199 27.2698 21.3565 26.7934 21.6318L21.0754 24.9328C20.5989 25.2079 20.4357 25.817 20.7108 26.2935C20.9557 26.7179 21.5467 26.9611 22.0714 26.6581L27.7894 23.357C28.2658 23.082 28.429 22.4728 28.154 21.9963Z" fill="#FFDC5D"/>
<path d="M21.9568 2.70898L7.1008 11.286L7.09668 16.4164C7.09641 16.7726 7.28627 17.1017 7.59473 17.2798L10.5584 18.9911C11.2225 19.3746 12.0526 18.8953 12.0526 18.1285V14.1451L26.9086 5.56804L21.9568 2.70898Z" fill="#FFF7F4"/>
<path d="M12.0526 18.1276V14.1441L7.1008 11.2852L7.09668 16.4156C7.09641 16.7717 7.28627 17.1009 7.59466 17.279L10.5584 18.9903C11.2224 19.3737 12.0526 18.8945 12.0526 18.1276Z" fill="#F0E6E6"/>
</g>
<defs>
<clipPath id="clip0">
<rect width="34" height="34" fill="white"/>
</clipPath>
</defs>
</svg>
