<svg width="51" height="35" viewBox="0 0 51 35" fill="none" xmlns="http://www.w3.org/2000/svg">
<path d="M49.2877 28.955H33.1947C32.377 28.955 31.7139 28.2919 31.7139 27.4741V6.44865C31.7139 5.63087 32.377 4.96777 33.1947 4.96777H33.6144C37.6787 4.96777 41.2028 6.97018 43.2832 10.4612L46.187 15.3347C48.7187 15.3659 50.7686 17.4355 50.7686 19.9744V27.4741C50.7686 28.2919 50.1055 28.955 49.2877 28.955Z" fill="#FCC354"/>
<path d="M32.4462 0.21875H1.66697C0.867761 0.21875 0.219727 0.851142 0.219727 1.63106V27.5429C0.219727 28.3229 0.867761 28.9552 1.66697 28.9552H32.4462C33.2457 28.9552 33.8938 28.3229 33.8938 27.5429V1.63106C33.8938 0.851142 33.2457 0.21875 32.4462 0.21875Z" fill="#FFDC5D"/>
<path d="M32.4462 7.72267H1.66697C0.867762 7.72267 0.219727 7.72267 0.219727 7.72267L0.219727 11.3764C0.219727 11.3764 0.867762 11.3764 1.66697 11.3764H32.4462C33.2457 11.3764 33.8938 11.3764 33.8938 11.3764V7.72266C33.8938 7.72266 33.2457 7.72267 32.4462 7.72267Z" fill="#EF9645"/>
<path d="M40.6303 15.3267L46.1869 15.3336L43.3434 10.544C41.9012 8.12676 39.6944 6.28778 37.1523 5.50098L37.3403 12.4178C37.3403 14.0243 39.0223 15.3267 40.6303 15.3267Z" fill="#FFF7F4"/>
<path fill-rule="evenodd" clip-rule="evenodd" d="M10.6356 33.3001C12.9466 33.3001 14.8317 31.415 14.8317 29.104C14.8317 26.793 12.9466 24.9082 10.6356 24.9082C8.32459 24.9082 6.43945 26.793 6.43945 29.104C6.43945 31.415 8.32459 33.3001 10.6356 33.3001Z" fill="#FFF7F4"/>
<path d="M10.636 34.7808C7.50568 34.7808 4.95898 32.2341 4.95898 29.1038C4.95898 25.9735 7.50568 23.4268 10.636 23.4268C13.7663 23.4268 16.313 25.9738 16.313 29.1038C16.313 32.2341 13.7663 34.7808 10.636 34.7808ZM10.636 26.3889C9.13892 26.3889 7.92112 27.6067 7.92112 29.1038C7.92112 30.6009 9.13892 31.819 10.636 31.819C12.1331 31.819 13.3509 30.6009 13.3509 29.1038C13.3509 27.6067 12.1331 26.3889 10.636 26.3889Z" fill="#EF9645"/>
<path fill-rule="evenodd" clip-rule="evenodd" d="M41.3403 33.3001C43.6517 33.3001 45.5364 31.415 45.5364 29.104C45.5364 26.793 43.6517 24.9082 41.3403 24.9082C39.0293 24.9082 37.1445 26.793 37.1445 29.104C37.1445 31.415 39.0293 33.3001 41.3403 33.3001Z" fill="#FFF7F4"/>
<path d="M41.3397 34.7808C38.2098 34.7808 35.6631 32.2341 35.6631 29.1038C35.6631 25.9735 38.2098 23.4268 41.3397 23.4268C44.47 23.4268 47.0167 25.9738 47.0167 29.1038C47.0167 32.2341 44.47 34.7808 41.3397 34.7808ZM41.3397 26.3889C39.8426 26.3889 38.6248 27.6067 38.6248 29.1038C38.6248 30.6009 39.8426 31.819 41.3397 31.819C42.8372 31.819 44.055 30.6009 44.055 29.1038C44.055 27.6067 42.8368 26.3889 41.3397 26.3889Z" fill="#EF9645"/>
</svg>
