<svg width="52" height="52" viewBox="0 0 52 52" fill="none" xmlns="http://www.w3.org/2000/svg">
<path d="M51.9926 7.24502V32.0092C51.9926 33.8129 50.5464 35.2591 48.7427 35.2591H9.28896C7.48527 35.2591 6.03906 33.8129 6.03906 32.0092V7.24502C6.03906 5.45757 7.48527 3.99512 9.28896 3.99512H48.7427C50.5464 3.99512 51.9926 5.45757 51.9926 7.24502Z" fill="#FCC354"/>
<path d="M51.9991 9.90625H6.0293V15.1841H51.9991V9.90625Z" fill="#EF9645"/>
<g opacity="0.07">
<path opacity="0.07" d="M51.9909 25.7202V32.0088C51.9909 33.8125 50.5447 35.2587 48.741 35.2587H44.8086L45.9298 19.6592L51.9909 25.7202Z" fill="#010101"/>
</g>
<path d="M42.7167 48.0052H3.2499C1.45433 48.0052 0 46.5509 0 44.7553V19.9862C0 18.1923 1.45433 16.7363 3.2499 16.7363H42.7167C44.5122 16.7363 45.9666 18.1923 45.9666 19.9862V44.7537C45.9666 46.5493 44.5122 48.0052 42.7167 48.0052Z" fill="#FFDC5D"/>
<path d="M31.4506 29.5281C33.6367 29.5281 35.4089 27.7559 35.4089 25.5697C35.4089 23.3836 33.6367 21.6113 31.4506 21.6113C29.2644 21.6113 27.4922 23.3836 27.4922 25.5697C27.4922 27.7559 29.2644 29.5281 31.4506 29.5281Z" fill="#FCC354"/>
<path d="M37.1361 29.5281C39.3223 29.5281 41.0945 27.7559 41.0945 25.5697C41.0945 23.3836 39.3223 21.6113 37.1361 21.6113C34.95 21.6113 33.1777 23.3836 33.1777 25.5697C33.1777 27.7559 34.95 29.5281 37.1361 29.5281Z" fill="#EF9645"/>
<path d="M13.5997 35.5341H5.91206C5.01509 35.5341 4.28711 34.8077 4.28711 33.9091C4.28711 33.0105 5.01509 32.2842 5.91206 32.2842H13.5997C14.4967 32.2842 15.2246 33.0105 15.2246 33.9091C15.2246 34.8061 14.4967 35.5341 13.5997 35.5341Z" fill="white"/>
<path d="M20.4667 27.1952H5.91206C5.01509 27.1952 4.28711 26.4689 4.28711 25.5703C4.28711 24.6717 5.01509 23.9453 5.91206 23.9453H20.4667C21.3637 23.9453 22.0917 24.6717 22.0917 25.5703C22.0917 26.4689 21.3637 27.1952 20.4667 27.1952Z" fill="white"/>
<path d="M39.2602 43.8729H5.91206C5.01509 43.8729 4.28711 43.1466 4.28711 42.248C4.28711 41.3494 5.01509 40.623 5.91206 40.623H39.2602C40.1571 40.623 40.8851 41.3494 40.8851 42.248C40.8851 43.145 40.1588 43.8729 39.2602 43.8729Z" fill="#FCC354"/>
</svg>
