<svg width="26" height="26" viewBox="0 0 26 26" fill="none" xmlns="http://www.w3.org/2000/svg">
<g clip-path="url(#clip0)">
<path d="M9.88142 19.4336C8.07128 19.4336 6.59863 20.9062 6.59863 22.7164C6.59863 24.5265 8.07128 25.9992 9.88142 25.9992C11.6916 25.9992 13.1642 24.5265 13.1642 22.7164C13.1642 20.9062 11.6915 19.4336 9.88142 19.4336ZM9.88142 24.0295C9.15724 24.0295 8.56833 23.4406 8.56833 22.7164C8.56833 21.9922 9.15724 21.4033 9.88142 21.4033C10.6053 21.4033 11.1945 21.9922 11.1945 22.7164C11.1945 23.4405 10.6056 24.0295 9.88142 24.0295Z" fill="#585858"/>
<path d="M20.898 19.4336C19.0879 19.4336 17.6152 20.9062 17.6152 22.7164C17.6152 24.5265 19.0879 25.9992 20.898 25.9992C22.7082 25.9992 24.1808 24.5265 24.1808 22.7164C24.1808 20.9062 22.7082 19.4336 20.898 19.4336ZM20.898 24.0295C20.1738 24.0295 19.5849 23.4406 19.5849 22.7164C19.5849 21.9922 20.1738 21.4033 20.898 21.4033C21.6222 21.4033 22.2111 21.9922 22.2111 22.7164C22.2111 23.4405 21.6222 24.0295 20.898 24.0295Z" fill="#585858"/>
<path d="M25.2931 6.41234C25.106 6.17727 24.8224 6.04041 24.5223 6.04041H7.27795L6.38273 1.51608C6.30427 1.11983 5.99176 0.811593 5.5942 0.738722L1.65486 0.0165138C1.11881 -0.0823061 0.606687 0.272603 0.508527 0.807682C0.410368 1.34276 0.764566 1.85585 1.2997 1.95401L4.58051 2.55541L7.47066 17.1634C7.56191 17.6247 7.96669 17.9572 8.43677 17.9572H22.2244C22.683 17.9572 23.0806 17.6411 23.184 17.1936L25.4819 7.24682C25.5495 6.95432 25.48 6.64705 25.2931 6.41234ZM21.4411 15.9876H9.24561L7.66759 8.01042H23.2837L21.4411 15.9876Z" fill="#585858"/>
</g>
<defs>
<clipPath id="clip0">
<rect width="26" height="26" fill="white"/>
</clipPath>
</defs>
</svg>
