<svg width="18" height="18" viewBox="0 0 18 18" fill="none" xmlns="http://www.w3.org/2000/svg">
<g clip-path="url(#clip0)">
<path d="M6.84094 13.4546C5.58776 13.4546 4.56824 14.4741 4.56824 15.7273C4.56824 16.9805 5.58776 18 6.84094 18C8.09411 18 9.11364 16.9805 9.11364 15.7273C9.11364 14.4741 8.09408 13.4546 6.84094 13.4546ZM6.84094 16.6364C6.33958 16.6364 5.93187 16.2287 5.93187 15.7273C5.93187 15.2259 6.33958 14.8182 6.84094 14.8182C7.34205 14.8182 7.75001 15.2259 7.75001 15.7273C7.75001 16.2286 7.3423 16.6364 6.84094 16.6364Z" fill="#727272"/>
<path d="M14.4684 13.4546C13.2152 13.4546 12.1957 14.4741 12.1957 15.7273C12.1957 16.9805 13.2152 18 14.4684 18C15.7216 18 16.7411 16.9805 16.7411 15.7273C16.7411 14.4741 15.7216 13.4546 14.4684 13.4546ZM14.4684 16.6364C13.967 16.6364 13.5593 16.2287 13.5593 15.7273C13.5593 15.2259 13.967 14.8182 14.4684 14.8182C14.9697 14.8182 15.3774 15.2259 15.3774 15.7273C15.3774 16.2286 14.9697 16.6364 14.4684 16.6364Z" fill="#727272"/>
<path d="M17.5108 4.43931C17.3813 4.27657 17.1849 4.18183 16.9772 4.18183H5.03877L4.41901 1.04959C4.36469 0.775269 4.14834 0.561872 3.8731 0.511423L1.14587 0.0114326C0.774761 -0.0569812 0.420211 0.188725 0.352255 0.559165C0.284298 0.929605 0.529512 1.28482 0.899987 1.35278L3.17132 1.76913L5.17219 11.8824C5.23537 12.2017 5.5156 12.4319 5.84104 12.4319H15.3863C15.7038 12.4319 15.9791 12.2131 16.0507 11.9033L17.6415 5.01703C17.6883 4.81453 17.6402 4.6018 17.5108 4.43931ZM14.8441 11.0683H6.401L5.30853 5.54567H16.1197L14.8441 11.0683Z" fill="#727272"/>
</g>
<defs>
<clipPath id="clip0">
<rect width="18" height="18" fill="white"/>
</clipPath>
</defs>
</svg>
