<svg width="15" height="15" viewBox="0 0 15 15" fill="none" xmlns="http://www.w3.org/2000/svg">
<g clip-path="url(#clip0)">
<path d="M4.83333 9.69738H4.83401C4.83459 9.69738 4.83516 9.69727 4.83573 9.69727H12.8032C12.9994 9.69727 13.1718 9.56715 13.2257 9.37855L14.9836 3.2262C15.0214 3.09357 14.9949 2.95097 14.9119 2.84088C14.8288 2.73079 14.6989 2.66602 14.561 2.66602H3.81984L3.5057 1.25233C3.46095 1.05125 3.28265 0.908203 3.07666 0.908203H0.439941C0.197212 0.908203 0.000488281 1.10493 0.000488281 1.34766C0.000488281 1.59039 0.197212 1.78711 0.439941 1.78711H2.72418C2.7798 2.03762 4.22748 8.55228 4.31079 8.92708C3.84376 9.1301 3.51611 9.59576 3.51611 10.1367C3.51611 10.8636 4.10754 11.4551 4.83447 11.4551H12.8032C13.046 11.4551 13.2427 11.2584 13.2427 11.0156C13.2427 10.7729 13.046 10.5762 12.8032 10.5762H4.83447C4.5922 10.5762 4.39502 10.379 4.39502 10.1367C4.39502 9.89479 4.59151 9.69795 4.83333 9.69738ZM13.9784 3.54492L12.4717 8.81836H5.18695L4.01508 3.54492H13.9784Z" fill="white"/>
<path d="M4.39502 12.7734C4.39502 13.5004 4.98645 14.0918 5.71338 14.0918C6.44031 14.0918 7.03174 13.5004 7.03174 12.7734C7.03174 12.0465 6.44031 11.4551 5.71338 11.4551C4.98645 11.4551 4.39502 12.0465 4.39502 12.7734ZM5.71338 12.334C5.95565 12.334 6.15283 12.5312 6.15283 12.7734C6.15283 13.0157 5.95565 13.2129 5.71338 13.2129C5.47111 13.2129 5.27393 13.0157 5.27393 12.7734C5.27393 12.5312 5.47111 12.334 5.71338 12.334Z" fill="white"/>
<path d="M10.606 12.7734C10.606 13.5004 11.1974 14.0918 11.9243 14.0918C12.6512 14.0918 13.2427 13.5004 13.2427 12.7734C13.2427 12.0465 12.6512 11.4551 11.9243 11.4551C11.1974 11.4551 10.606 12.0465 10.606 12.7734ZM11.9243 12.334C12.1666 12.334 12.3638 12.5312 12.3638 12.7734C12.3638 13.0157 12.1666 13.2129 11.9243 13.2129C11.682 13.2129 11.4849 13.0157 11.4849 12.7734C11.4849 12.5312 11.682 12.334 11.9243 12.334Z" fill="white"/>
</g>
<defs>
<clipPath id="clip0">
<rect width="15" height="15" fill="white" transform="translate(0.000488281)"/>
</clipPath>
</defs>
</svg>
