<svg width="20" height="20" viewBox="0 0 20 20" fill="none" xmlns="http://www.w3.org/2000/svg">
<g clip-path="url(#clip0)">
<path d="M7.6014 14.9495C6.20898 14.9495 5.07617 16.0823 5.07617 17.4747C5.07617 18.8671 6.20898 19.9999 7.6014 19.9999C8.99381 19.9999 10.1266 18.8671 10.1266 17.4747C10.1266 16.0823 8.99377 14.9495 7.6014 14.9495ZM7.6014 18.4848C7.04433 18.4848 6.59132 18.0318 6.59132 17.4747C6.59132 16.9176 7.04433 16.4646 7.6014 16.4646C8.15819 16.4646 8.61147 16.9176 8.61147 17.4747C8.61147 18.0317 8.15846 18.4848 7.6014 18.4848Z" fill="#A8A8A8"/>
<path d="M16.076 14.9495C14.6836 14.9495 13.5508 16.0823 13.5508 17.4747C13.5508 18.8671 14.6836 19.9999 16.076 19.9999C17.4684 19.9999 18.6012 18.8671 18.6012 17.4747C18.6012 16.0823 17.4684 14.9495 16.076 14.9495ZM16.076 18.4848C15.5189 18.4848 15.0659 18.0318 15.0659 17.4747C15.0659 16.9176 15.5189 16.4646 16.076 16.4646C16.6331 16.4646 17.0861 16.9176 17.0861 17.4747C17.0861 18.0317 16.6331 18.4848 16.076 18.4848Z" fill="#A8A8A8"/>
<path d="M19.4566 4.93257C19.3126 4.75175 19.0944 4.64647 18.8636 4.64647H5.59872L4.91009 1.16621C4.84974 0.86141 4.60935 0.624302 4.30353 0.568248L1.27327 0.0127029C0.860927 -0.0633124 0.466983 0.209694 0.391475 0.621294C0.315968 1.03289 0.588428 1.42758 1.00007 1.50309L3.52377 1.9657L5.74696 13.2027C5.81716 13.5575 6.12852 13.8132 6.49012 13.8132H17.096C17.4488 13.8132 17.7546 13.5701 17.8341 13.2259L19.6018 5.57448C19.6538 5.34948 19.6003 5.11311 19.4566 4.93257ZM16.4935 12.2981H7.11231L5.89845 6.16186H17.9109L16.4935 12.2981Z" fill="#A8A8A8"/>
</g>
<defs>
<clipPath id="clip0">
<rect width="20" height="20" fill="white"/>
</clipPath>
</defs>
</svg>
