<svg width="14" height="14" viewBox="0 0 14 14" fill="none" xmlns="http://www.w3.org/2000/svg">
<path d="M7.70499 6.99867L11.35 3.35367C11.4319 3.25802 11.4747 3.13498 11.4698 3.00914C11.465 2.8833 11.4128 2.76393 11.3238 2.67488C11.2347 2.58584 11.1154 2.53367 10.9895 2.52881C10.8637 2.52395 10.7406 2.56675 10.645 2.64867L6.99999 6.29367L3.35499 2.64367C3.25934 2.56175 3.1363 2.51895 3.01046 2.52381C2.88462 2.52867 2.76525 2.58084 2.67621 2.66988C2.58716 2.75893 2.53499 2.8783 2.53013 3.00414C2.52527 3.12998 2.56807 3.25301 2.64999 3.34867L6.29499 6.99867L2.64499 10.6437C2.59265 10.6885 2.55014 10.7436 2.52012 10.8057C2.49011 10.8677 2.47325 10.9353 2.47059 11.0041C2.46793 11.073 2.47953 11.1417 2.50467 11.2058C2.52981 11.27 2.56793 11.3283 2.61666 11.377C2.66539 11.4257 2.72366 11.4638 2.78783 11.489C2.85199 11.5141 2.92065 11.5257 2.98951 11.5231C3.05837 11.5204 3.12594 11.5035 3.18797 11.4735C3.25 11.4435 3.30516 11.401 3.34999 11.3487L6.99999 7.70367L10.645 11.3487C10.7406 11.4306 10.8637 11.4734 10.9895 11.4685C11.1154 11.4637 11.2347 11.4115 11.3238 11.3224C11.4128 11.2334 11.465 11.114 11.4698 10.9882C11.4747 10.8624 11.4319 10.7393 11.35 10.6437L7.70499 6.99867Z" fill="#EB5757"/>
</svg>
