<svg width="20" height="20" viewBox="0 0 20 20" fill="none" xmlns="http://www.w3.org/2000/svg">
<path d="M11.1749 9.9995L14.7583 6.4245C14.9152 6.26758 15.0034 6.05476 15.0034 5.83284C15.0034 5.61092 14.9152 5.39809 14.7583 5.24117C14.6014 5.08425 14.3885 4.99609 14.1666 4.99609C13.9447 4.99609 13.7319 5.08425 13.575 5.24117L9.99995 8.8245L6.42495 5.24117C6.26803 5.08425 6.0552 4.99609 5.83328 4.99609C5.61136 4.99609 5.39854 5.08425 5.24162 5.24117C5.0847 5.39809 4.99654 5.61092 4.99654 5.83284C4.99654 6.05476 5.0847 6.26758 5.24162 6.4245L8.82495 9.9995L5.24162 13.5745C5.16351 13.652 5.10151 13.7441 5.05921 13.8457C5.0169 13.9472 4.99512 14.0562 4.99512 14.1662C4.99512 14.2762 5.0169 14.3851 5.05921 14.4867C5.10151 14.5882 5.16351 14.6804 5.24162 14.7578C5.31908 14.8359 5.41125 14.8979 5.5128 14.9402C5.61435 14.9826 5.72327 15.0043 5.83328 15.0043C5.94329 15.0043 6.05221 14.9826 6.15376 14.9402C6.25531 14.8979 6.34748 14.8359 6.42495 14.7578L9.99995 11.1745L13.575 14.7578C13.6524 14.8359 13.7446 14.8979 13.8461 14.9402C13.9477 14.9826 14.0566 15.0043 14.1666 15.0043C14.2766 15.0043 14.3855 14.9826 14.4871 14.9402C14.5886 14.8979 14.6808 14.8359 14.7583 14.7578C14.8364 14.6804 14.8984 14.5882 14.9407 14.4867C14.983 14.3851 15.0048 14.2762 15.0048 14.1662C15.0048 14.0562 14.983 13.9472 14.9407 13.8457C14.8984 13.7441 14.8364 13.652 14.7583 13.5745L11.1749 9.9995Z" fill="#727272"/>
</svg>
