<svg width="56" height="56" viewBox="0 0 56 56" fill="none" xmlns="http://www.w3.org/2000/svg">
<path d="M39.4844 13.125H29.6406L26.3594 16.4062V29.5312H32.9219L36.2031 26.25H42.7656V16.4062L39.4844 13.125Z" fill="#EF9645"/>
<path d="M26.3594 9.84375H42.7656V16.4062H26.3594V9.84375Z" fill="#EF9645"/>
<path d="M30.1875 12.7969H38.9375V14.5469H30.1875V12.7969Z" fill="#FFDC5D"/>
<path d="M30.1875 16.2969H38.9375V18.0469H30.1875V16.2969Z" fill="#FFDC5D"/>
<path d="M18.1562 27.8906H13.2344V56H18.1562H23.0781V27.8906H18.1562Z" fill="#EF9645"/>
<path d="M23.0781 26.25V21.3281C23.0781 18.6141 20.8703 16.4062 18.1562 16.4062C15.4422 16.4062 13.2344 18.6141 13.2344 21.3281V27.8906C13.2344 30.6089 15.438 32.8125 18.1562 32.8125H31.2812C33.9995 32.8125 36.2031 30.6089 36.2031 27.8906V26.25H23.0781Z" fill="#FFDC5D"/>
<path d="M19.7969 8.20312H18.1562H16.5156L13.2344 9.84375V11.4844C13.2344 14.1984 15.4422 16.4062 18.1562 16.4062C20.8703 16.4062 23.0781 14.1984 23.0781 11.4844V9.84375L19.7969 8.20312Z" fill="#FFE1BA"/>
<path d="M18.1562 0C15.4422 0 13.2344 2.20784 13.2344 4.92188V6.5625L16.5156 8.20312H18.1562H19.7969L23.0781 6.5625V4.92188C23.0781 2.20784 20.8703 0 18.1562 0Z" fill="#FFDC5D"/>
<path d="M18.1562 6.5625H13.2344V9.84375H18.1562H26.3594V6.5625H18.1562Z" fill="#EF9645"/>
</svg>
