<svg width="32" height="32" viewBox="0 0 32 32" fill="none" xmlns="http://www.w3.org/2000/svg">
<g clip-path="url(#clip0)">
<path d="M30.9038 8.65981L22.7513 0.188625C22.6353 0.068125 22.4751 0 22.3079 0H10.1573C8.79744 0 7.69113 1.10588 7.69113 2.46513V11.0769H2.76694C1.74956 11.0769 0.921875 11.9044 0.921875 12.9215V22.1555C0.921875 23.1726 1.74956 24 2.76694 24H7.69113V29.5392C7.69113 30.8961 8.79744 32 10.1573 32H28.6096C29.9694 32 31.0758 30.8967 31.0758 29.5406V9.08656C31.0758 8.92744 31.0141 8.7745 30.9038 8.65981ZM22.4604 1.66131L29.1528 8.61537H22.4604V1.66131ZM2.76694 22.7693C2.42819 22.7693 2.15269 22.4939 2.15269 22.1555V12.9215C2.15269 12.5831 2.42825 12.3077 2.76694 12.3077H19.3845C19.7232 12.3077 19.9988 12.5831 19.9988 12.9215V22.1555C19.9988 22.4939 19.7232 22.7693 19.3845 22.7693H2.76694ZM29.8449 29.5406C29.8449 30.2181 29.2908 30.7693 28.6096 30.7693H10.1573C9.47606 30.7693 8.92188 30.2175 8.92188 29.5392V24H19.3844C20.4019 24 21.2296 23.1726 21.2296 22.1555V12.9215C21.2296 11.9044 20.4019 11.0769 19.3844 11.0769H8.92188V2.46513C8.92188 1.78444 9.47606 1.23075 10.1573 1.23075H21.2296V9.23075C21.2296 9.57063 21.5051 9.84612 21.8449 9.84612H29.8449V29.5406Z" fill="#17212C" stroke="#17212C" stroke-width="0.4"/>
<path d="M8.17622 16.4655C8.06084 16.1278 7.89272 15.8424 7.67147 15.6092C7.45041 15.376 7.18472 15.2138 6.87459 15.1224C6.64384 15.055 6.30859 15.0215 5.86859 15.0215H3.91797V20.3075H5.92628C6.32059 20.3075 6.63553 20.2703 6.87103 20.1956C7.18597 20.0947 7.43597 19.9541 7.62103 19.7738C7.86628 19.5358 8.05491 19.2246 8.18722 18.8399C8.29534 18.525 8.34934 18.1501 8.34934 17.7149C8.34928 17.2198 8.29159 16.8033 8.17622 16.4655ZM7.13772 18.6362C7.06572 18.8731 6.97247 19.043 6.85834 19.1464C6.74416 19.2497 6.60047 19.3232 6.42741 19.3664C6.29528 19.4001 6.08003 19.4168 5.78203 19.4168H4.98516V15.9155H5.46466C5.89991 15.9155 6.19191 15.9324 6.34097 15.9661C6.54053 16.0094 6.70516 16.0924 6.83497 16.2148C6.96466 16.3374 7.06572 16.5082 7.13772 16.727C7.20984 16.9456 7.24603 17.2593 7.24603 17.6681C7.24609 18.0767 7.20991 18.3995 7.13772 18.6362Z" fill="#17212C" stroke="#17212C" stroke-width="0.4"/>
<path d="M18.3823 18.3643C18.2932 18.7513 18.1466 19.0351 17.9423 19.2152C17.738 19.3955 17.494 19.4857 17.2103 19.4857C16.8256 19.4857 16.5132 19.3438 16.2729 19.0603C16.0324 18.7766 15.9123 18.3006 15.9123 17.6323C15.9123 17.0026 16.0343 16.5471 16.2783 16.2659C16.5223 15.9845 16.8401 15.8438 17.2319 15.8438C17.5156 15.8438 17.7566 15.9232 17.9549 16.0818C18.1532 16.2406 18.2837 16.4569 18.3461 16.7309L19.4026 16.4784C19.2825 16.0553 19.1022 15.7309 18.8619 15.5049C18.458 15.1228 17.9328 14.9316 17.2862 14.9316C16.5457 14.9316 15.9483 15.175 15.4941 15.6618C15.0398 16.1486 14.8125 16.8318 14.8125 17.7116C14.8125 18.5433 15.0385 19.199 15.4905 19.6786C15.9423 20.1581 16.5193 20.3979 17.2213 20.3979C17.7885 20.3979 18.2566 20.2579 18.6257 19.9778C18.9946 19.6978 19.2585 19.2694 19.4171 18.6924L18.3823 18.3643Z" fill="#17212C" stroke="#17212C" stroke-width="0.4"/>
<path d="M13.4671 15.6565C12.9995 15.1732 12.3764 14.9316 11.5975 14.9316C11.1671 14.9316 10.7875 15.0013 10.4581 15.1407C10.2105 15.2441 9.9827 15.4027 9.77483 15.6167C9.56683 15.8305 9.40283 16.0722 9.28252 16.3414C9.12145 16.7068 9.04102 17.1587 9.04102 17.6971C9.04102 18.5385 9.27302 19.199 9.73683 19.6785C10.2008 20.1581 10.826 20.3979 11.612 20.3979C12.3884 20.3979 13.0086 20.157 13.4726 19.6749C13.9364 19.1929 14.1684 18.5253 14.1684 17.6719C14.1684 16.8113 13.9346 16.1395 13.4671 15.6565ZM12.6558 19.026C12.383 19.3324 12.0338 19.4857 11.6082 19.4857C11.1828 19.4857 10.8319 19.3313 10.5555 19.0224C10.279 18.7135 10.1407 18.2598 10.1407 17.6613C10.1407 17.0531 10.2753 16.5981 10.5445 16.2964C10.8138 15.9948 11.1684 15.8438 11.6082 15.8438C12.0482 15.8438 12.401 15.9929 12.6665 16.2911C12.9322 16.5891 13.065 17.0411 13.065 17.6468C13.065 18.2598 12.9286 18.7195 12.6558 19.026Z" fill="#17212C" stroke="#17212C" stroke-width="0.4"/>
</g>
<defs>
<clipPath id="clip0">
<rect width="32" height="32" fill="white"/>
</clipPath>
</defs>
</svg>
