<svg width="15" height="15" viewBox="0 0 15 15" fill="none" xmlns="http://www.w3.org/2000/svg">
<g clip-path="url(#clip0)">
<path d="M14.817 7.05783L12.207 4.44783C9.60724 1.84812 5.39277 1.84812 2.79308 4.44783L0.183054 7.05783C-0.0610181 7.30191 -0.0610181 7.69765 0.183054 7.94172L2.79305 10.5517C5.39277 13.1514 9.60724 13.1514 12.2069 10.5517L14.8169 7.94172C15.061 7.69765 15.061 7.30191 14.817 7.05783ZM11.3231 9.66783C9.21153 11.7794 5.78851 11.7794 3.67697 9.66783L1.50888 7.49978L3.67694 5.33172C5.78848 3.22018 9.2115 3.22018 11.323 5.33172L13.4911 7.49978L11.3231 9.66783Z" fill="#A3A3A3"/>
<path d="M7.50001 4.375C5.77422 4.375 4.375 5.77419 4.375 7.50001C4.375 9.22583 5.77422 10.625 7.50001 10.625C9.2258 10.625 10.625 9.2258 10.625 7.50001C10.625 5.77422 9.2258 4.375 7.50001 4.375ZM7.50001 9.37501C6.46457 9.37501 5.62501 8.53545 5.62501 7.50001C5.62501 6.46457 6.46457 5.62501 7.50001 5.62501C8.53545 5.62501 9.37501 6.46457 9.37501 7.50001C9.37501 8.53545 8.53545 9.37501 7.50001 9.37501Z" fill="#A3A3A3"/>
</g>
<defs>
<clipPath id="clip0">
<rect width="15" height="15" fill="white"/>
</clipPath>
</defs>
</svg>
