<svg width="52" height="52" viewBox="0 0 52 52" fill="none" xmlns="http://www.w3.org/2000/svg">
<path d="M35.7543 35.4006L33.8546 34.4014C31.3323 36.5634 28.5562 37.8573 26.337 37.8573C24.1178 37.8573 21.3416 36.5634 18.8194 34.4014L16.9197 35.4006C8.77747 41.222 3 39.4951 3 46.8652V51.7774H49.674C49.674 51.7774 49.674 50.1408 49.674 46.8652C49.674 39.4951 43.8965 41.222 35.7543 35.4006Z" fill="#EF9645"/>
<path d="M26.3387 36.2659L17.7402 31.3525V33.81L19.6787 40.7895L26.3379 37.9045L33.0406 40.7079L34.9363 33.81V31.3525L26.3387 36.2659Z" fill="#F5F7FA"/>
<path d="M26.3364 37.8271L32.9479 40.6693L29.4932 51.7768H23.1803L19.75 40.7581L26.3364 37.8271Z" fill="#F0E6E6"/>
<path d="M27.5651 41.9216H25.11L22.9512 39.3714L26.3375 37.8271L29.7243 39.3198L27.5651 41.9216Z" fill="#FCC354"/>
<path d="M29.203 51.777H23.4707V46.0164L25.1093 41.9219H27.5644L29.203 46.0164V51.777Z" fill="#FCC354"/>
<path d="M31.2507 51.7769H29.4941L34.9365 33.8096L39.4521 37.6741L34.9349 43.5596L36.5735 45.1966L31.2507 51.7769Z" fill="#FCC354"/>
<path d="M21.424 51.7769H23.1814L17.7382 33.8096L13.2227 37.6741L17.7398 43.5596L16.1012 45.1966L21.424 51.7769Z" fill="#FCC354"/>
<path d="M40.5852 18.1738V19.8116C40.5852 29.1877 31.7085 37.0084 26.2545 37.0084C25.9107 37.0084 25.5584 36.9756 25.1973 36.9185C19.7269 36.0256 11.9238 28.5991 11.9238 19.8116V18.1738L15.347 12.2939C15.347 12.2939 20.9817 14.6451 26.1398 14.6451C31.2915 14.6451 36.9902 12.2939 36.9902 12.2939L40.5852 18.1738Z" fill="#FFF2C1"/>
<path d="M33.8141 6.40673C33.8141 6.40673 42.6092 5.18679 40.5864 18.1736L36.9905 12.2938C36.9905 12.2938 31.2918 14.6449 26.1401 14.6449C20.982 14.6449 15.3473 12.2938 15.3473 12.2938L11.9242 18.1736C9.87693 -3.66635 36.1716 0.526905 36.1716 0.526905C32.3238 2.10752 33.8141 6.40673 33.8141 6.40673Z" fill="#FCC354"/>
</svg>
