<svg width="25" height="27" viewBox="0 0 25 27" fill="none" xmlns="http://www.w3.org/2000/svg">
<path d="M21.3904 9.71813C21.2471 9.4976 20.9815 9.38884 20.7243 9.44604L13.2966 11.0984L15.7279 1.81521C15.8043 1.5232 15.6635 1.21818 15.3911 1.08769C15.2594 1.02402 15.115 1.01031 14.9809 1.04014C14.8376 1.07203 14.7055 1.15435 14.6125 1.27898L10.9614 6.18736L3.67962 15.977C3.5226 16.1882 3.51282 16.475 3.65613 16.6956C3.79945 16.9161 4.06461 17.0256 4.32173 16.9684L11.7494 15.316L9.31817 24.5992C9.24175 24.8913 9.38256 25.1963 9.65497 25.3268C9.78663 25.3904 9.93106 25.4041 10.0652 25.3743C10.2085 25.3424 10.3406 25.2601 10.4336 25.1355L14.0847 20.2271L21.3664 10.4375C21.5241 10.2262 21.5332 9.93942 21.3904 9.71813Z" fill="#17212C"/>
</svg>
