<svg width="24" height="24" viewBox="0 0 24 24" fill="none" xmlns="http://www.w3.org/2000/svg">
<path d="M19.6206 8.7591C19.4978 8.57007 19.2701 8.47685 19.0497 8.52588L12.6831 9.9422L14.767 1.98517C14.8325 1.73487 14.7119 1.47342 14.4784 1.36157C14.3655 1.307 14.2417 1.29525 14.1268 1.32082C14.0039 1.34815 13.8907 1.41871 13.811 1.52553L10.6815 5.73272L4.43995 14.1238C4.30536 14.3048 4.29698 14.5507 4.41982 14.7398C4.54266 14.9288 4.76994 15.0227 4.99034 14.9736L11.3569 13.5573L9.273 21.5143C9.2075 21.7646 9.32819 22.0261 9.56168 22.1379C9.67453 22.1925 9.79833 22.2043 9.91327 22.1787C10.0361 22.1514 10.1494 22.0808 10.2291 21.974L13.3586 17.7668L19.6001 9.37567C19.7352 9.19455 19.7431 8.94877 19.6206 8.7591Z" fill="#FFA200"/>
</svg>
