<svg width="20" height="20" viewBox="0 0 20 20" fill="none" xmlns="http://www.w3.org/2000/svg">
<path d="M10.0469 1.1409C9.93271 1.04959 9.79206 1 9.64726 1C9.50247 1 9.36182 1.04959 9.24763 1.1409L0.383579 8.23001C0.170637 8.40031 0.133404 8.70982 0.299882 8.92576L0.489148 9.17127C0.659877 9.39273 0.979041 9.43112 1.19742 9.25647L1.93061 8.67011V16.8409C1.93129 17.1908 2.06711 17.5261 2.30834 17.7736C2.54956 18.021 2.87654 18.1603 3.21768 18.161H16.0884C16.4296 18.1603 16.7565 18.021 16.9978 17.7736C17.239 17.5261 17.3748 17.1908 17.3755 16.8409V8.67605L18.1087 9.26241C18.3271 9.43706 18.6462 9.39867 18.817 9.17721L19.0062 8.93179C19.1727 8.71581 19.1354 8.40625 18.9224 8.23596L10.0469 1.1409ZM10.9401 16.8409H8.36598V11.5605H10.9401V16.8409ZM12.2272 16.8409V11.5605C12.2269 11.2105 12.0912 10.8749 11.8499 10.6274C11.6086 10.3799 11.2814 10.2407 10.9401 10.2404H8.36598C8.02473 10.2407 7.69756 10.3799 7.45626 10.6274C7.21496 10.8749 7.07925 11.2105 7.07891 11.5605V16.8409H3.21768V7.64109L9.65305 2.49929L16.0884 7.64769V16.8409H12.2272Z" fill="#A8A8A8" stroke="#A8A8A8" stroke-width="0.3"/>
</svg>
