<svg width="64" height="64" viewBox="0 0 64 64" fill="none" xmlns="http://www.w3.org/2000/svg">
<path d="M49.0793 18.7571C51.2 18.7571 52.9193 17.0379 52.9193 14.9171C52.9193 12.7964 51.2 11.0771 49.0793 11.0771C46.9585 11.0771 45.2393 12.7964 45.2393 14.9171C45.2393 17.0379 46.9585 18.7571 49.0793 18.7571Z" fill="white"/>
<path d="M31.9974 15.5654C28.7475 15.5654 25.5705 16.5291 22.8683 18.3347C20.1661 20.1403 18.0599 22.7066 16.8162 25.7092C15.5726 28.7117 15.2471 32.0157 15.8812 35.2032C16.5152 38.3906 18.0802 41.3186 20.3783 43.6166C22.6763 45.9147 25.6042 47.4797 28.7917 48.1137C31.9792 48.7477 35.2831 48.4223 38.2857 47.1786C41.2882 45.9349 43.8546 43.8288 45.6601 41.1266C47.4657 38.4243 48.4294 35.2474 48.4294 31.9974C48.4294 27.6394 46.6982 23.4598 43.6166 20.3783C40.535 17.2967 36.3555 15.5654 31.9974 15.5654ZM31.9974 42.6641C29.8878 42.6641 27.8255 42.0385 26.0714 40.8664C24.3172 39.6944 22.9501 38.0285 22.1427 36.0794C21.3354 34.1303 21.1242 31.9856 21.5357 29.9165C21.9473 27.8473 22.9632 25.9467 24.455 24.455C25.9467 22.9632 27.8473 21.9473 29.9165 21.5357C31.9856 21.1241 34.1303 21.3354 36.0794 22.1427C38.0285 22.95 39.6944 24.3172 40.8664 26.0713C42.0385 27.8255 42.6641 29.8878 42.6641 31.9974C42.6641 34.8264 41.5403 37.5395 39.5399 39.5399C37.5395 41.5403 34.8264 42.6641 31.9974 42.6641Z" fill="white"/>
<path d="M32 5.76533C40.544 5.76533 41.5573 5.79733 44.9307 5.952C46.9596 5.97609 48.9693 6.34862 50.872 7.05333C52.2524 7.58585 53.5061 8.40145 54.5523 9.44768C55.5985 10.4939 56.4142 11.7476 56.9467 13.128C57.6514 15.0307 58.0239 17.0404 58.048 19.0693C58.2027 22.4427 58.2347 23.456 58.2347 32.0027C58.2347 40.5493 58.2027 41.5573 58.048 44.9307C58.0239 46.9596 57.6514 48.9693 56.9467 50.872C56.4142 52.2524 55.5985 53.5061 54.5523 54.5523C53.5061 55.5985 52.2524 56.4142 50.872 56.9467C48.9693 57.6514 46.9596 58.0239 44.9307 58.048C41.5573 58.2027 40.544 58.2347 32 58.2347C23.456 58.2347 22.4427 58.2027 19.0693 58.048C17.0404 58.0239 15.0307 57.6514 13.128 56.9467C11.7476 56.4142 10.4939 55.5985 9.44768 54.5523C8.40145 53.5061 7.58585 52.2524 7.05333 50.872C6.34862 48.9693 5.97609 46.9596 5.952 44.9307C5.79733 41.5573 5.76533 40.544 5.76533 32C5.76533 23.456 5.79733 22.4427 5.952 19.0693C5.97609 17.0404 6.34862 15.0307 7.05333 13.128C7.58585 11.7476 8.40145 10.4939 9.44768 9.44768C10.4939 8.40145 11.7476 7.58585 13.128 7.05333C15.0307 6.34862 17.0404 5.97609 19.0693 5.952C22.4427 5.79733 23.456 5.76533 32 5.76533ZM32 0C23.3093 0 22.2187 0.0373334 18.8053 0.192C16.1514 0.24559 13.5258 0.748718 11.04 1.68C8.91393 2.50213 6.98309 3.75941 5.37125 5.37125C3.75941 6.98309 2.50213 8.91393 1.68 11.04C0.748423 13.5266 0.245289 16.1532 0.192 18.808C0.0373334 22.2213 0 23.3067 0 32C0 40.6933 0.0373334 41.7813 0.192 45.1947C0.24559 47.8486 0.748718 50.4743 1.68 52.96C2.50213 55.0861 3.75941 57.0169 5.37125 58.6288C6.98309 60.2406 8.91393 61.4979 11.04 62.32C13.5266 63.2516 16.1532 63.7547 18.808 63.808C22.2213 63.9627 23.3093 64 32 64C40.6907 64 41.7813 63.9627 45.1947 63.808C47.8495 63.7547 50.4761 63.2516 52.9627 62.32C55.0887 61.4979 57.0196 60.2406 58.6314 58.6288C60.2433 57.0169 61.5005 55.0861 62.3227 52.96C63.2533 50.4733 63.7556 47.8467 63.808 45.192C63.9627 41.7787 64 40.6933 64 32C64 23.3067 63.9627 22.2187 63.808 18.8053C63.7544 16.1514 63.2513 13.5258 62.32 11.04C61.4979 8.91393 60.2406 6.98309 58.6288 5.37125C57.0169 3.75941 55.0861 2.50213 52.96 1.68C50.4733 0.749333 47.8467 0.247102 45.192 0.194667C41.7787 0.0346665 40.6933 0 32 0Z" fill="white"/>
</svg>
