<svg width="18" height="18" viewBox="0 0 18 18" fill="none" xmlns="http://www.w3.org/2000/svg">
<path d="M16.821 3.12968L11.5875 1.66577L6.33867 3.1443L1.45754 1.75964C1.35295 1.72996 1.2429 1.72495 1.13604 1.74498C1.02918 1.76502 0.928421 1.80957 0.841684 1.87512C0.754946 1.94067 0.684592 2.02545 0.63615 2.12278C0.587708 2.22012 0.562498 2.32736 0.5625 2.43608V14.4103C0.563032 14.5938 0.623133 14.7721 0.733763 14.9185C0.844392 15.0649 0.999567 15.1714 1.17594 15.222L6.33748 16.6863L11.5886 15.2071L16.545 16.5935C16.6495 16.6228 16.7594 16.6274 16.866 16.6071C16.9726 16.5868 17.073 16.5421 17.1594 16.4765C17.2459 16.4109 17.316 16.3262 17.3642 16.229C17.4124 16.1318 17.4375 16.0247 17.4375 15.9162V3.94224C17.437 3.7582 17.3766 3.57932 17.2654 3.4327C17.1541 3.28608 16.9981 3.1797 16.821 3.12968ZM5.73047 15.3445L1.6875 14.1976V2.99426L5.73047 4.14119V15.3445ZM11.0255 14.1968L6.85547 15.3714V4.16749L11.0255 2.99285V14.1968ZM16.3125 15.3601L12.1505 14.1961V2.99141L16.3125 4.15547V15.3601Z" fill="black"/>
</svg>
