<svg width="52" height="52" viewBox="0 0 52 52" fill="none" xmlns="http://www.w3.org/2000/svg">
<path d="M44.6252 20.5781V32.2656L52 29.4627L41.7808 3.79688L0 20.5781" fill="#EF9645"/>
<path d="M0 20.5781H44.6252V48.2032H0V20.5781Z" fill="#FCC354"/>
<path d="M4.16016 29.7368C6.56434 29.0175 8.44523 27.1366 9.16455 24.7324H35.2809C36.0001 27.1367 37.881 29.0176 40.2853 29.7368V38.8531C37.881 39.5723 36.0001 41.4532 35.2809 43.8575H9.47268H9.16349C8.44444 41.4536 6.56394 39.5727 4.16016 38.8531V29.7368Z" fill="white"/>
<path d="M22.3125 39.7032C25.2465 39.7032 27.625 37.3247 27.625 34.3906C27.625 31.4566 25.2465 29.0781 22.3125 29.0781C19.3785 29.0781 17 31.4566 17 34.3906C17 37.3247 19.3785 39.7032 22.3125 39.7032Z" fill="#FCC354"/>
<path d="M43.799 20.4825L41.2798 14.0012L41.165 13.7154C38.6659 13.937 36.2228 12.8865 34.6646 10.9199L34.3799 11.0347L11.5977 20.4825H43.799Z" fill="white"/>
<path d="M10.625 35.4531C11.2118 35.4531 11.6875 34.9774 11.6875 34.3906C11.6875 33.8038 11.2118 33.3281 10.625 33.3281C10.0382 33.3281 9.5625 33.8038 9.5625 34.3906C9.5625 34.9774 10.0382 35.4531 10.625 35.4531Z" fill="#FCC354"/>
<path d="M34 35.4531C34.5868 35.4531 35.0625 34.9774 35.0625 34.3906C35.0625 33.8038 34.5868 33.3281 34 33.3281C33.4132 33.3281 32.9375 33.8038 32.9375 34.3906C32.9375 34.9774 33.4132 35.4531 34 35.4531Z" fill="#FCC354"/>
</svg>
