<svg width="18" height="18" viewBox="0 0 18 18" fill="none" xmlns="http://www.w3.org/2000/svg">
<path d="M15.8751 17.9375H15.7582C2.24883 17.1606 0.330704 5.76188 0.0625786 2.28313C0.0409741 2.01265 0.072952 1.74057 0.15668 1.48247C0.240408 1.22437 0.374241 0.985334 0.550509 0.779048C0.726778 0.572763 0.942019 0.403285 1.1839 0.280327C1.42578 0.157369 1.68954 0.0833462 1.96008 0.0625006H5.7482C6.02359 0.0622341 6.29271 0.144664 6.5207 0.299112C6.7487 0.45356 6.92506 0.672911 7.02695 0.928751L8.07195 3.5C8.17257 3.74994 8.19754 4.02393 8.14376 4.28794C8.08998 4.55195 7.95982 4.79434 7.76945 4.985L6.30508 6.46313C6.53382 7.76302 7.15633 8.96127 8.08838 9.89578C9.02044 10.8303 10.217 11.456 11.5163 11.6881L13.0082 10.21C13.2017 10.0217 13.4464 9.89461 13.7117 9.84448C13.977 9.79436 14.2512 9.82345 14.5001 9.92813L17.092 10.9663C17.3439 11.0714 17.5589 11.2491 17.7095 11.4768C17.8601 11.7046 17.9395 11.972 17.9376 12.245V15.875C17.9376 16.422 17.7203 16.9466 17.3335 17.3334C16.9467 17.7202 16.4221 17.9375 15.8751 17.9375ZM2.12508 1.4375C1.94274 1.4375 1.76787 1.50993 1.63894 1.63886C1.51001 1.7678 1.43758 1.94266 1.43758 2.125V2.18C1.75383 6.25 3.78195 15.875 15.8338 16.5625C15.9241 16.5681 16.0147 16.5558 16.1002 16.5263C16.1858 16.4968 16.2647 16.4507 16.3324 16.3907C16.4001 16.3306 16.4553 16.2578 16.4948 16.1764C16.5343 16.095 16.5573 16.0066 16.5626 15.9162V12.245L13.9707 11.2069L11.9976 13.1662L11.6676 13.125C5.68633 12.3756 4.87508 6.39438 4.87508 6.3325L4.83383 6.0025L6.78633 4.02938L5.75508 1.4375H2.12508Z" fill="#727272"/>
</svg>
