<svg width="26" height="26" viewBox="0 0 26 26" fill="none" xmlns="http://www.w3.org/2000/svg">
<path d="M12.9999 16.4665C14.9145 16.4665 16.4665 14.9145 16.4665 12.9999C16.4665 11.0853 14.9145 9.5332 12.9999 9.5332C11.0853 9.5332 9.5332 11.0853 9.5332 12.9999C9.5332 14.9145 11.0853 16.4665 12.9999 16.4665Z" fill="white"/>
<path d="M9.75032 2.16699L7.76782 4.33366H4.33366C3.14199 4.33366 2.16699 5.30866 2.16699 6.50033V19.5003C2.16699 20.692 3.14199 21.667 4.33366 21.667H21.667C22.8587 21.667 23.8337 20.692 23.8337 19.5003V6.50033C23.8337 5.30866 22.8587 4.33366 21.667 4.33366H18.2328L16.2503 2.16699H9.75032ZM13.0003 18.417C10.0103 18.417 7.58366 15.9903 7.58366 13.0003C7.58366 10.0103 10.0103 7.58366 13.0003 7.58366C15.9903 7.58366 18.417 10.0103 18.417 13.0003C18.417 15.9903 15.9903 18.417 13.0003 18.417Z" fill="white"/>
</svg>
