<svg width="20" height="20" viewBox="0 0 20 20" fill="none" xmlns="http://www.w3.org/2000/svg">
<path d="M8.2341 0.290527C3.85386 0.290527 0.290039 3.85435 0.290039 8.23459C0.290039 12.6151 3.85386 16.1786 8.2341 16.1786C12.6146 16.1786 16.1782 12.6151 16.1782 8.23459C16.1782 3.85435 12.6146 0.290527 8.2341 0.290527ZM8.2341 14.7121C4.66245 14.7121 1.75664 11.8063 1.75664 8.23462C1.75664 4.66298 4.66245 1.75712 8.2341 1.75712C11.8057 1.75712 14.7116 4.66294 14.7116 8.23459C14.7116 11.8062 11.8057 14.7121 8.2341 14.7121Z" fill="#A8A8A8" stroke="#A8A8A8" stroke-width="0.3"/>
<path d="M19.4751 18.3473L14.0093 12.8815C13.6976 12.5698 13.1929 12.5698 12.8812 12.8815C12.5695 13.1928 12.5695 13.6981 12.8812 14.0095L18.3471 19.4754C18.5029 19.6312 18.7069 19.7091 18.9111 19.7091C19.115 19.7091 19.3193 19.6312 19.4751 19.4754C19.7868 19.164 19.7868 18.6587 19.4751 18.3473Z" fill="#A8A8A8" stroke="#A8A8A8" stroke-width="0.3"/>
</svg>
