<svg width="17" height="17" viewBox="0 0 17 17" fill="none" xmlns="http://www.w3.org/2000/svg">
<path d="M6.95455 0C3.11991 0 0 3.11991 0 6.95455C0 10.7894 3.11991 13.9091 6.95455 13.9091C10.7894 13.9091 13.9091 10.7894 13.9091 6.95455C13.9091 3.11991 10.7894 0 6.95455 0ZM6.95455 12.6252C3.82779 12.6252 1.28392 10.0813 1.28392 6.95458C1.28392 3.82782 3.82779 1.28392 6.95455 1.28392C10.0813 1.28392 12.6252 3.82779 12.6252 6.95455C12.6252 10.0813 10.0813 12.6252 6.95455 12.6252Z" fill="#727272"/>
<path d="M16.7955 15.808L12.0105 11.023C11.7377 10.7501 11.2958 10.7501 11.023 11.023C10.7501 11.2956 10.7501 11.7379 11.023 12.0105L15.808 16.7956C15.9444 16.932 16.123 17.0002 16.3018 17.0002C16.4803 17.0002 16.6591 16.932 16.7955 16.7956C17.0684 16.523 17.0684 16.0806 16.7955 15.808Z" fill="#727272"/>
</svg>
