<svg width="24" height="24" viewBox="0 0 24 24" fill="none" xmlns="http://www.w3.org/2000/svg">
<path d="M18.1877 12.4277V12.0002V11.567L19.2677 10.622C19.4668 10.4466 19.5974 10.2064 19.6365 9.9439C19.6757 9.68142 19.6207 9.41356 19.4815 9.18767L18.154 6.93767C18.0553 6.76682 17.9135 6.62491 17.7427 6.52618C17.5719 6.42745 17.3781 6.37537 17.1808 6.37517C17.0586 6.37423 16.937 6.39323 16.8208 6.43142L15.454 6.89267C15.218 6.73585 14.9718 6.59491 14.7171 6.47079L14.4302 5.05329C14.3788 4.79432 14.2379 4.56169 14.0322 4.39613C13.8265 4.23056 13.5692 4.14261 13.3052 4.14767H10.6727C10.4087 4.14261 10.1514 4.23056 9.9457 4.39613C9.74003 4.56169 9.59914 4.79432 9.5477 5.05329L9.26083 6.47079C9.00429 6.59488 8.75625 6.73582 8.51833 6.89267L7.17958 6.40892C7.06218 6.37833 6.94061 6.36694 6.81958 6.37517C6.6223 6.37537 6.42853 6.42745 6.25773 6.52618C6.08693 6.62491 5.94509 6.76682 5.84645 6.93767L4.51895 9.18767C4.38766 9.41323 4.33887 9.67742 4.38094 9.93499C4.42302 10.1926 4.55333 10.4275 4.74958 10.5995L5.8127 11.5727V12.4333L4.74958 13.3783C4.54779 13.5515 4.41391 13.7907 4.37169 14.0533C4.32947 14.3159 4.38164 14.5849 4.51895 14.8127L5.84645 17.0627C5.94509 17.2335 6.08693 17.3754 6.25773 17.4742C6.42853 17.5729 6.6223 17.625 6.81958 17.6252C6.94184 17.6261 7.06343 17.6071 7.17958 17.5689L8.54645 17.1077C8.78244 17.2645 9.02861 17.4054 9.28333 17.5296L9.5702 18.9471C9.62164 19.206 9.76253 19.4387 9.9682 19.6042C10.1739 19.7698 10.4312 19.8577 10.6952 19.8527H13.3502C13.6142 19.8577 13.8715 19.7698 14.0772 19.6042C14.2829 19.4387 14.4238 19.206 14.4752 18.9471L14.7621 17.5296C15.0186 17.4055 15.2667 17.2645 15.5046 17.1077L16.8658 17.5689C16.982 17.6071 17.1036 17.6261 17.2258 17.6252C17.4231 17.625 17.6169 17.5729 17.7877 17.4742C17.9585 17.3754 18.1003 17.2335 18.199 17.0627L19.4815 14.8127C19.6127 14.5871 19.6615 14.3229 19.6195 14.0654C19.5774 13.8078 19.4471 13.5729 19.2508 13.4008L18.1877 12.4277ZM17.1808 16.5002L15.2515 15.8477C14.7998 16.2302 14.2836 16.5293 13.7271 16.7308L13.3277 18.7502H10.6727L10.2733 16.7533C9.72119 16.5461 9.20779 16.2475 8.75458 15.8702L6.81958 16.5002L5.49208 14.2502L7.02208 12.9002C6.91807 12.3179 6.91807 11.7218 7.02208 11.1395L5.49208 9.75017L6.81958 7.50017L8.74895 8.15267C9.2006 7.77011 9.71679 7.47106 10.2733 7.26954L10.6727 5.25017H13.3277L13.7271 7.24704C14.2792 7.45428 14.7926 7.75281 15.2458 8.13017L17.1808 7.50017L18.5083 9.75017L16.9783 11.1002C17.0823 11.6824 17.0823 12.2785 16.9783 12.8608L18.5083 14.2502L17.1808 16.5002Z" fill="#FFA200"/>
<path d="M12 15.375C11.3325 15.375 10.68 15.1771 10.125 14.8062C9.56994 14.4354 9.13735 13.9083 8.88191 13.2916C8.62646 12.6749 8.55963 11.9963 8.68985 11.3416C8.82008 10.6869 9.14151 10.0855 9.61352 9.61352C10.0855 9.14151 10.6869 8.82008 11.3416 8.68985C11.9963 8.55963 12.6749 8.62646 13.2916 8.88191C13.9083 9.13735 14.4354 9.56994 14.8062 10.125C15.1771 10.68 15.375 11.3325 15.375 12C15.3795 12.4445 15.2953 12.8854 15.1273 13.2969C14.9593 13.7084 14.7108 14.0822 14.3965 14.3965C14.0822 14.7108 13.7084 14.9593 13.2969 15.1273C12.8854 15.2953 12.4445 15.3795 12 15.375ZM12 9.75C11.7026 9.74307 11.4069 9.79654 11.1308 9.90716C10.8547 10.0178 10.6039 10.1833 10.3936 10.3936C10.1833 10.6039 10.0178 10.8547 9.90716 11.1308C9.79654 11.4069 9.74307 11.7026 9.75 12C9.74307 12.2974 9.79654 12.5931 9.90716 12.8692C10.0178 13.1453 10.1833 13.3961 10.3936 13.6064C10.6039 13.8167 10.8547 13.9822 11.1308 14.0928C11.4069 14.2035 11.7026 14.2569 12 14.25C12.2974 14.2569 12.5931 14.2035 12.8692 14.0928C13.1453 13.9822 13.3961 13.8167 13.6064 13.6064C13.8167 13.3961 13.9822 13.1453 14.0928 12.8692C14.2035 12.5931 14.2569 12.2974 14.25 12C14.2569 11.7026 14.2035 11.4069 14.0928 11.1308C13.9822 10.8547 13.8167 10.6039 13.6064 10.3936C13.3961 10.1833 13.1453 10.0178 12.8692 9.90716C12.5931 9.79654 12.2974 9.74307 12 9.75Z" fill="#FFA200"/>
</svg>
