<svg width="26" height="26" viewBox="0 0 26 26" fill="none" xmlns="http://www.w3.org/2000/svg">
<path d="M24.9167 20.5833H22.0317C21.5627 19.0223 20.1283 17.875 18.4167 17.875C16.705 17.875 15.2717 19.0223 14.8016 20.5833H1.08332C0.485316 20.5833 0 21.0687 0 21.6667C0 22.2647 0.485316 22.75 1.08332 22.75H14.8016C15.2706 24.3111 16.705 25.4583 18.4166 25.4583C20.1283 25.4583 21.5616 24.3111 22.0317 22.75H24.9166C25.5157 22.75 25.9999 22.2647 25.9999 21.6667C25.9999 21.0687 25.5157 20.5833 24.9167 20.5833ZM18.4167 23.2917C17.5207 23.2917 16.7917 22.5626 16.7917 21.6667C16.7917 20.7707 17.5207 20.0417 18.4167 20.0417C19.3126 20.0417 20.0417 20.7707 20.0417 21.6667C20.0417 22.5626 19.3126 23.2917 18.4167 23.2917Z" fill="#585858"/>
<path d="M24.9167 3.24909H22.0317C21.5616 1.68802 20.1283 0.540771 18.4167 0.540771C16.705 0.540771 15.2717 1.68802 14.8016 3.24909H1.08332C0.485316 3.24909 0 3.7344 0 4.3324C0 4.9304 0.485316 5.41572 1.08332 5.41572H14.8016C15.2717 6.97684 16.705 8.12409 18.4167 8.12409C20.1284 8.12409 21.5616 6.97684 22.0317 5.41577H24.9167C25.5157 5.41577 26 4.93045 26 4.33245C26 3.73445 25.5157 3.24909 24.9167 3.24909ZM18.4167 5.9574C17.5208 5.9574 16.7917 5.22834 16.7917 4.3324C16.7917 3.43647 17.5208 2.7074 18.4167 2.7074C19.3126 2.7074 20.0417 3.43647 20.0417 4.3324C20.0417 5.22834 19.3126 5.9574 18.4167 5.9574Z" fill="#585858"/>
<path d="M24.9167 11.9171H11.1984C10.7282 10.356 9.295 9.20874 7.58337 9.20874C5.87173 9.20874 4.43843 10.356 3.9683 11.9171H1.08332C0.485316 11.9171 0 12.4024 0 13.0004C0 13.5984 0.485316 14.0837 1.08332 14.0837H3.96825C4.43843 15.6448 5.87168 16.792 7.58331 16.792C9.29495 16.792 10.7282 15.6448 11.1984 14.0837H24.9166C25.5157 14.0837 25.9999 13.5984 25.9999 13.0004C26 12.4024 25.5157 11.9171 24.9167 11.9171ZM7.58331 14.6254C6.68738 14.6254 5.95832 13.8963 5.95832 13.0004C5.95832 12.1044 6.68738 11.3754 7.58331 11.3754C8.47925 11.3754 9.20831 12.1044 9.20831 13.0004C9.20831 13.8963 8.47925 14.6254 7.58331 14.6254Z" fill="#585858"/>
</svg>
