<svg width="15" height="15" viewBox="0 0 15 15" fill="none" xmlns="http://www.w3.org/2000/svg">
<path d="M8.12341 4.40862V2.49987C8.12344 2.37627 8.16011 2.25546 8.22878 2.15271C8.29746 2.04995 8.39506 1.96986 8.50925 1.92257C8.62344 1.87527 8.74908 1.8629 8.8703 1.887C8.99152 1.91111 9.10288 1.97061 9.19028 2.05799L13.5653 6.43299C13.6234 6.49098 13.6695 6.55986 13.7009 6.63568C13.7324 6.7115 13.7485 6.79278 13.7485 6.87487C13.7485 6.95695 13.7324 7.03823 13.7009 7.11405C13.6695 7.18987 13.6234 7.25875 13.5653 7.31674L9.19028 11.6917C9.10299 11.7794 8.99162 11.8392 8.8703 11.8635C8.74897 11.8878 8.62317 11.8754 8.50886 11.8281C8.39455 11.7808 8.29688 11.7005 8.22826 11.5976C8.15963 11.4946 8.12314 11.3736 8.12341 11.2499V9.31487C7.94591 9.30237 7.77028 9.29674 7.59653 9.29674C4.20528 9.29674 2.44716 11.5292 2.37028 11.628C2.29149 11.7322 2.18192 11.809 2.05707 11.8475C1.93222 11.8859 1.79844 11.8841 1.67466 11.8424C1.55049 11.8007 1.44254 11.7211 1.36606 11.6148C1.28957 11.5085 1.24842 11.3808 1.24841 11.2499C1.24841 5.54737 6.30216 4.57424 8.12341 4.40862ZM7.59653 8.04674C8.00091 8.04674 8.41653 8.07487 8.83091 8.12987C8.98108 8.15 9.11884 8.22394 9.21862 8.33797C9.31839 8.45199 9.37339 8.59835 9.37341 8.74987V9.74112L12.2397 6.87487L9.37341 4.00862V4.99987C9.37341 5.34487 9.07903 5.62487 8.73466 5.62487C8.16591 5.62487 3.66341 5.75049 2.68528 9.64049C3.71903 8.87924 5.36091 8.04674 7.59653 8.04674Z" fill="#FFA200"/>
</svg>
