<svg width="14" height="14" viewBox="0 0 14 14" fill="none" xmlns="http://www.w3.org/2000/svg">
<path fill-rule="evenodd" clip-rule="evenodd" d="M12.2057 2.10992C12.1765 2.03971 12.1339 1.9759 12.0802 1.92208L12.0779 1.91975C11.9687 1.8109 11.8208 1.74984 11.6667 1.75H8.16667C8.01196 1.75 7.86358 1.81146 7.75419 1.92085C7.64479 2.03025 7.58333 2.17862 7.58333 2.33333C7.58333 2.48804 7.64479 2.63642 7.75419 2.74581C7.86358 2.85521 8.01196 2.91667 8.16667 2.91667H10.2585L6.00425 7.17092C5.94854 7.22473 5.9041 7.2891 5.87352 7.36026C5.84295 7.43143 5.82686 7.50798 5.82619 7.58543C5.82551 7.66289 5.84027 7.7397 5.8696 7.81139C5.89893 7.88308 5.94225 7.94821 5.99702 8.00298C6.05179 8.05775 6.11692 8.10107 6.18861 8.1304C6.2603 8.15973 6.33711 8.17449 6.41457 8.17381C6.49202 8.17314 6.56857 8.15705 6.63974 8.12648C6.7109 8.0959 6.77527 8.05146 6.82908 7.99575L11.0833 3.7415V5.83333C11.0833 5.98804 11.1448 6.13642 11.2542 6.24581C11.3636 6.35521 11.512 6.41667 11.6667 6.41667C11.8214 6.41667 11.9697 6.35521 12.0791 6.24581C12.1885 6.13642 12.25 5.98804 12.25 5.83333V2.33333V2.33158C12.25 2.25575 12.2348 2.18108 12.2057 2.10992ZM1.75 4.66667C1.75 3.89312 2.05729 3.15125 2.60427 2.60427C3.15125 2.05729 3.89312 1.75 4.66667 1.75H5.25C5.40471 1.75 5.55308 1.81146 5.66248 1.92085C5.77187 2.03025 5.83333 2.17862 5.83333 2.33333C5.83333 2.48804 5.77187 2.63642 5.66248 2.74581C5.55308 2.85521 5.40471 2.91667 5.25 2.91667H4.66667C4.20254 2.91667 3.75742 3.10104 3.42923 3.42923C3.10104 3.75742 2.91667 4.20254 2.91667 4.66667V9.33333C2.91667 9.79746 3.10104 10.2426 3.42923 10.5708C3.75742 10.899 4.20254 11.0833 4.66667 11.0833H9.33333C9.79746 11.0833 10.2426 10.899 10.5708 10.5708C10.899 10.2426 11.0833 9.79746 11.0833 9.33333V8.75C11.0833 8.59529 11.1448 8.44692 11.2542 8.33752C11.3636 8.22813 11.512 8.16667 11.6667 8.16667C11.8214 8.16667 11.9697 8.22813 12.0791 8.33752C12.1885 8.44692 12.25 8.59529 12.25 8.75V9.33333C12.25 10.1069 11.9427 10.8487 11.3957 11.3957C10.8487 11.9427 10.1069 12.25 9.33333 12.25H4.66667C3.89312 12.25 3.15125 11.9427 2.60427 11.3957C2.05729 10.8487 1.75 10.1069 1.75 9.33333V4.66667Z" fill="#17212C"/>
</svg>
