<svg width="20" height="20" viewBox="0 0 20 20" fill="none" xmlns="http://www.w3.org/2000/svg">
<path d="M18.4894 16.1642C18.0272 15.0695 17.3565 14.0751 16.5147 13.2365C15.6754 12.3954 14.6812 11.7248 13.5869 11.2618C13.5771 11.2569 13.5673 11.2544 13.5575 11.2495C15.0839 10.147 16.0761 8.35116 16.0761 6.32501C16.0761 2.96852 13.3566 0.249023 10.0001 0.249023C6.64364 0.249023 3.92414 2.96852 3.92414 6.32501C3.92414 8.35116 4.91639 10.147 6.44274 11.252C6.43294 11.2569 6.42314 11.2593 6.41334 11.2642C5.31574 11.7273 4.33084 12.3912 3.48559 13.2389C2.64453 14.0782 1.97396 15.0724 1.5109 16.1666C1.05599 17.2379 0.810643 18.3865 0.788147 19.5501C0.787493 19.5762 0.79208 19.6023 0.801636 19.6266C0.811193 19.651 0.825527 19.6731 0.843793 19.6919C0.862058 19.7106 0.883887 19.7255 0.907992 19.7356C0.932097 19.7458 0.95799 19.751 0.984147 19.751H2.45415C2.56195 19.751 2.6477 19.6652 2.65015 19.5599C2.69915 17.6685 3.45864 15.8972 4.80124 14.5546C6.19039 13.1654 8.03524 12.401 10.0001 12.401C11.965 12.401 13.8099 13.1654 15.199 14.5546C16.5416 15.8972 17.3011 17.6685 17.3501 19.5599C17.3526 19.6677 17.4383 19.751 17.5461 19.751H19.0161C19.0423 19.751 19.0682 19.7458 19.0923 19.7356C19.1164 19.7255 19.1382 19.7106 19.1565 19.6919C19.1747 19.6731 19.1891 19.651 19.1986 19.6266C19.2082 19.6023 19.2128 19.5762 19.2121 19.5501C19.1876 18.379 18.9451 17.2397 18.4894 16.1642ZM10.0001 10.539C8.87559 10.539 7.81719 10.1005 7.02094 9.30421C6.22469 8.50796 5.78614 7.44956 5.78614 6.32501C5.78614 5.20047 6.22469 4.14207 7.02094 3.34582C7.81719 2.54957 8.87559 2.11102 10.0001 2.11102C11.1247 2.11102 12.1831 2.54957 12.9793 3.34582C13.7756 4.14207 14.2141 5.20047 14.2141 6.32501C14.2141 7.44956 13.7756 8.50796 12.9793 9.30421C12.1831 10.1005 11.1247 10.539 10.0001 10.539Z" fill="#A8A8A8" stroke="white" stroke-width="0.1"/>
</svg>
