<svg width="24" height="24" viewBox="0 0 24 24" fill="none" xmlns="http://www.w3.org/2000/svg">
<path d="M18.4508 16.4251C18.0996 15.6392 17.5899 14.9254 16.9502 14.3234C16.3125 13.7196 15.557 13.2382 14.7255 12.9058C14.7181 12.9023 14.7106 12.9005 14.7032 12.897C15.863 12.1055 16.617 10.8163 16.617 9.36181C16.617 6.95226 14.5505 5 12 5C9.44949 5 7.38301 6.95226 7.38301 9.36181C7.38301 10.8163 8.13699 12.1055 9.29683 12.8987C9.28938 12.9023 9.28193 12.904 9.27449 12.9075C8.44045 13.2399 7.69205 13.7166 7.04977 14.3251C6.41067 14.9276 5.90111 15.6414 5.54925 16.4269C5.20357 17.1959 5.01714 18.0204 5.00005 18.8558C4.99955 18.8745 5.00303 18.8932 5.0103 18.9107C5.01756 18.9282 5.02845 18.9441 5.04233 18.9576C5.05621 18.971 5.0728 18.9817 5.09111 18.989C5.10943 18.9963 5.12911 19 5.14898 19H6.266C6.34791 19 6.41307 18.9384 6.41493 18.8628C6.45216 17.505 7.02929 16.2334 8.04949 15.2696C9.10507 14.2724 10.5069 13.7236 12 13.7236C13.4931 13.7236 14.8949 14.2724 15.9505 15.2696C16.9707 16.2334 17.5478 17.505 17.5851 18.8628C17.5869 18.9402 17.6521 19 17.734 19H18.851C18.8709 19 18.8906 18.9963 18.9089 18.989C18.9272 18.9817 18.9438 18.971 18.9577 18.9576C18.9715 18.9441 18.9824 18.9282 18.9897 18.9107C18.997 18.8932 19.0005 18.8745 19 18.8558C18.9813 18.0151 18.797 17.1972 18.4508 16.4251ZM12 12.3869C11.1455 12.3869 10.3412 12.0721 9.73619 11.5005C9.13114 10.9289 8.79789 10.1691 8.79789 9.36181C8.79789 8.55452 9.13114 7.79472 9.73619 7.22312C10.3412 6.65151 11.1455 6.33668 12 6.33668C12.8545 6.33668 13.6588 6.65151 14.2638 7.22312C14.8689 7.79472 15.2021 8.55452 15.2021 9.36181C15.2021 10.1691 14.8689 10.9289 14.2638 11.5005C13.6588 12.0721 12.8545 12.3869 12 12.3869Z" fill="#FFA200"/>
</svg>
