<svg width="30" height="30" viewBox="0 0 30 30" fill="none" xmlns="http://www.w3.org/2000/svg">
<g clip-path="url(#clip0)">
<path d="M26.9044 9.54682C27.0923 10.0933 26.4794 11.3484 25.0656 13.3122C24.8695 13.5854 24.6039 13.9483 24.2688 14.4008C23.9419 14.8363 23.7172 15.1436 23.5946 15.3229C23.472 15.5022 23.3474 15.7136 23.2207 15.9569C23.094 16.2002 23.045 16.3796 23.0736 16.4948C23.1022 16.6101 23.1553 16.7574 23.233 16.9367C23.3106 17.116 23.4434 17.2996 23.6314 17.4874C23.8193 17.6752 24.0522 17.9015 24.3301 18.1662C24.3628 18.1833 24.3832 18.2003 24.3914 18.2174C25.5437 19.3359 26.3241 20.2794 26.7328 21.0478C26.7573 21.0905 26.7838 21.1439 26.8124 21.2079C26.841 21.272 26.8697 21.3851 26.8983 21.5473C26.9269 21.7096 26.9248 21.8547 26.8921 21.9828C26.8594 22.1109 26.7573 22.2283 26.5857 22.335C26.414 22.4417 26.173 22.4951 25.8624 22.4951L22.7242 22.5463C22.5281 22.589 22.2993 22.5677 22.0378 22.4823C21.7762 22.3969 21.5638 22.303 21.4003 22.2005L21.1551 22.0468C20.91 21.8675 20.6239 21.5943 20.2971 21.2271C19.9702 20.86 19.6903 20.5291 19.4573 20.2346C19.2244 19.94 18.9752 19.6924 18.7096 19.4917C18.444 19.2911 18.2131 19.2249 18.017 19.2932C17.9925 19.3018 17.9598 19.3167 17.9189 19.3381C17.878 19.3594 17.8086 19.4213 17.7105 19.5238C17.6124 19.6262 17.5246 19.7522 17.4469 19.9016C17.3693 20.051 17.2998 20.273 17.2386 20.5676C17.1773 20.8621 17.1507 21.193 17.1589 21.5601C17.1589 21.6882 17.1446 21.8056 17.116 21.9123C17.0874 22.0191 17.0567 22.098 17.024 22.1493L16.975 22.2133C16.8279 22.3755 16.6113 22.4695 16.3253 22.4951H14.9156C14.3353 22.5292 13.7388 22.4588 13.1258 22.2838C12.5129 22.1087 11.9756 21.8825 11.5138 21.605C11.0521 21.3275 10.6312 21.0457 10.2512 20.7597C9.8712 20.4736 9.58312 20.2282 9.38699 20.0233L9.08052 19.7159C8.9988 19.6305 8.88643 19.5024 8.74341 19.3317C8.6004 19.1609 8.30824 18.7724 7.86693 18.1662C7.42563 17.56 6.99249 16.9153 6.56753 16.2323C6.14257 15.5492 5.64201 14.6484 5.06586 13.5299C4.48971 12.4114 3.95647 11.2502 3.46613 10.0463C3.4171 9.90969 3.39258 9.79443 3.39258 9.7005C3.39258 9.60658 3.40484 9.53828 3.42935 9.49559L3.47839 9.41874C3.60097 9.25652 3.83388 9.1754 4.17712 9.1754L7.53595 9.14979C7.63402 9.16686 7.728 9.19461 7.8179 9.23303C7.90779 9.27146 7.97317 9.30774 8.01403 9.3419L8.07533 9.38032C8.20608 9.47424 8.30415 9.61085 8.36953 9.79016C8.53298 10.2171 8.72094 10.6589 8.93342 11.1157C9.1459 11.5725 9.31343 11.9204 9.43602 12.1595L9.63216 12.5309C9.86915 13.0432 10.098 13.4872 10.3186 13.8629C10.5393 14.2386 10.7375 14.531 10.9132 14.7402C11.0889 14.9494 11.2585 15.1138 11.4219 15.2333C11.5853 15.3528 11.7243 15.4126 11.8387 15.4126C11.9531 15.4126 12.0634 15.3913 12.1697 15.3486C12.186 15.34 12.2064 15.3187 12.231 15.2845C12.2555 15.2504 12.3045 15.1564 12.3781 15.0028C12.4516 14.8491 12.5068 14.6484 12.5435 14.4008C12.5803 14.1532 12.6191 13.8074 12.66 13.3634C12.7009 12.9194 12.7009 12.3858 12.66 11.7625C12.6437 11.421 12.6069 11.1093 12.5497 10.8276C12.4925 10.5458 12.4353 10.3494 12.3781 10.2384L12.3045 10.0847C12.1002 9.79443 11.7529 9.61085 11.2625 9.53401C11.1563 9.51693 11.1767 9.41447 11.3238 9.22663C11.4546 9.0644 11.6099 8.93633 11.7897 8.84241C12.2228 8.62042 13.1994 8.51796 14.7194 8.53503C15.3896 8.54357 15.9412 8.59907 16.3743 8.70153C16.5378 8.74422 16.6747 8.80185 16.785 8.87443C16.8953 8.947 16.9791 9.04946 17.0363 9.18181C17.0935 9.31415 17.1364 9.45076 17.165 9.59164C17.1936 9.73252 17.2079 9.92677 17.2079 10.1744C17.2079 10.422 17.2038 10.6568 17.1957 10.8788C17.1875 11.1008 17.1773 11.4018 17.165 11.7817C17.1527 12.1617 17.1466 12.5139 17.1466 12.8383C17.1466 12.9322 17.1425 13.1115 17.1344 13.3762C17.1262 13.6409 17.1241 13.8458 17.1282 13.991C17.1323 14.1361 17.1466 14.309 17.1711 14.5097C17.1957 14.7103 17.2426 14.8768 17.3121 15.0092C17.3816 15.1415 17.4735 15.2461 17.5879 15.3229C17.6533 15.34 17.7228 15.3571 17.7963 15.3742C17.8699 15.3913 17.9761 15.3443 18.115 15.2333C18.254 15.1223 18.4092 14.975 18.5809 14.7914C18.7525 14.6079 18.965 14.3218 19.2183 13.9333C19.4716 13.5449 19.7495 13.0859 20.0519 12.5566C20.5422 11.6686 20.9794 10.708 21.3635 9.67489C21.3962 9.58951 21.4371 9.5148 21.4861 9.45076C21.5352 9.38672 21.5801 9.3419 21.621 9.31628L21.67 9.27786L21.7313 9.24584L21.8907 9.20742L22.1358 9.20102L25.6663 9.1754C25.985 9.13271 26.2465 9.14338 26.4508 9.20742C26.6551 9.27146 26.7818 9.3419 26.8308 9.41874L26.9044 9.54682Z" fill="#4D7198"/>
</g>
<defs>
<clipPath id="clip0">
<rect width="23.9286" height="25" fill="white" transform="translate(3 3)"/>
</clipPath>
</defs>
</svg>
