<svg width="67" height="70" viewBox="0 0 67 70" fill="none" xmlns="http://www.w3.org/2000/svg">
<g clip-path="url(#clip0)">
<path d="M66.9327 18.3303C67.459 19.8604 65.7428 23.3747 61.7841 28.8733C61.2349 29.6384 60.4912 30.6544 59.553 31.9215C58.6377 33.1408 58.0085 34.0014 57.6652 34.5035C57.322 35.0055 56.973 35.5972 56.6184 36.2786C56.2637 36.9599 56.1264 37.462 56.2065 37.7847C56.2866 38.1075 56.4353 38.5199 56.6527 39.0219C56.8701 39.524 57.2419 40.038 57.7682 40.5639C58.2945 41.0899 58.9467 41.7234 59.7247 42.4645C59.8162 42.5123 59.8734 42.5602 59.8963 42.608C63.1227 45.7398 65.308 48.3815 66.4521 50.5332C66.5208 50.6527 66.5951 50.8021 66.6752 50.9814C66.7553 51.1607 66.8354 51.4775 66.9155 51.9317C66.9956 52.386 66.9899 52.7924 66.8983 53.151C66.8068 53.5096 66.5208 53.8383 66.0402 54.1372C65.5597 54.436 64.8847 54.5854 64.0151 54.5854L55.2282 54.7289C54.6791 54.8484 54.0383 54.7886 53.3061 54.5496C52.5739 54.3105 51.9789 54.0475 51.5213 53.7606L50.8348 53.3303C50.1483 52.8283 49.3474 52.0632 48.4321 51.0352C47.5168 50.0072 46.7331 49.0808 46.0809 48.256C45.4288 47.4312 44.7309 46.7379 43.9872 46.1761C43.2435 45.6143 42.5971 45.429 42.0479 45.6203C41.9793 45.6442 41.8877 45.686 41.7733 45.7458C41.6589 45.8055 41.4644 45.9789 41.1898 46.2658C40.9152 46.5526 40.6692 46.9053 40.4518 47.3236C40.2345 47.742 40.04 48.3636 39.8683 49.1884C39.6967 50.0132 39.6224 50.9396 39.6452 51.9676C39.6452 52.3262 39.6052 52.6549 39.5251 52.9538C39.445 53.2526 39.3592 53.4738 39.2677 53.6172L39.1304 53.7965C38.7185 54.2507 38.1121 54.5137 37.3112 54.5854H33.364C31.7393 54.6811 30.0689 54.4838 28.3527 53.9937C26.6365 53.5036 25.132 52.8701 23.8391 52.0931C22.5463 51.3161 21.3678 50.5272 20.3038 49.7263C19.2397 48.9254 18.4331 48.2381 17.8839 47.6643L17.0259 46.8037C16.797 46.5646 16.4824 46.206 16.0819 45.7278C15.6815 45.2497 14.8635 44.1619 13.6278 42.4645C12.3921 40.7671 11.1794 38.9621 9.98947 37.0496C8.79958 35.137 7.39803 32.6148 5.78481 29.483C4.17159 26.3511 2.6785 23.0998 1.30555 19.7289C1.16826 19.3464 1.09961 19.0236 1.09961 18.7606C1.09961 18.4977 1.13393 18.3064 1.20258 18.1869L1.33988 17.9717C1.68311 17.5175 2.33527 17.2903 3.29633 17.2903L12.7011 17.2186C12.9756 17.2664 13.2388 17.3441 13.4905 17.4517C13.7422 17.5593 13.9253 17.6609 14.0397 17.7565L14.2113 17.8641C14.5774 18.1271 14.852 18.5096 15.0351 19.0117C15.4927 20.207 16.019 21.4442 16.614 22.7232C17.2089 24.0023 17.678 24.9765 18.0212 25.6459L18.5704 26.6858C19.234 28.1203 19.8747 29.3634 20.4926 30.4153C21.1104 31.4673 21.6653 32.2861 22.1573 32.8718C22.6492 33.4575 23.124 33.9177 23.5817 34.2524C24.0393 34.5871 24.4284 34.7545 24.7487 34.7545C25.0691 34.7545 25.378 34.6947 25.6755 34.5752C25.7212 34.5513 25.7784 34.4915 25.8471 34.3959C25.9157 34.3003 26.053 34.0373 26.259 33.6069C26.4649 33.1766 26.6194 32.6148 26.7223 31.9215C26.8253 31.2282 26.934 30.2599 27.0484 29.0168C27.1628 27.7736 27.1628 26.2794 27.0484 24.5342C27.0026 23.5779 26.8997 22.7053 26.7395 21.9164C26.5793 21.1274 26.4191 20.5776 26.259 20.2668L26.053 19.8365C25.4809 19.0236 24.5084 18.5096 23.1355 18.2944C22.838 18.2466 22.8952 17.9597 23.3071 17.4338C23.6732 16.9796 24.108 16.6209 24.6114 16.358C25.8242 15.7364 28.5586 15.4495 32.8148 15.4973C34.6912 15.5212 36.2357 15.6766 37.4485 15.9635C37.9062 16.083 38.2894 16.2444 38.5984 16.4476C38.9073 16.6508 39.1418 16.9377 39.302 17.3083C39.4622 17.6788 39.5823 18.0613 39.6624 18.4558C39.7425 18.8503 39.7825 19.3942 39.7825 20.0875C39.7825 20.7808 39.7711 21.4382 39.7482 22.0598C39.7253 22.6814 39.6967 23.5241 39.6624 24.588C39.6281 25.6519 39.6109 26.638 39.6109 27.5465C39.6109 27.8095 39.5995 28.3115 39.5766 29.0526C39.5537 29.7938 39.548 30.3675 39.5594 30.774C39.5709 31.1804 39.6109 31.6645 39.6796 32.2263C39.7482 32.7881 39.8798 33.2543 40.0743 33.6249C40.2688 33.9954 40.5262 34.2883 40.8466 34.5035C41.0296 34.5513 41.2241 34.5991 41.4301 34.6469C41.636 34.6947 41.9335 34.5632 42.3225 34.2524C42.7115 33.9416 43.1463 33.5292 43.6268 33.0152C44.1073 32.5012 44.7023 31.7004 45.4116 30.6126C46.121 29.5248 46.899 28.2398 47.7457 26.7576C49.1186 24.2712 50.3428 21.5817 51.4183 18.6889C51.5098 18.4498 51.6242 18.2407 51.7615 18.0613C51.8988 17.882 52.0247 17.7565 52.1391 17.6848L52.2764 17.5772L52.448 17.4876L52.8942 17.38L53.5807 17.3621L63.466 17.2903C64.3584 17.1708 65.0906 17.2007 65.6627 17.38C66.2347 17.5593 66.5894 17.7565 66.7267 17.9717L66.9327 18.3303Z" fill="white"/>
</g>
<defs>
<clipPath id="clip0">
<rect width="67" height="70" fill="white"/>
</clipPath>
</defs>
</svg>
