<svg width="30" height="30" viewBox="0 0 30 30" fill="none" xmlns="http://www.w3.org/2000/svg">
<path d="M15.5827 2H15.5765C8.68428 2 3.07959 7.60625 3.07959 14.5C3.07959 17.2344 3.96084 19.7687 5.45928 21.8266L3.90146 26.4703L8.70615 24.9344C10.6827 26.2438 13.0405 27 15.5827 27C22.4749 27 28.0796 21.3922 28.0796 14.5C28.0796 7.60781 22.4749 2 15.5827 2Z" fill="#4CAF50"/>
<path d="M22.8193 19.9933C22.5137 20.9201 21.301 21.6888 20.3336 21.9133C19.6718 22.0646 18.8074 22.1854 15.8974 20.8895C12.1753 19.2331 9.77828 15.1703 9.59146 14.9067C9.41256 14.6431 8.0874 12.7554 8.0874 10.8031C8.0874 8.85078 9.01042 7.90013 9.38248 7.49199C9.68804 7.15696 10.1931 7.00391 10.6776 7.00391C10.8343 7.00391 10.9752 7.01241 11.1019 7.01921C11.4739 7.03622 11.6607 7.06003 11.9061 7.69096C12.2117 8.48175 12.9558 10.4341 13.0445 10.6347C13.1347 10.8354 13.225 11.1075 13.0983 11.3711C12.9796 11.6432 12.8751 11.7639 12.6882 11.9952C12.5014 12.2265 12.3241 12.4034 12.1373 12.6517C11.9663 12.8677 11.7731 13.0989 11.9885 13.4986C12.2038 13.8897 12.9479 15.1941 14.0435 16.2417C15.4573 17.5937 16.6036 18.0256 17.0136 18.2093C17.3192 18.3454 17.6833 18.313 17.9065 18.0579C18.1899 17.7297 18.5398 17.1855 18.8961 16.6498C19.1494 16.2655 19.4692 16.2179 19.8048 16.3539C20.1468 16.4815 21.9564 17.4423 22.3285 17.6413C22.7005 17.842 22.9459 17.9372 23.0362 18.1056C23.1248 18.2739 23.1248 19.0647 22.8193 19.9933Z" fill="white"/>
</svg>
