<svg width="22" height="22" viewBox="0 0 22 22" fill="none" xmlns="http://www.w3.org/2000/svg">
<path fill-rule="evenodd" clip-rule="evenodd" d="M18.2959 3.67408C16.3663 1.74225 13.8002 0.677891 11.0663 0.676758C5.43298 0.676758 0.848248 5.26136 0.845982 10.8962C0.845226 12.6975 1.31578 14.4559 2.2102 16.0058L0.760254 21.3018L6.17822 19.8805C7.67109 20.6949 9.35178 21.124 11.0622 21.1245H11.0665C16.6992 21.1245 21.2844 16.5395 21.2866 10.9044C21.2877 8.17346 20.2256 5.60578 18.2959 3.67408ZM11.0663 19.3985H11.0628C9.53859 19.3979 8.04371 18.9882 6.73929 18.2144L6.42923 18.0303L3.21413 18.8737L4.07229 15.739L3.87024 15.4176C3.01989 14.0651 2.57086 12.5019 2.57161 10.8969C2.57338 6.21331 6.38417 2.40289 11.0697 2.40289C13.3387 2.40365 15.4715 3.28837 17.0753 4.89403C18.6791 6.49969 19.5618 8.63395 19.5611 10.9038C19.559 15.5877 15.7485 19.3985 11.0663 19.3985ZM15.7258 13.0364C15.4705 12.9085 14.215 12.2909 13.9808 12.2056C13.7469 12.1203 13.5765 12.0779 13.4064 12.3335C13.2361 12.589 12.7468 13.1643 12.5977 13.3346C12.4487 13.5051 12.2999 13.5265 12.0445 13.3986C11.789 13.2708 10.9663 13.001 9.99077 12.131C9.23168 11.4539 8.71921 10.6176 8.57016 10.3621C8.42136 10.1063 8.5689 9.98142 8.6822 9.84093C8.95864 9.49765 9.23546 9.13774 9.32056 8.96742C9.40578 8.79697 9.36311 8.6478 9.29916 8.52002C9.23546 8.39225 8.72474 7.13529 8.512 6.62382C8.30454 6.12607 8.09419 6.19329 7.93733 6.18549C7.78854 6.17806 7.61822 6.17655 7.44789 6.17655C7.2777 6.17655 7.001 6.24037 6.76686 6.49617C6.53284 6.75184 5.8732 7.36956 5.8732 8.62652C5.8732 9.88348 6.78826 11.0978 6.9159 11.2682C7.04355 11.4387 8.71669 14.018 11.2783 15.1241C11.8876 15.3874 12.3632 15.5444 12.7342 15.6621C13.346 15.8565 13.9025 15.829 14.3426 15.7633C14.8333 15.6899 15.8534 15.1455 16.0664 14.549C16.2791 13.9525 16.2791 13.4412 16.2152 13.3346C16.1515 13.2281 15.9811 13.1643 15.7258 13.0364Z" fill="white"/>
</svg>
