<svg width="69" height="70" viewBox="0 0 69 70" fill="none" xmlns="http://www.w3.org/2000/svg">
<path d="M63.4274 20.2412C63.0837 18.9426 62.4099 17.7584 61.4733 16.8071C60.5367 15.8557 59.3703 15.1706 58.0907 14.8203C53.3807 13.5352 34.5 13.5352 34.5 13.5352C34.5 13.5352 15.6193 13.5352 10.9093 14.8135C9.62914 15.1626 8.4621 15.8474 7.52535 16.7989C6.5886 17.7504 5.91513 18.9352 5.57256 20.2344C4.3125 25.0195 4.3125 35 4.3125 35C4.3125 35 4.3125 44.9805 5.57256 49.7588C6.2666 52.3975 8.31504 54.4756 10.9093 55.1797C15.6193 56.4648 34.5 56.4648 34.5 56.4648C34.5 56.4648 53.3807 56.4648 58.0907 55.1797C60.6917 54.4756 62.7334 52.3975 63.4274 49.7588C64.6875 44.9805 64.6875 35 64.6875 35C64.6875 35 64.6875 25.0195 63.4274 20.2412ZM28.5029 44.1602V25.8398L44.1357 34.9316L28.5029 44.1602Z" fill="white"/>
</svg>
