<svg width="175" height="137" viewBox="0 0 175 137" fill="none" xmlns="http://www.w3.org/2000/svg">
<g opacity="0.03">
<path d="M147.657 91.6583V87.502V83.2911L158.157 74.1036C160.093 72.3976 161.363 70.0623 161.743 67.5105C162.124 64.9586 161.59 62.3545 160.235 60.1583L147.329 38.2833C146.37 36.6222 144.991 35.2425 143.331 34.2827C141.67 33.3228 139.786 32.8165 137.868 32.8145C136.68 32.8054 135.497 32.9901 134.368 33.3614L121.079 37.8458C118.785 36.3211 116.392 34.9509 113.915 33.7442L111.126 19.963C110.626 17.4452 109.256 15.1835 107.257 13.5738C105.257 11.9642 102.755 11.1091 100.189 11.1583H74.5949C72.0284 11.1091 69.5263 11.9642 67.5268 13.5738C65.5272 15.1835 64.1575 17.4452 63.6574 19.963L60.8683 33.7442C58.3742 34.9506 55.9627 36.3208 53.6496 37.8458L40.6339 33.1426C39.4926 32.8453 38.3106 32.7345 37.1339 32.8145C35.2159 32.8165 33.3321 33.3228 31.6715 34.2827C30.011 35.2425 28.632 36.6222 27.673 38.2833L14.7667 60.1583C13.4903 62.3512 13.0159 64.9197 13.425 67.4239C13.834 69.928 15.101 72.2121 17.0089 73.8848L27.3449 83.3458V91.713L17.0089 100.9C15.0471 102.585 13.7455 104.91 13.335 107.463C12.9245 110.016 13.4318 112.631 14.7667 114.846L27.673 136.721C28.632 138.382 30.011 139.762 31.6715 140.721C33.3321 141.681 35.2159 142.188 37.1339 142.19C38.3226 142.199 39.5047 142.014 40.6339 141.643L53.923 137.158C56.2173 138.683 58.6107 140.053 61.0871 141.26L63.8761 155.041C64.3762 157.559 65.7459 159.821 67.7455 161.43C69.7451 163.04 72.2471 163.895 74.8136 163.846H100.626C103.193 163.895 105.695 163.04 107.694 161.43C109.694 159.821 111.064 157.559 111.564 155.041L114.353 141.26C116.847 140.053 119.258 138.683 121.571 137.158L134.806 141.643C135.935 142.014 137.117 142.199 138.306 142.19C140.224 142.188 142.108 141.681 143.768 140.721C145.429 139.762 146.808 138.382 147.767 136.721L160.235 114.846C161.512 112.653 161.986 110.084 161.577 107.58C161.168 105.076 159.901 102.792 157.993 101.119L147.657 91.6583ZM137.868 131.252L119.11 124.908C114.719 128.628 109.701 131.535 104.29 133.494L100.407 153.127H74.5949L70.7121 133.713C65.344 131.698 60.3527 128.796 55.9464 125.127L37.1339 131.252L24.2277 109.377L39.1027 96.252C38.0915 90.5911 38.0915 84.7958 39.1027 79.1348L24.2277 65.627L37.1339 43.752L55.8917 50.0958C60.2828 46.3764 65.3013 43.469 70.7121 41.5098L74.5949 21.877H100.407L104.29 41.2911C109.658 43.3059 114.65 46.2083 119.056 49.877L137.868 43.752L150.775 65.627L135.9 78.752C136.911 84.413 136.911 90.2083 135.9 95.8692L150.775 109.377L137.868 131.252Z" fill="black"/>
<path d="M87.5 120.313C81.0103 120.313 74.6664 118.388 69.2704 114.783C63.8744 111.177 59.6687 106.053 57.1852 100.057C54.7017 94.0611 54.0519 87.4636 55.318 81.0986C56.5841 74.7336 59.7092 68.887 64.2981 64.2981C68.887 59.7092 74.7336 56.5841 81.0986 55.318C87.4636 54.0519 94.0611 54.7017 100.057 57.1852C106.053 59.6687 111.177 63.8744 114.783 69.2704C118.388 74.6664 120.313 81.0103 120.313 87.5C120.356 91.8212 119.538 96.1077 117.904 100.109C116.271 104.109 113.855 107.744 110.8 110.8C107.744 113.855 104.109 116.271 100.109 117.904C96.1077 119.538 91.8212 120.356 87.5 120.313ZM87.5 65.625C84.6089 65.5577 81.7342 66.0774 79.0498 67.1529C76.3653 68.2284 73.927 69.8372 71.8821 71.8821C69.8372 73.927 68.2284 76.3653 67.1529 79.0498C66.0774 81.7342 65.5577 84.6089 65.625 87.5C65.5577 90.3911 66.0774 93.2658 67.1529 95.9502C68.2284 98.6347 69.8372 101.073 71.8821 103.118C73.927 105.163 76.3653 106.772 79.0498 107.847C81.7342 108.923 84.6089 109.442 87.5 109.375C90.3911 109.442 93.2658 108.923 95.9502 107.847C98.6347 106.772 101.073 105.163 103.118 103.118C105.163 101.073 106.772 98.6347 107.847 95.9502C108.923 93.2658 109.442 90.3911 109.375 87.5C109.442 84.6089 108.923 81.7342 107.847 79.0498C106.772 76.3653 105.163 73.927 103.118 71.8821C101.073 69.8372 98.6347 68.2284 95.9502 67.1529C93.2658 66.0774 90.3911 65.5577 87.5 65.625Z" fill="black"/>
</g>
</svg>
