<svg width="136" height="130" viewBox="0 0 136 130" fill="none" xmlns="http://www.w3.org/2000/svg">
<path opacity="0.03" d="M130.664 116.699C127.253 108.672 122.302 101.381 116.088 95.2315C109.893 89.0644 102.554 84.1473 94.4764 80.7519C94.4041 80.716 94.3317 80.698 94.2594 80.6621C105.526 72.5779 112.851 59.4097 112.851 44.5528C112.851 19.941 92.7764 0 68 0C43.2236 0 23.1492 19.941 23.1492 44.5528C23.1492 59.4097 30.4737 72.5779 41.7406 80.68C41.6683 80.716 41.5959 80.7339 41.5236 80.7698C33.4215 84.1652 26.1513 89.0337 19.912 95.2495C13.7036 101.404 8.75367 108.694 5.33552 116.717C1.97754 124.573 0.166507 132.994 0.000452233 141.527C-0.00437474 141.719 0.0294808 141.909 0.100025 142.088C0.170569 142.266 0.276374 142.429 0.411206 142.566C0.546037 142.704 0.707167 142.813 0.8851 142.887C1.06303 142.962 1.25417 143 1.44725 143H12.2982C13.094 143 13.727 142.371 13.745 141.599C14.1067 127.73 19.7131 114.741 29.6237 104.897C39.8778 94.7106 53.4958 89.1055 68 89.1055C82.5042 89.1055 96.1222 94.7106 106.376 104.897C116.287 114.741 121.893 127.73 122.255 141.599C122.273 142.389 122.906 143 123.702 143H134.553C134.746 143 134.937 142.962 135.115 142.887C135.293 142.813 135.454 142.704 135.589 142.566C135.724 142.429 135.829 142.266 135.9 142.088C135.971 141.909 136.004 141.719 136 141.527C135.819 132.94 134.028 124.586 130.664 116.699ZM68 75.4523C59.699 75.4523 51.8863 72.2366 46.0087 66.398C40.131 60.5594 36.8938 52.7986 36.8938 44.5528C36.8938 36.3069 40.131 28.5461 46.0087 22.7075C51.8863 16.869 59.699 13.6533 68 13.6533C76.301 13.6533 84.1137 16.869 89.9913 22.7075C95.869 28.5461 99.1062 36.3069 99.1062 44.5528C99.1062 52.7986 95.869 60.5594 89.9913 66.398C84.1137 72.2366 76.301 75.4523 68 75.4523Z" fill="#17212C"/>
</svg>
