<svg width="20" height="20" viewBox="0 0 20 20" fill="none" xmlns="http://www.w3.org/2000/svg">
<path fill-rule="evenodd" clip-rule="evenodd" d="M9.37663 1.50359C9.56427 1.39753 9.77615 1.3418 9.9917 1.3418C10.2072 1.3418 10.4191 1.39753 10.6068 1.50359L17.1693 5.21283C17.362 5.32175 17.5223 5.4799 17.6339 5.67109C17.7454 5.86229 17.8042 6.07967 17.8042 6.30103V13.6967C17.8042 13.9181 17.7454 14.1355 17.6339 14.3266C17.5223 14.5178 17.362 14.676 17.1693 14.7849L10.6068 18.4941C10.4196 18.5999 10.2078 18.6561 9.9917 18.6561C9.77562 18.6561 9.5638 18.5999 9.37663 18.4941L2.81413 14.7849C2.62142 14.676 2.46109 14.5178 2.34954 14.3266C2.23798 14.1355 2.1792 13.9181 2.1792 13.6967V6.30103C2.1792 6.08977 2.23274 5.88213 2.3346 5.69742C2.33764 5.69155 2.34079 5.68569 2.34405 5.67987C2.35169 5.6662 2.35977 5.65292 2.36826 5.64005C2.47871 5.46276 2.63195 5.3158 2.81413 5.21283L2.89712 5.35967L2.81413 5.21283L9.37663 1.50359ZM3.4292 7.00218V13.6967L9.37671 17.0583L9.44584 10.3641L3.4292 7.00218ZM10.6959 10.3634L10.6269 17.0469L16.5542 13.6967V7.01361L14.4556 8.21359V11.6017C14.4556 11.9468 14.1758 12.2267 13.8306 12.2267C13.4855 12.2267 13.2056 11.9468 13.2056 11.6017V8.92835L10.6959 10.3634ZM13.8265 7.13341L15.9145 5.93947L9.9917 2.5918L10.2992 2.0477L9.9917 2.5918L9.68416 2.0477L9.9917 2.5918L7.85747 3.7981L13.8265 7.13341ZM6.58352 4.51816L12.56 7.85762L10.0704 9.28118L4.07935 5.93356L6.58352 4.51816Z" fill="#FFA200"/>
</svg>
