<svg width="20" height="20" viewBox="0 0 20 20" fill="none" xmlns="http://www.w3.org/2000/svg">
<g clip-path="url(#clip0)">
<path fill-rule="evenodd" clip-rule="evenodd" d="M1 5.25C1 4.55964 1.58763 4 2.3125 4H18.0625C18.7874 4 19.375 4.55964 19.375 5.25V15.25C19.375 15.9404 18.7874 16.5 18.0625 16.5H2.3125C1.58763 16.5 1 15.9404 1 15.25V5.25ZM2.3125 8.44153V15.25H18.0625V8.44153H2.3125ZM18.0625 7.19153H2.3125V5.25H18.0625V7.19153ZM8.875 13.375C8.875 13.0298 9.16881 12.75 9.53125 12.75H10.8438C11.2062 12.75 11.5 13.0298 11.5 13.375C11.5 13.7202 11.2062 14 10.8438 14H9.53125C9.16881 14 8.875 13.7202 8.875 13.375ZM12.8125 13.375C12.8125 13.0298 13.1063 12.75 13.4688 12.75H16.0938C16.4562 12.75 16.75 13.0298 16.75 13.375C16.75 13.7202 16.4562 14 16.0938 14H13.4688C13.1063 14 12.8125 13.7202 12.8125 13.375Z" fill="#FFA200"/>
</g>
<defs>
<clipPath id="clip0">
<rect width="20" height="20" fill="white"/>
</clipPath>
</defs>
</svg>
