<svg width="20" height="20" viewBox="0 0 20 20" fill="none" xmlns="http://www.w3.org/2000/svg">
<path fill-rule="evenodd" clip-rule="evenodd" d="M2.42105 2.42105V7.1579H7.1579V2.42105H2.42105ZM1.94737 1C1.42415 1 1 1.42415 1 1.94737V7.63158C1 8.1548 1.42415 8.57895 1.94737 8.57895H7.63158C8.1548 8.57895 8.57895 8.1548 8.57895 7.63158V1.94737C8.57895 1.42415 8.1548 1 7.63158 1H1.94737Z" fill="#FFA200"/>
<path fill-rule="evenodd" clip-rule="evenodd" d="M2.42105 12.8421V17.5789H7.1579V12.8421H2.42105ZM1.94737 11.4211C1.42415 11.4211 1 11.8452 1 12.3684V18.0526C1 18.5758 1.42415 19 1.94737 19H7.63158C8.1548 19 8.57895 18.5758 8.57895 18.0526V12.3684C8.57895 11.8452 8.1548 11.4211 7.63158 11.4211H1.94737Z" fill="#FFA200"/>
<path fill-rule="evenodd" clip-rule="evenodd" d="M12.8421 2.42105V7.1579H17.5789V2.42105H12.8421ZM12.3684 1C11.8452 1 11.4211 1.42415 11.4211 1.94737V7.63158C11.4211 8.1548 11.8452 8.57895 12.3684 8.57895H18.0526C18.5758 8.57895 19 8.1548 19 7.63158V1.94737C19 1.42415 18.5758 1 18.0526 1H12.3684Z" fill="#FFA200"/>
<path fill-rule="evenodd" clip-rule="evenodd" d="M12.8421 12.8421V17.5789H17.5789V12.8421H12.8421ZM12.3684 11.4211C11.8452 11.4211 11.4211 11.8452 11.4211 12.3684V18.0526C11.4211 18.5758 11.8452 19 12.3684 19H18.0526C18.5758 19 19 18.5758 19 18.0526V12.3684C19 11.8452 18.5758 11.4211 18.0526 11.4211H12.3684Z" fill="#FFA200"/>
</svg>
