<svg width="20" height="20" viewBox="0 0 20 20" fill="none" xmlns="http://www.w3.org/2000/svg">
<path fill-rule="evenodd" clip-rule="evenodd" d="M13.4385 3.73047C14.6817 3.73047 15.874 4.22433 16.7531 5.10341C17.4323 5.78255 17.8815 6.64863 18.0507 7.58071C18.0516 7.58498 18.0525 7.58926 18.0533 7.59356L19.3307 14.1891L19.3326 14.1995C19.4365 14.7885 19.3498 15.3953 19.0852 15.9318C18.8207 16.4682 18.392 16.9063 17.8615 17.1825C17.3309 17.4587 16.7261 17.5586 16.135 17.4676C15.5438 17.3767 14.997 17.0996 14.574 16.6767C14.5663 16.669 14.5588 16.6611 14.5516 16.653L11.3635 13.1138L8.64047 13.1247L5.44791 16.6541C5.4409 16.6619 5.43369 16.6695 5.4263 16.6768C5.00332 17.0997 4.45654 17.3768 3.86537 17.4677C3.2742 17.5587 2.66942 17.4588 2.13888 17.1826C1.60834 16.9064 1.17966 16.4683 0.915099 15.9319C0.650539 15.3954 0.563877 14.7886 0.667699 14.1996L0.669701 14.1888L1.9426 7.64222C1.94349 7.63617 1.94447 7.6301 1.94554 7.62403C2.1372 6.53879 2.70501 5.55573 3.5493 4.84744C4.39334 4.13935 5.45977 3.7511 6.56148 3.7508C6.56179 3.7508 6.5621 3.7508 6.56242 3.7508L13.4385 3.73047ZM3.18125 7.81508C3.17961 7.82746 3.17759 7.83982 3.17519 7.85214L1.89786 14.4215C1.84153 14.7472 1.88993 15.0825 2.03617 15.379C2.18316 15.677 2.42132 15.9204 2.71608 16.0739C3.01084 16.2273 3.34684 16.2828 3.67528 16.2323C3.99899 16.1825 4.29874 16.0322 4.53229 15.803L7.89855 12.0815C8.01645 11.9512 8.18379 11.8765 8.35955 11.8758L11.6255 11.8627C11.6338 11.8625 11.6421 11.8625 11.6504 11.8626L13.436 11.8555L13.4385 11.8555C14.3502 11.8555 15.2246 11.4933 15.8692 10.8486C16.5139 10.204 16.876 9.32965 16.876 8.41797C16.876 7.50629 16.5139 6.63195 15.8692 5.98729C15.2248 5.34284 14.3508 4.98071 13.4394 4.98047C13.4391 4.98047 13.4388 4.98047 13.4385 4.98047L6.56431 5.0008L6.56251 5.0008C5.75427 5.00086 4.97188 5.28561 4.35269 5.80508C3.74033 6.3188 3.32628 7.02961 3.18125 7.81508ZM13.0398 13.1071L15.4685 15.8033C15.702 16.0323 16.0015 16.1824 16.3251 16.2322C16.6535 16.2827 16.9895 16.2272 17.2843 16.0738C17.579 15.9203 17.8172 15.6769 17.9642 15.3789C18.1104 15.0823 18.1588 14.747 18.1025 14.4212L17.4192 10.8933C17.2315 11.1952 17.0085 11.4771 16.7531 11.7325C15.8744 12.6113 14.6826 13.1051 13.4399 13.1055C13.4395 13.1055 13.439 13.1055 13.4385 13.1055L13.0398 13.1071ZM6.875 6.56311C7.22018 6.56311 7.5 6.84293 7.5 7.18811V7.81311H8.125C8.47018 7.81311 8.75 8.09293 8.75 8.43811C8.75 8.78329 8.47018 9.06311 8.125 9.06311H7.5V9.68811C7.5 10.0333 7.22018 10.3131 6.875 10.3131C6.52982 10.3131 6.25 10.0333 6.25 9.68811V9.06311H5.625C5.27982 9.06311 5 8.78329 5 8.43811C5 8.09293 5.27982 7.81311 5.625 7.81311H6.25V7.18811C6.25 6.84293 6.52982 6.56311 6.875 6.56311ZM11.25 8.43811C11.25 8.09293 11.5298 7.81311 11.875 7.81311H14.375C14.7202 7.81311 15 8.09293 15 8.43811C15 8.78329 14.7202 9.06311 14.375 9.06311H11.875C11.5298 9.06311 11.25 8.78329 11.25 8.43811Z" fill="#FFA200"/>
</svg>
