<svg width="21" height="20" viewBox="0 0 21 20" fill="none" xmlns="http://www.w3.org/2000/svg">
<path d="M10.5 5.85938C8.8038 5.85938 7.42383 4.54512 7.42383 2.92969C7.42383 1.31426 8.8038 0 10.5 0C12.1962 0 13.5762 1.31426 13.5762 2.92969C13.5762 4.54512 12.1962 5.85938 10.5 5.85938ZM10.5 1.17188C9.48228 1.17188 8.6543 1.96043 8.6543 2.92969C8.6543 3.89895 9.48228 4.6875 10.5 4.6875C11.5177 4.6875 12.3457 3.89895 12.3457 2.92969C12.3457 1.96043 11.5177 1.17188 10.5 1.17188Z" fill="#FFA200"/>
<path d="M0.412025 16.7377C-0.436096 15.3387 0.0690115 13.5434 1.53799 12.7357C3.00704 11.928 4.89204 12.409 5.74012 13.808C6.59021 15.2103 6.0867 17.0004 4.61416 17.81C3.13587 18.6229 1.25473 18.1278 0.412025 16.7377ZM2.15322 13.7505C1.27184 14.2352 0.968812 15.3123 1.47765 16.1518C1.98407 16.9871 3.1136 17.282 3.99892 16.7952C4.88232 16.3094 5.1846 15.2354 4.67453 14.3939C4.16565 13.5546 3.03465 13.2659 2.15322 13.7505Z" fill="#FFA200"/>
<path d="M16.3858 17.81C14.9135 17.0005 14.4097 15.2104 15.2599 13.808C16.1079 12.409 17.9931 11.9279 19.462 12.7357C20.9309 13.5434 21.436 15.3387 20.5879 16.7377C19.7436 18.1304 17.8608 18.6211 16.3858 17.81ZM16.3255 14.394C15.8155 15.2353 16.1175 16.3094 17.0011 16.7952C17.8824 17.2798 19.0135 16.9912 19.5224 16.1518C20.0312 15.3124 19.7282 14.2352 18.8468 13.7506C17.9608 13.2634 16.8317 13.559 16.3255 14.394Z" fill="#FFA200"/>
<path d="M2.51427 10.7468L1.28564 10.6824C1.36595 9.29333 1.79834 7.92645 2.53609 6.72954C3.25341 5.56571 4.25936 4.55902 5.44521 3.81836L6.12 4.79828C4.00105 6.1218 2.65311 8.34556 2.51427 10.7468Z" fill="#FFA200"/>
<path d="M18.4866 10.7468C18.3477 8.34556 16.9998 6.1218 14.8809 4.79828L15.5556 3.81836C16.7415 4.55902 17.7474 5.56567 18.4648 6.72954C19.2025 7.92645 19.6349 9.29333 19.7152 10.6824L18.4866 10.7468Z" fill="#FFA200"/>
<path d="M10.5008 19.9991C9.03756 19.9991 7.63794 19.6823 6.34082 19.0575L6.89621 18.0117C8.01951 18.5529 9.2323 18.8272 10.5008 18.8272C11.7694 18.8272 12.9822 18.5529 14.1055 18.0118L14.6609 19.0575C13.3637 19.6823 11.9641 19.9991 10.5008 19.9991Z" fill="#FFA200"/>
</svg>
