<svg width="20" height="20" viewBox="0 0 20 20" fill="none" xmlns="http://www.w3.org/2000/svg">
<path d="M17.0703 9.97617H15.1126C14.8461 9.97617 14.5882 10.0108 14.3427 10.0746C13.8584 9.16791 12.8696 8.54492 11.7303 8.54492H8.26973C7.13039 8.54492 6.14164 9.16791 5.65734 10.0746C5.41184 10.0108 5.15387 9.97617 4.88742 9.97617H2.92969C1.31426 9.97617 0 11.2278 0 12.7664V15.7469C0 16.67 0.788555 17.421 1.75781 17.421H18.2422C19.2114 17.421 20 16.67 20 15.7469V12.7664C20 11.2278 18.6857 9.97617 17.0703 9.97617ZM5.34004 11.3352V16.305H1.75781C1.43473 16.305 1.17188 16.0547 1.17188 15.747V12.7664C1.17188 11.8433 1.96043 11.0923 2.92969 11.0923H4.88742C5.04648 11.0923 5.20051 11.1129 5.34715 11.1508C5.34293 11.2118 5.34004 11.2732 5.34004 11.3352ZM13.4881 16.305H6.51191V11.3351C6.51191 10.412 7.30047 9.66103 8.26973 9.66103H11.7303C12.6995 9.66103 13.4881 10.412 13.4881 11.3351V16.305ZM18.8281 15.747C18.8281 16.0547 18.5653 16.305 18.2422 16.305H14.66V11.3351C14.66 11.2731 14.6571 11.2117 14.6529 11.1507C14.7995 11.1129 14.9535 11.0922 15.1126 11.0922H17.0703C18.0396 11.0922 18.8281 11.8432 18.8281 12.7664V15.747Z" fill="#FFA200"/>
<path d="M3.90854 4.70703C2.47303 4.70703 1.30518 5.81927 1.30518 7.18642C1.30514 8.55357 2.47303 9.66581 3.90854 9.66581C5.344 9.66581 6.51189 8.55357 6.51189 7.18642C6.51189 5.81927 5.34404 4.70703 3.90854 4.70703ZM3.9085 8.54974C3.11916 8.54974 2.47701 7.93817 2.47701 7.18642C2.47701 6.43467 3.11916 5.8231 3.9085 5.8231C4.69783 5.8231 5.33998 6.43467 5.33998 7.18642C5.33998 7.93817 4.69783 8.54974 3.9085 8.54974Z" fill="#FFA200"/>
<path d="M9.99904 1.62695C8.08123 1.62695 6.521 3.11289 6.521 4.93938C6.521 6.76587 8.08123 8.2518 9.99904 8.2518C11.9169 8.2518 13.4771 6.76587 13.4771 4.93938C13.4771 3.11293 11.9169 1.62695 9.99904 1.62695ZM9.99904 7.13573C8.7274 7.13573 7.69287 6.15046 7.69287 4.93938C7.69287 3.72833 8.7274 2.74302 9.99904 2.74302C11.2707 2.74302 12.3052 3.72829 12.3052 4.93938C12.3052 6.15046 11.2707 7.13573 9.99904 7.13573Z" fill="#FFA200"/>
<path d="M16.0907 4.70703C14.6552 4.70703 13.4873 5.81927 13.4873 7.18642C13.4873 8.55357 14.6552 9.66581 16.0907 9.66581C17.5262 9.66581 18.694 8.55357 18.694 7.18642C18.694 5.81927 17.5262 4.70703 16.0907 4.70703ZM16.0907 8.54974C15.3014 8.54974 14.6592 7.93817 14.6592 7.18642C14.6592 6.43467 15.3014 5.8231 16.0907 5.8231C16.88 5.8231 17.5221 6.43467 17.5221 7.18642C17.5221 7.93817 16.88 8.54974 16.0907 8.54974Z" fill="#FFA200"/>
</svg>
