<svg width="20" height="20" viewBox="0 0 20 20" fill="none" xmlns="http://www.w3.org/2000/svg">
<path fill-rule="evenodd" clip-rule="evenodd" d="M6.47316 2.99787C6.47316 2.99787 6.47316 2.99787 6.47316 2.99787ZM6.47379 2.99926L8.04352 6.48755L6.74453 8.37784C6.62636 8.5484 6.5565 8.74517 6.54174 8.94905C6.52694 9.15357 6.56809 9.35825 6.66117 9.54309L6.66327 9.54722C7.37307 10.9292 8.54935 12.0444 10.0037 12.7141L10.0081 12.7161C10.2034 12.8043 10.4194 12.8424 10.6348 12.8269C10.8496 12.8114 11.0565 12.7431 11.2352 12.6287C11.2358 12.6283 11.2364 12.628 11.2369 12.6276L13.19 11.3873L16.8492 12.8808C16.7517 13.597 16.3845 14.2552 15.8152 14.7325C15.2446 15.211 14.5103 15.475 13.75 15.475M6.47379 2.99926C5.72179 3.09212 5.0308 3.44218 4.52964 3.98433C4.02722 4.52783 3.75004 5.22712 3.75 5.95124C3.75 8.47711 4.80357 10.8995 6.67893 12.6856C8.55429 14.4716 11.0978 15.475 13.75 15.475M6.32515 1.8172C6.59374 1.78625 6.86562 1.83926 7.09983 1.96826C7.3337 2.09707 7.51735 2.29468 7.6232 2.53139C7.62336 2.53173 7.62351 2.53207 7.62366 2.53241L9.19245 6.0186C9.27365 6.19904 9.30673 6.3958 9.28876 6.59136C9.27078 6.78692 9.20231 6.97522 9.08943 7.13947L7.78971 9.03082C8.37571 10.168 9.34389 11.0861 10.5405 11.639L12.4965 10.3968C12.6695 10.2869 12.8686 10.2199 13.0757 10.2018C13.2827 10.1837 13.4913 10.215 13.6824 10.293L17.3397 11.7858C17.34 11.7859 17.3403 11.7861 17.3406 11.7862C17.5892 11.887 17.7968 12.0619 17.9321 12.2847C18.0675 12.5078 18.1232 12.7667 18.0907 13.0225L18.0902 13.0264C17.9553 14.032 17.4401 14.9562 16.6412 15.626C15.8423 16.2959 14.8144 16.6654 13.75 16.6655C10.7663 16.6655 7.90483 15.5367 5.79505 13.5274C3.68526 11.518 2.5 8.79282 2.5 5.95121C2.50006 4.9375 2.88808 3.95853 3.59143 3.19767C4.29477 2.43681 5.2652 1.9462 6.32101 1.81769L6.32515 1.8172Z" fill="#FFA200"/>
</svg>
