<svg width="20" height="20" viewBox="0 0 20 20" fill="none" xmlns="http://www.w3.org/2000/svg">
<path fill-rule="evenodd" clip-rule="evenodd" d="M8.53665 2.64411C9.99151 2.35472 11.4995 2.50325 12.87 3.07091C14.2404 3.63856 15.4117 4.59986 16.2358 5.83323C17.06 7.0666 17.4998 8.51664 17.4998 10C17.4998 11.4834 17.06 12.9334 16.2358 14.1668C15.4117 15.4002 14.2404 16.3614 12.87 16.9291C11.4995 17.4968 9.99151 17.6453 8.53665 17.3559C7.08179 17.0665 5.74542 16.3522 4.69652 15.3033C4.45245 15.0592 4.45245 14.6635 4.69652 14.4194C4.9406 14.1753 5.33633 14.1753 5.58041 14.4194C6.45449 15.2935 7.56813 15.8888 8.78051 16.1299C9.99289 16.3711 11.2496 16.2473 12.3916 15.7743C13.5336 15.3012 14.5098 14.5001 15.1965 13.4723C15.8833 12.4445 16.2498 11.2361 16.2498 10C16.2498 8.76387 15.8833 7.5555 15.1965 6.52769C14.5098 5.49988 13.5336 4.6988 12.3916 4.22576C11.2496 3.75271 9.99289 3.62894 8.78051 3.8701C7.56814 4.11125 6.4545 4.7065 5.58043 5.58057C5.58042 5.58057 5.58043 5.58056 5.58043 5.58057L3.99561 7.16553H5.61182C5.95699 7.16553 6.23682 7.44535 6.23682 7.79053C6.23682 8.13571 5.95699 8.41553 5.61182 8.41553H2.48682C2.14164 8.41553 1.86182 8.13571 1.86182 7.79053V4.66553C1.86182 4.32035 2.14164 4.04053 2.48682 4.04053C2.83199 4.04053 3.11182 4.32035 3.11182 4.66553V6.28155L4.6965 4.69672C5.7454 3.64783 7.08179 2.9335 8.53665 2.64411Z" fill="#FFA200"/>
</svg>
