<svg width="20" height="20" viewBox="0 0 20 20" fill="none" xmlns="http://www.w3.org/2000/svg">
<g clip-path="url(#clip0)">
<path d="M19.1437 15.0023L14.9473 10.8059C14.5218 10.3813 13.9449 10.0799 13.3165 9.98411L15.1665 8.13415C16.4771 8.36723 17.8382 7.94712 18.7877 6.99754C20.0142 5.7711 20.3361 3.89609 19.5888 2.33175C19.4146 1.96722 18.9316 1.88472 18.6463 2.17011L17.3029 3.51351H16.4748V2.68539L17.8182 1.34199C18.1038 1.0564 18.0207 0.573508 17.6565 0.399562C16.0922 -0.347744 14.2172 -0.025829 12.9907 1.20066C12.0412 2.15019 11.621 3.51121 11.8541 4.82191L9.58043 7.09563L6.38296 3.89816L6.79702 3.48406C7.06648 3.21465 7.01034 2.76351 6.68425 2.56785L2.54365 0.0834681C2.31326 -0.0548134 2.0183 -0.0184461 1.8283 0.171554L0.172009 1.82781C-0.0179914 2.01781 -0.0542806 2.31273 0.0839228 2.54316L2.56834 6.68383C2.7658 7.01301 3.21725 7.06391 3.48455 6.79661L3.89866 6.3825L7.09612 9.57993L4.82241 11.8536C3.51178 11.6206 2.15068 12.0407 1.20115 12.9903C-0.0253353 14.2167 -0.347289 16.0917 0.400056 17.656C0.574236 18.0206 1.05725 18.1031 1.34252 17.8177L2.68588 16.4743H3.51401V17.3024L2.17061 18.6458C1.88498 18.9314 1.96807 19.4143 2.33225 19.5882C2.89451 19.8569 3.49678 19.9873 4.09479 19.9873C5.16049 19.9873 6.21241 19.5728 6.99804 18.7872C7.94757 17.8376 8.36773 16.4766 8.1346 15.1659L9.98464 13.3159C10.0805 13.9444 10.382 14.5215 10.8069 14.9472L15.0028 19.1431C16.1427 20.283 17.9973 20.2881 19.1438 19.143C20.2851 18.0012 20.285 16.1437 19.1437 15.0023ZM3.18674 5.43817L1.32342 2.33265L2.33311 1.323L5.43858 3.18629C5.22245 3.40242 3.47858 5.14633 3.18674 5.43817ZM4.72671 5.55442C5.26612 5.01496 5.10315 5.17797 5.55487 4.72625L8.7523 7.92368L7.92417 8.75181L4.72671 5.55442ZM7.07968 14.5646C6.93187 14.7124 6.87401 14.9278 6.92796 15.1298C7.19726 16.138 6.90679 17.2221 6.16987 17.9591C5.50753 18.6214 4.58057 18.9145 3.6851 18.7876L4.51362 17.9591C4.62342 17.8493 4.68514 17.7004 4.68514 17.5451V15.8888C4.68514 15.5654 4.42295 15.3032 4.09956 15.3032H2.44326C2.28791 15.3032 2.139 15.3649 2.0292 15.4747L1.20068 16.3032C1.07385 15.4076 1.36693 14.4807 2.0292 13.8185C2.76612 13.0815 3.85026 12.791 4.8585 13.0604C5.06049 13.1143 5.27585 13.0565 5.4237 12.9087C5.55374 12.7786 12.6494 5.68297 12.9091 5.42324C13.057 5.27543 13.1148 5.06004 13.0609 4.85805C12.7916 3.84984 13.082 2.76574 13.8189 2.02875C14.4813 1.36644 15.4081 1.07324 16.3037 1.20023L15.4752 2.02875C15.3654 2.13855 15.3037 2.2875 15.3037 2.44277V4.09902C15.3037 4.42242 15.5659 4.68461 15.8893 4.68461H17.5456C17.7009 4.68461 17.8498 4.62289 17.9596 4.51309L18.7881 3.68457C18.915 4.58016 18.6219 5.50707 17.9596 6.16934C17.2227 6.90625 16.1385 7.19668 15.1303 6.92743C14.9283 6.87348 14.713 6.93129 14.5651 7.07911L7.07968 14.5646ZM18.3159 18.3149C17.6294 19.0005 16.5149 18.9991 15.831 18.3151L11.6354 14.1195C11.0423 13.5253 10.8607 12.4899 11.6576 11.6571C12.4904 10.8602 13.5257 11.0419 14.1196 11.6345L18.3156 15.8305C19.0004 16.5153 19.0003 17.6299 18.3159 18.3149Z" fill="#FFA200"/>
</g>
<defs>
<clipPath id="clip0">
<rect width="20" height="20" fill="white"/>
</clipPath>
</defs>
</svg>
