<svg width="21" height="21" viewBox="0 0 21 21" fill="none" xmlns="http://www.w3.org/2000/svg">
<path d="M20.5161 18.1093C20.5098 18.103 20.5035 18.0966 20.4971 18.0903L19.6886 17.3002L18.2141 15.8165L17.1208 14.7232L18.0901 13.754C18.2682 13.5748 18.2682 13.2854 18.0901 13.1063L17.0427 12.0589C16.8636 11.8808 16.5742 11.8808 16.395 12.0589L16.0184 12.4356L14.4703 10.7038L20.6074 5.20984C20.699 5.12733 20.7536 5.01145 20.759 4.88828L20.9795 0.483007C20.9865 0.353008 20.9381 0.226109 20.8462 0.133892C20.754 0.0420201 20.6271 -0.00638509 20.4971 0.000677594L16.0918 0.216578C15.9687 0.221918 15.8528 0.276524 15.7703 0.368167L10.5014 6.27556L5.22335 0.38189C5.14084 0.290248 5.02497 0.235641 4.9018 0.230301L0.496523 0.014401C0.366524 0.00733834 0.239625 0.0557436 0.147408 0.147616C0.0555359 0.239833 0.00713069 0.366731 0.0141934 0.496731L0.234687 4.90201C0.240027 5.02517 0.294634 5.14105 0.386276 5.22356L6.53253 10.7359L4.98908 12.4401L4.6124 12.0635C4.43325 11.8853 4.14385 11.8853 3.9647 12.0635L2.91736 13.1108C2.73924 13.2899 2.73924 13.5793 2.91736 13.7585L3.88661 14.7278L2.78874 15.8164L0.491929 18.1132C-0.16513 18.7729 -0.163063 19.8403 0.49658 20.4974C0.811415 20.811 1.2373 20.9876 1.68168 20.9888C2.12795 20.9903 2.5563 20.8134 2.87142 20.4973L6.24314 17.1256L7.21239 18.0949C7.39154 18.273 7.68094 18.273 7.86009 18.0949L8.90743 17.0475C9.08555 16.8684 9.08555 16.579 8.90743 16.3998L8.54913 16.0002L10.5014 14.2592L12.4537 16.0002L12.077 16.3769C11.8989 16.556 11.8989 16.8454 12.077 17.0246L13.1244 18.0719C13.3035 18.25 13.5929 18.25 13.7721 18.0719L14.7413 17.1027L15.8346 18.1959L17.3137 19.6751L18.113 20.4744C18.7661 21.138 19.8335 21.1465 20.4971 20.4934C21.1607 19.8403 21.1692 18.7729 20.5161 18.1093ZM15.3569 13.0878L14.5484 13.8963L12.8212 12.1691L13.7721 11.3193L15.3569 13.0878ZM1.11666 4.64936L0.932916 0.942311L4.63996 1.12606L9.85831 6.95995L8.79259 8.14969L6.86327 6.22038C6.67057 6.05535 6.3806 6.0778 6.21557 6.2705C6.06829 6.44248 6.06829 6.6961 6.21557 6.86808L8.20461 8.83874L7.14808 10.0285L1.11666 4.64936ZM2.21453 19.8083C2.0711 19.9526 1.87599 20.0337 1.67249 20.0334C1.24999 20.002 0.932859 19.6341 0.964268 19.2116C0.976785 19.0426 1.04494 18.8826 1.158 18.7564L1.61737 18.297L2.69227 19.3581L2.21453 19.8083ZM3.33538 18.6874L2.27885 17.6263L3.11029 16.7949L4.19438 17.879L3.33538 18.6874ZM4.81911 17.2037L3.73502 16.1196L4.52972 15.3755L5.61381 16.4595L4.81911 17.2037ZM7.52935 17.0797L6.56469 16.115L4.8329 14.3832L3.88661 13.4324L4.28166 13.0373L7.95655 16.7122L7.52935 17.0797ZM7.87387 15.3295L7.06539 14.521L14.7367 6.8497C14.9294 6.68468 14.9519 6.3947 14.7869 6.202C14.6218 6.0093 14.3319 5.98685 14.1392 6.15187C14.1212 6.16726 14.1044 6.18403 14.089 6.202L6.41769 13.8733L5.60922 13.0649L7.4926 10.961L16.3399 1.13065L20.0469 0.946905L19.8632 4.65395L13.5148 10.3271L7.87387 15.3295ZM11.1629 13.6161L12.1505 12.7847L13.9099 14.544L13.1014 15.3525L11.1629 13.6161ZM14.3784 16.1104L13.4459 17.1027L13.0509 16.7076L16.7258 13.0327L17.1208 13.4278L16.1516 14.397L14.3784 16.1104ZM15.3523 16.4366L16.4731 15.3755L17.2403 16.1426L16.1562 17.2267L15.3523 16.4366ZM17.6031 18.6874L16.7717 17.856L17.8558 16.7719L18.6872 17.6034L17.6031 18.6874ZM19.8448 19.8313L19.8081 19.8083C19.5046 20.0976 19.0275 20.0976 18.724 19.8083L18.2646 19.3489L19.3717 18.297L19.8311 18.7564C20.1279 19.051 20.134 19.5291 19.8448 19.8313Z" fill="#FFA200"/>
</svg>
