<svg width="20" height="20" viewBox="0 0 20 20" fill="none" xmlns="http://www.w3.org/2000/svg">
<path d="M10.0012 0C6.31971 0 3.32471 2.995 3.32471 6.67645C3.32471 10.3577 6.31971 13.3529 10.0012 13.3529C13.6824 13.3529 16.6776 10.3577 16.6776 6.67645C16.6776 2.995 13.6824 0 10.0012 0ZM10.0012 12.0395C7.04404 12.0395 4.63811 9.63356 4.63811 6.67645C4.63811 3.71934 7.04404 1.3134 10.0012 1.3134C12.9585 1.3134 15.3642 3.71934 15.3642 6.67645C15.3642 9.63356 12.9585 12.0395 10.0012 12.0395Z" fill="#FFA200"/>
<path d="M14.6621 19.0819L14.3338 11.2891L13.0217 11.3442L13.308 18.1367L10.5952 15.7993C10.2561 15.4825 9.74457 15.4821 9.40527 15.7993L6.69266 18.1365L6.97898 11.3442L5.66668 11.2891L5.33832 19.0819C5.33809 19.0911 5.33789 19.1003 5.33789 19.1095C5.33789 19.4573 5.53992 19.775 5.85273 19.9186C6.16707 20.0635 6.52824 20.0116 6.79531 19.782L10.0004 17.0205L13.2064 19.783C13.3728 19.9255 13.5762 19.9993 13.7819 19.9993C13.9058 19.9993 14.0304 19.9728 14.1481 19.9185C14.4607 19.7749 14.6628 19.4573 14.6628 19.1095C14.6628 19.1003 14.6626 19.0911 14.6621 19.0819Z" fill="#FFA200"/>
<path d="M12.9168 4.67875C12.6603 4.42219 12.2448 4.42219 11.9883 4.67875L9.1281 7.53891L7.7974 6.19203C7.5424 5.93395 7.1267 5.93133 6.86861 6.18633C6.61053 6.44133 6.60791 6.85703 6.86291 7.11512L8.65787 8.93199C8.78088 9.05656 8.94814 9.1268 9.12303 9.12727C9.12369 9.12727 9.12435 9.12727 9.12498 9.12727C9.299 9.12727 9.46623 9.05809 9.58947 8.93465L12.9167 5.60738C13.1734 5.35098 13.1734 4.93508 12.9168 4.67875Z" fill="#FFA200"/>
</svg>
